<?xml version="1.0" encoding="UTF-8"?>
<!DOCTYPE svg PUBLIC "-//W3C//DTD SVG 1.1//EN" "http://www.w3.org/Graphics/SVG/1.1/DTD/svg11.dtd">
<!-- Creator: CorelDRAW -->
<svg xmlns="http://www.w3.org/2000/svg" xml:space="preserve" width="128px" height="57px" version="1.1" style="shape-rendering:geometricPrecision; text-rendering:geometricPrecision; image-rendering:optimizeQuality; fill-rule:evenodd; clip-rule:evenodd"
viewBox="0 0 75.01 33.38"
 xmlns:xlink="http://www.w3.org/1999/xlink"
 xmlns:xodm="http://www.corel.com/coreldraw/odm/2003">
 <defs>
  <style type="text/css">
   <![CDATA[
    .fil168 {fill:none}
    .fil14 {fill:#550408}
    .fil63 {fill:#5A0509}
    .fil48 {fill:#643D4C}
    .fil25 {fill:#654454}
    .fil10 {fill:#694D5E}
    .fil9 {fill:#6C5265}
    .fil3 {fill:#6E596D}
    .fil17 {fill:#706074}
    .fil12 {fill:#72657A}
    .fil4 {fill:#7A6E81}
    .fil8 {fill:#827D91}
    .fil32 {fill:#82869B}
    .fil7 {fill:#868DA1}
    .fil23 {fill:#898FA1}
    .fil1 {fill:#9196AA}
    .fil18 {fill:#969AB1}
    .fil39 {fill:#989EAE}
    .fil29 {fill:#999EB5}
    .fil21 {fill:#A0A3B5}
    .fil43 {fill:#A32433}
    .fil67 {fill:#A42B3B}
    .fil46 {fill:#A51D2B}
    .fil26 {fill:#A6121B}
    .fil15 {fill:#A6AAB9}
    .fil47 {fill:#A9ADBB}
    .fil42 {fill:#AC1B2B}
    .fil24 {fill:#ADAFBE}
    .fil62 {fill:#B00E17}
    .fil28 {fill:#B0B3C0}
    .fil57 {fill:#B1121D}
    .fil56 {fill:#B31522}
    .fil36 {fill:#B31D2C}
    .fil45 {fill:#B5202F}
    .fil38 {fill:#B6B1BE}
    .fil11 {fill:#B6B9C5}
    .fil72 {fill:#B77888}
    .fil68 {fill:#B8ADB8}
    .fil53 {fill:#B91826}
    .fil60 {fill:#BAB6C3}
    .fil20 {fill:#BABDC8}
    .fil70 {fill:#BB1D2C}
    .fil51 {fill:#BB202F}
    .fil35 {fill:#BB2434}
    .fil71 {fill:#BB8D9B}
    .fil69 {fill:#BCA2AE}
    .fil27 {fill:#BD2A3A}
    .fil65 {fill:#BDBFC9}
    .fil5 {fill:#C1C2CC}
    .fil54 {fill:#C22434}
    .fil37 {fill:#C22E3E}
    .fil66 {fill:#C4AAB6}
    .fil34 {fill:#C63241}
    .fil64 {fill:#C6BAC4}
    .fil49 {fill:#C72F40}
    .fil19 {fill:#C83646}
    .fil2 {fill:#C9CAD2}
    .fil52 {fill:#CA3749}
    .fil16 {fill:#CB3D4D}
    .fil61 {fill:#CC3040}
    .fil40 {fill:#CE4252}
    .fil13 {fill:#CFCFD7}
    .fil44 {fill:#D13D4E}
    .fil31 {fill:#D14857}
    .fil59 {fill:#D23A4C}
    .fil58 {fill:#D2D3D9}
    .fil30 {fill:#D44355}
    .fil33 {fill:#D65161}
    .fil6 {fill:#D7D8DD}
    .fil55 {fill:#D9D9DD}
    .fil22 {fill:#DA4E61}
    .fil41 {fill:#E1596E}
    .fil50 {fill:#E6E6E9}
    .fil167 {fill:white}
    .fil0 {fill:#1A1A1A;fill-rule:nonzero}
    .fil166 {fill:#873600;fill-rule:nonzero}
    .fil165 {fill:#883700;fill-rule:nonzero}
    .fil164 {fill:#8A3700;fill-rule:nonzero}
    .fil163 {fill:#8B3800;fill-rule:nonzero}
    .fil162 {fill:#8D3901;fill-rule:nonzero}
    .fil161 {fill:#903A01;fill-rule:nonzero}
    .fil160 {fill:#923B01;fill-rule:nonzero}
    .fil159 {fill:#943C01;fill-rule:nonzero}
    .fil158 {fill:#973D02;fill-rule:nonzero}
    .fil157 {fill:#9A3E02;fill-rule:nonzero}
    .fil156 {fill:#9C4002;fill-rule:nonzero}
    .fil155 {fill:#9F4102;fill-rule:nonzero}
    .fil154 {fill:#A14203;fill-rule:nonzero}
    .fil153 {fill:#A44303;fill-rule:nonzero}
    .fil152 {fill:#A74403;fill-rule:nonzero}
    .fil151 {fill:#A94603;fill-rule:nonzero}
    .fil150 {fill:#AC4704;fill-rule:nonzero}
    .fil149 {fill:#AE4804;fill-rule:nonzero}
    .fil148 {fill:#B04904;fill-rule:nonzero}
    .fil147 {fill:#B34A04;fill-rule:nonzero}
    .fil146 {fill:#B54B05;fill-rule:nonzero}
    .fil145 {fill:#B74C05;fill-rule:nonzero}
    .fil144 {fill:#B94D05;fill-rule:nonzero}
    .fil143 {fill:#BB4E05;fill-rule:nonzero}
    .fil142 {fill:#BD4F05;fill-rule:nonzero}
    .fil141 {fill:#BF5006;fill-rule:nonzero}
    .fil140 {fill:#C15106;fill-rule:nonzero}
    .fil139 {fill:#C35106;fill-rule:nonzero}
    .fil138 {fill:#C55206;fill-rule:nonzero}
    .fil137 {fill:#C65306;fill-rule:nonzero}
    .fil136 {fill:#C85407;fill-rule:nonzero}
    .fil135 {fill:#CA5507;fill-rule:nonzero}
    .fil134 {fill:#CB5507;fill-rule:nonzero}
    .fil133 {fill:#CD5607;fill-rule:nonzero}
    .fil132 {fill:#CE5707;fill-rule:nonzero}
    .fil131 {fill:#D05707;fill-rule:nonzero}
    .fil130 {fill:#D15807;fill-rule:nonzero}
    .fil129 {fill:#D25908;fill-rule:nonzero}
    .fil128 {fill:#D45908;fill-rule:nonzero}
    .fil127 {fill:#D55A08;fill-rule:nonzero}
    .fil126 {fill:#D65A08;fill-rule:nonzero}
    .fil125 {fill:#D75B08;fill-rule:nonzero}
    .fil124 {fill:#D85B08;fill-rule:nonzero}
    .fil123 {fill:#DA5C08;fill-rule:nonzero}
    .fil122 {fill:#DB5C08;fill-rule:nonzero}
    .fil121 {fill:#DC5D08;fill-rule:nonzero}
    .fil120 {fill:#DD5D09;fill-rule:nonzero}
    .fil119 {fill:#DE5E09;fill-rule:nonzero}
    .fil118 {fill:#DF5E09;fill-rule:nonzero}
    .fil117 {fill:#DF5F09;fill-rule:nonzero}
    .fil116 {fill:#E05F09;fill-rule:nonzero}
    .fil115 {fill:#E15F09;fill-rule:nonzero}
    .fil114 {fill:#E26009;fill-rule:nonzero}
    .fil113 {fill:#E36009;fill-rule:nonzero}
    .fil112 {fill:#E46009;fill-rule:nonzero}
    .fil111 {fill:#E46109;fill-rule:nonzero}
    .fil110 {fill:#E56109;fill-rule:nonzero}
    .fil109 {fill:#E66109;fill-rule:nonzero}
    .fil108 {fill:#E6620A;fill-rule:nonzero}
    .fil107 {fill:#E7620A;fill-rule:nonzero}
    .fil106 {fill:#E8620A;fill-rule:nonzero}
    .fil105 {fill:#E8630A;fill-rule:nonzero}
    .fil104 {fill:#E9630A;fill-rule:nonzero}
    .fil103 {fill:#EA630A;fill-rule:nonzero}
    .fil102 {fill:#EB640A;fill-rule:nonzero}
    .fil101 {fill:#EC640A;fill-rule:nonzero}
    .fil100 {fill:#ED650A;fill-rule:nonzero}
    .fil99 {fill:#EE650A;fill-rule:nonzero}
    .fil98 {fill:#EF650A;fill-rule:nonzero}
    .fil97 {fill:#EF660A;fill-rule:nonzero}
    .fil96 {fill:#F0660A;fill-rule:nonzero}
    .fil95 {fill:#F0660B;fill-rule:nonzero}
    .fil94 {fill:#F1660B;fill-rule:nonzero}
    .fil93 {fill:#F1670B;fill-rule:nonzero}
    .fil92 {fill:#F2670B;fill-rule:nonzero}
    .fil91 {fill:#F3670B;fill-rule:nonzero}
    .fil90 {fill:#F3680B;fill-rule:nonzero}
    .fil89 {fill:#F4680B;fill-rule:nonzero}
    .fil88 {fill:#F5680B;fill-rule:nonzero}
    .fil87 {fill:#F5690B;fill-rule:nonzero}
    .fil86 {fill:#F6690B;fill-rule:nonzero}
    .fil85 {fill:#F7690B;fill-rule:nonzero}
    .fil84 {fill:#F86A0B;fill-rule:nonzero}
    .fil83 {fill:#F96A0B;fill-rule:nonzero}
    .fil82 {fill:#FA6A0B;fill-rule:nonzero}
    .fil81 {fill:#FA6B0B;fill-rule:nonzero}
    .fil80 {fill:#FA6B0C;fill-rule:nonzero}
    .fil79 {fill:#FB6B0C;fill-rule:nonzero}
    .fil78 {fill:#FC6B0C;fill-rule:nonzero}
    .fil77 {fill:#FC6C0C;fill-rule:nonzero}
    .fil76 {fill:#FD6C0C;fill-rule:nonzero}
    .fil75 {fill:#FE6C0C;fill-rule:nonzero}
    .fil74 {fill:#FE6D0C;fill-rule:nonzero}
    .fil73 {fill:#FF6D0C;fill-rule:nonzero}
   ]]>
  </style>
    <clipPath id="id0" style="clip-rule:nonzero">
     <path d="M5.03 19.17c-0.14,-1.66 -0.14,-3.32 0,-4.96 0.37,-4.47 3,-7.06 7.45,-7.44 1.64,-0.15 3.32,-0.15 4.96,0 4.45,0.38 7.08,2.97 7.44,7.44 0.15,1.64 0.15,3.3 0,4.96 -0.36,4.47 -2.97,7.08 -7.44,7.44 -1.64,0.15 -3.32,0.15 -4.96,0 -4.47,-0.36 -7.08,-2.97 -7.45,-7.44z"/>
    </clipPath>
 </defs>
 <g id="Capa_x0020_1">
  <metadata id="CorelCorpID_0Corel-Layer"/>
  <path class="fil0" d="M29.95 20.08l0 -4.79 0.86 0 0.07 0.67 -0.01 0c0.16,-0.24 0.36,-0.44 0.62,-0.58 0.25,-0.13 0.52,-0.2 0.85,-0.2 0.24,0 0.46,0.03 0.66,0.09 0.18,0.07 0.37,0.18 0.51,0.31 0.17,0.13 0.29,0.29 0.39,0.49 0.15,-0.28 0.4,-0.51 0.69,-0.66 0.27,-0.16 0.58,-0.23 0.91,-0.23 0.38,0 0.71,0.07 0.99,0.23 0.29,0.15 0.49,0.39 0.65,0.68 0.15,0.31 0.22,0.69 0.2,1.17l0.02 2.82 -0.95 0 0 -2.73c0,-0.46 -0.09,-0.79 -0.27,-1.02 -0.18,-0.22 -0.46,-0.33 -0.8,-0.33 -0.22,0 -0.42,0.05 -0.63,0.16 -0.18,0.13 -0.32,0.29 -0.42,0.53 -0.1,0.24 -0.16,0.51 -0.16,0.84l0 2.55 -0.95 0 0 -2.73c0,-0.46 -0.09,-0.79 -0.27,-1.02 -0.19,-0.21 -0.45,-0.33 -0.73,-0.33 -0.02,0 -0.04,0 -0.06,0 -0.23,0 -0.43,0.05 -0.62,0.18 -0.18,0.11 -0.32,0.29 -0.43,0.51 -0.11,0.24 -0.17,0.51 -0.17,0.84l0.02 2.55 -0.97 0zm8.16 0l0.02 -4.79 0.93 0 0.01 4.79 -0.96 0zm0.47 -5.69c-0.16,-0.01 -0.31,-0.07 -0.44,-0.18 -0.11,-0.11 -0.18,-0.27 -0.18,-0.43 0,0 0,-0.01 0,-0.01 0,-0.18 0.07,-0.31 0.18,-0.42 0.11,-0.11 0.28,-0.16 0.46,-0.16 0.18,0 0.33,0.05 0.44,0.16 0.13,0.11 0.18,0.24 0.18,0.42 0,0.18 -0.05,0.33 -0.18,0.44 -0.11,0.11 -0.28,0.16 -0.46,0.18zm1.84 5.69l0 -6.65 2.52 0c0.53,0 0.99,0.09 1.33,0.27 0.37,0.18 0.62,0.44 0.81,0.75 0.18,0.32 0.27,0.68 0.27,1.05 0,0.36 -0.09,0.73 -0.27,1.05 -0.17,0.31 -0.42,0.56 -0.77,0.76 -0.36,0.18 -0.8,0.29 -1.37,0.29l-1.18 0 0 2.48 -1.34 0zm1.32 -3.55l1.11 0c0.4,0 0.69,-0.09 0.86,-0.28 0.18,-0.18 0.27,-0.43 0.27,-0.73 0,-0.32 -0.09,-0.56 -0.27,-0.74 -0.17,-0.19 -0.46,-0.28 -0.86,-0.28l-1.09 0 -0.02 2.03 0 0zm3.99 3.55l0 -6.84 1.33 0 0 2.76c0.15,-0.26 0.37,-0.46 0.63,-0.6 0.27,-0.15 0.58,-0.22 0.93,-0.22 0.38,0 0.72,0.09 0.98,0.25 0.27,0.17 0.49,0.4 0.64,0.73 0.15,0.31 0.22,0.71 0.2,1.19l0.02 2.73 -1.33 0 0 -2.6c0,-0.39 -0.08,-0.68 -0.24,-0.88 -0.17,-0.2 -0.4,-0.31 -0.73,-0.31 -0.2,0 -0.4,0.05 -0.57,0.16 -0.16,0.1 -0.31,0.24 -0.4,0.42 -0.09,0.19 -0.12,0.41 -0.12,0.68l0 2.53 -1.34 0zm7.66 0.11c-0.47,0 -0.87,-0.11 -1.25,-0.31 -0.37,-0.22 -0.66,-0.51 -0.86,-0.89 -0.2,-0.38 -0.31,-0.82 -0.33,-1.3 0.02,-0.49 0.13,-0.93 0.33,-1.31 0.22,-0.38 0.51,-0.67 0.87,-0.89 0.37,-0.2 0.79,-0.31 1.24,-0.31 0.46,0 0.88,0.11 1.24,0.31 0.39,0.22 0.66,0.51 0.88,0.89 0.2,0.38 0.31,0.8 0.33,1.31 -0.02,0.5 -0.13,0.93 -0.35,1.3 -0.22,0.38 -0.49,0.68 -0.86,0.89 -0.36,0.2 -0.78,0.31 -1.24,0.31l0 0zm-0.01 -1.13c0.19,-0.01 0.39,-0.07 0.56,-0.16 0.15,-0.11 0.28,-0.26 0.39,-0.46 0.1,-0.2 0.14,-0.45 0.14,-0.75 0,-0.31 -0.05,-0.56 -0.14,-0.76 -0.09,-0.18 -0.22,-0.34 -0.39,-0.46 -0.17,-0.09 -0.35,-0.15 -0.55,-0.16 -0.19,0.01 -0.37,0.07 -0.54,0.16 -0.17,0.11 -0.29,0.26 -0.39,0.46 -0.09,0.2 -0.14,0.45 -0.14,0.76 0,0.3 0.03,0.55 0.14,0.75 0.1,0.2 0.22,0.35 0.39,0.46 0.16,0.09 0.33,0.14 0.53,0.16l0 0zm3.01 1.02l0 -4.79 1.16 0 0.1 0.78c0.14,-0.27 0.36,-0.47 0.62,-0.66 0.27,-0.16 0.6,-0.23 0.98,-0.23 0.38,0 0.73,0.09 1,0.25 0.28,0.17 0.48,0.4 0.62,0.73 0.15,0.31 0.21,0.69 0.21,1.17l0 2.75 -1.32 0 0 -2.64c0,-0.37 -0.07,-0.64 -0.24,-0.84 -0.14,-0.2 -0.4,-0.31 -0.73,-0.31 0,0 0,0 0,0 -0.2,0 -0.38,0.06 -0.54,0.16 -0.17,0.1 -0.29,0.24 -0.39,0.41 -0.09,0.18 -0.14,0.38 -0.14,0.59 0,0.03 0,0.05 0,0.08l0 2.55 -1.33 0zm7.68 0.11c-0.5,0 -0.92,-0.11 -1.28,-0.31 -0.38,-0.2 -0.68,-0.49 -0.88,-0.85 -0.2,-0.39 -0.31,-0.83 -0.31,-1.27 0,-0.01 0,-0.02 0,-0.03 0,-0.49 0.09,-0.93 0.31,-1.31 0.2,-0.39 0.5,-0.7 0.86,-0.92 0.38,-0.21 0.8,-0.32 1.3,-0.32 0.47,0 0.89,0.11 1.26,0.31 0.34,0.22 0.63,0.49 0.83,0.85 0.21,0.35 0.3,0.75 0.3,1.23l0 0.2c0,0.07 -0.02,0.16 -0.02,0.25l-3.89 0 0 -0.82 2.56 0c-0.02,-0.26 -0.13,-0.51 -0.31,-0.69 -0.2,-0.17 -0.45,-0.26 -0.71,-0.26 -0.01,0 -0.02,0 -0.02,0 -0.2,0 -0.41,0.06 -0.59,0.15 -0.18,0.11 -0.32,0.27 -0.42,0.46 -0.09,0.18 -0.14,0.43 -0.14,0.74l0 0.28c0,0.23 0.03,0.45 0.14,0.65 0.09,0.19 0.22,0.33 0.39,0.42 0.18,0.11 0.38,0.17 0.6,0.17 0.24,0 0.42,-0.06 0.56,-0.15 0.15,-0.09 0.27,-0.21 0.35,-0.36l1.35 0c-0.09,0.29 -0.24,0.56 -0.44,0.8 -0.22,0.24 -0.47,0.44 -0.78,0.56 -0.31,0.15 -0.64,0.22 -1.02,0.22zm2.4 -6.58l0 -0.37 1.28 0 0 0.37 -0.4 0 0 1.29 -0.47 0 0 -1.29 -0.41 0zm1.54 1.29l0 -1.66 0.62 0 0.42 1.1 0.45 -1.1 0.59 0 0 1.66 -0.44 0 0 -1.09 -0.46 1.09 -0.33 0 -0.43 -1.11 0 1.11 -0.42 0z"/>
  <g id="_2035277149440">
   <path class="fil1" d="M23.88 8.81c0.33,0.24 0.49,0.75 0.75,0.98 -0.1,0.1 -0.13,-0.01 0.03,0.23 0.34,0.55 0.55,0.89 0.81,1.49 -0.15,0 -0.05,0.05 -0.19,-0.04 0,0 -0.07,-0.08 -0.08,-0.1 -0.19,-0.23 -0.15,-0.16 -0.25,-0.15 -0.68,-1.27 -2.12,-2.7 -3.18,-3.71 -0.17,-0.14 -0.37,-0.27 -0.49,-0.44l-0.14 -0.14c0.28,0.09 1.31,1.06 1.6,1.35 0.5,0.51 0.98,1.03 1.49,1.55 0.05,-0.12 0.04,-0.02 0.01,-0.15 -0.03,-0.12 -0.48,-0.71 -0.56,-0.87l0.16 0.15c-0.32,-0.41 -0.57,-0.82 -0.89,-1.2 -0.17,-0.2 -0.42,-0.43 -0.57,-0.63 -0.15,-0.19 0.03,-0.06 -0.47,-0.6 -0.2,-0.2 -0.39,-0.4 -0.59,-0.61 -0.14,-0.15 -0.12,-0.19 -0.25,-0.32 -0.1,-0.11 -0.67,-0.58 -0.86,-0.63 -0.16,-0.04 -0.43,-0.12 -0.57,-0.24 -0.1,0.08 -0.27,0.15 -0.37,0.23 -0.41,0.29 -0.43,0.24 -0.57,0.36 -0.19,0.16 -0.37,0.31 -0.43,0.51 0.4,-0.07 0.32,-0.13 0.79,-0.03l0.61 0.19c0.16,0.09 0.16,0.05 0.12,0.21l-0.17 -0.07c-0.2,-0.11 -0.25,-0.09 -0.42,-0.11 -0.15,-0.06 -0.11,-0.07 -0.27,0.01 -0.19,0.02 -0.35,0.12 -0.5,0.34l-0.36 0.5c-0.06,0.16 0,0.3 0.01,0.34l0.21 0.7c0.35,0.93 1.12,2.25 1.83,3.08 0.13,0.14 0.29,0.36 0.41,0.52l1.46 1.57c0.1,0.09 0.12,0.08 0.25,0.2 0.08,0.08 0.16,0.18 0.25,0.25 0.1,0.1 0.39,0.28 0.5,0.43l-0.05 0.11 -1.54 -1.4c-0.22,-0.22 -0.28,-0.36 -0.46,-0.55 -0.96,-0.99 -1.68,-2.1 -2.3,-3.22l-0.49 -1.08 -0.28 -1.08c-0.04,-0.25 -0.02,-0.82 0.15,-1.04l0.09 -0.03c0.01,0 0.02,-0.01 0.03,-0.02l0.09 -0.12c0.45,-0.67 1.16,-1.03 1.33,-1.25 0.21,0.07 0.07,0 0.32,-0.06 0.13,-0.03 0.26,-0.05 0.42,-0.14 0.08,-0.05 0.14,-0.11 0.22,-0.15 0.23,-0.1 0.03,0.05 0.25,-0.03 0.23,-0.08 -0.04,-0.08 0.15,-0.09 0.15,-0.01 0.28,0.05 0.43,0.17l-0.04 0.14c0.01,0.1 0.03,0.12 0.06,0.21l-0.09 0.01c0.15,0.19 0.09,0.48 0.18,0.7 0.03,0.09 0.1,0.26 0.16,0.35 0.32,0.48 0.22,0.41 0.38,0.68l0.5 0.79c0.01,0.01 0.01,0.02 0.02,0.03 0.04,0.1 0.04,0.05 0.07,0.14l-0.12 -0.09c0.6,0.64 0.89,1.22 1.41,1.87z"/>
   <path class="fil2" d="M26.88 7.84c-0.04,0.13 -0.06,-0.01 0,0.16 0,0 0.06,0.09 0.06,0.11 0.15,0.26 0.2,0.47 0.28,0.62 0.16,0.32 0.26,0.55 0.32,0.83 0.03,0.19 0,0.04 0.08,0.24 0.04,0.08 0.03,0.11 0.03,0.2 -0.01,0.47 0.09,0.22 -0.02,0.62 -0.04,0.15 0,0.1 -0.02,0.32l0 0.13c0,0.01 0.01,0.02 0.01,0.03 0,0 0.01,0.01 0.01,0.01l0 0.03c-0.01,0.01 -0.01,0.02 -0.01,0.02 -0.06,0.15 -0.07,0.05 -0.06,0.35l0.03 0.26c0,0.01 0,0.02 0,0.03 0,0.01 0,0.02 0,0.03 0,0.66 0.02,0.35 0.05,0.73 0,0.01 0,0.02 0,0.03l-0.01 1.07c-0.01,0.08 -0.02,0.13 -0.03,0.21 -0.01,0.06 -0.01,0.07 -0.01,0.1l-0.06 0.3c-0.07,0.2 -0.06,0.06 -0.02,0.22 -0.13,0.17 -0.05,0.09 -0.06,0.15l0.35 -0.29c-0.18,0.18 -0.85,0.78 -1.06,0.85 0,-0.32 0.17,0.05 0.32,-0.64 0.04,-0.21 0.07,-0.12 0.06,-0.31 -0.01,-0.79 -0.25,-1.79 -0.45,-2.56 -0.02,-0.09 -0.02,-0.08 -0.04,-0.16 -0.01,-0.1 -0.01,-0.12 -0.02,-0.19 -0.01,-0.09 -0.09,-0.25 -0.16,-0.64l-0.05 -0.47c-0.02,-0.09 -0.04,-0.11 -0.04,-0.19l0 -0.06c0,-0.01 0,-0.02 0,-0.03l-0.01 -0.23c0.06,-1.33 0.58,-0.97 -0.02,-2.24 -0.01,-0.03 -0.05,-0.11 -0.06,-0.16 -0.06,-0.22 -0.06,-0.21 -0.26,-0.47 -0.44,-0.58 -0.55,-0.79 -1.06,-1.33l-0.47 -0.48c-0.01,-0.01 -0.1,-0.08 -0.11,-0.09 -0.19,-0.12 0,-0.01 -0.12,-0.05 -0.03,-0.04 -0.03,-0.06 -0.09,-0.1 -0.1,-0.07 -0.03,-0.04 -0.12,-0.04 -0.15,-0.26 -0.72,-0.59 -1.02,-0.76 -0.47,-0.28 -0.27,-0.15 -0.25,-0.27 0.13,0.1 0.35,0.23 0.49,0.25l0.65 0.46 0.16 0.13 0.41 0.3c0.01,0.23 0.14,0.21 0.32,0.4 0.12,0.12 0.23,0.23 0.36,0.35 0.82,0.78 1.65,2.16 1.72,2.22z"/>
   <path class="fil3" d="M26.07 13.65c0.05,0.11 0.04,0.11 0.08,0.21l-0.04 0.03c-0.13,0.04 -0.43,0.08 -0.57,0l-0.05 0.09c-0.35,-0.08 -0.32,-0.11 -0.55,-0.06 -0.27,-0.25 -0.13,-0.07 -0.42,-0.19 -0.01,-0.01 -0.02,-0.02 -0.03,-0.02 -0.01,0 -0.03,-0.01 -0.04,-0.01l-0.09 -0.03c-0.09,0.05 -0.01,0.03 -0.07,-0.02 -0.15,-0.15 -0.03,-0.05 -0.11,-0.1 -0.42,-0.25 -0.24,-0.16 -0.53,-0.39 -0.08,-0.07 -0.2,-0.11 -0.25,-0.15 -0.48,-0.39 -0.33,-0.31 -0.41,-0.45 -0.24,-0.43 -1.03,-0.89 -1.1,-1.24 -0.03,-0.2 0.04,-0.12 -0.14,-0.27 -0.18,-0.16 -0.04,-0.08 -0.15,-0.24 -0.06,-0.09 -0.16,-0.16 -0.22,-0.27 -0.1,-0.16 -0.13,-0.31 -0.31,-0.5l0.06 -0.13c0,-0.01 0,-0.02 0,-0.02l-0.4 -0.71c-0.03,-0.09 0.01,-0.1 -0.05,-0.22 -0.06,-0.11 -0.11,-0.15 -0.14,-0.22 -0.03,-0.1 -0.02,-0.14 -0.05,-0.22 -0.01,-0.05 -0.07,-0.19 -0.09,-0.23l-0.13 -0.35c-0.02,-0.11 -0.08,-0.21 -0.07,-0.3 0.03,-0.19 0.09,-0.11 -0.04,-0.45l-0.01 -0.1c-0.02,-0.48 0.03,-0.29 0.02,-0.5l-0.02 -0.2c0,-0.02 -0.01,-0.03 -0.01,-0.04l0.29 0.17 0.05 0.39c0.01,0.25 0.08,0.22 0.1,0.38 0.01,0.09 -0.01,0.12 0.01,0.22 0,0.01 0.01,0.02 0.01,0.03 0,0.01 0,0.02 0.01,0.03l0.03 0.13c0,0.01 0.01,0.02 0.01,0.03l0.09 0.25c0.06,0.15 0.11,0.33 0.17,0.48 0.05,0.12 0.27,0.41 0.39,0.77l0.03 0.09c0,0.01 0.01,0.02 0.01,0.03 0,0.03 0.02,0.09 0.02,0.1 0.07,0.26 0.06,0.02 0.24,0.48 0.09,0.2 0.16,0.26 0.35,0.49l-0.03 0.08c0.19,0.21 0.5,0.62 0.67,0.87 0.08,0.11 0.26,0.35 0.34,0.42 0.2,0.17 0.16,0.22 0.34,0.37 0.27,0.22 0.55,0.5 0.84,0.71 0.16,0.12 0.3,0.19 0.4,0.27 0.44,0.35 0.39,0.48 1.19,0.52l0.14 0.01c0.31,0.05 -0.04,-0.02 0.23,-0.02z"/>
   <path class="fil4" d="M26.1 14.29l0.02 0.12 -0.05 0.03c-0.68,0.55 -1.44,0.14 -2.09,-0.27 -0.34,-0.21 -0.72,-0.45 -1.05,-0.7 -0.83,-0.65 -1.79,-1.76 -2.41,-2.61l-0.72 -1.09c-0.09,-0.15 -0.02,-0.15 -0.25,-0.54 -0.1,-0.15 -0.08,-0.11 -0.13,-0.25 -0.05,-0.13 -0.09,-0.17 -0.15,-0.29 -0.12,-0.27 -0.01,-0.26 -0.24,-0.55 0.03,-0.19 0.04,-0.04 -0.01,-0.24 -0.06,-0.19 -0.08,-0.14 -0.08,-0.35l-0.01 -0.48c-0.01,-0.46 0.14,-0.64 0.24,-0.9 0.03,-0.09 0.03,-0.08 0.03,-0.15 0.17,0.02 0.22,0 0.42,0.11 0.03,0.32 -0.07,0.02 -0.07,0.64 0,0.13 -0.03,0.19 -0.03,0.31 0,0.13 0.04,0.18 0.04,0.32 0.02,0.62 0.07,0.45 0.1,0.67 0.02,0.24 -0.08,0.02 0.02,0.24 0.16,0.33 0.24,0.69 0.3,0.83 0.16,0.37 0.51,0.9 0.62,1.27 0.02,0.09 -0.01,0.04 0.08,0.16 0.05,0.05 0.12,0.11 0.16,0.17 0.11,0.15 0.04,0.08 0.07,0.15l0.78 1c1.21,1.26 1.68,1.86 3.18,2.43 0.76,0.29 1.05,-0.03 1.23,-0.03z"/>
   <path class="fil5" d="M26.74 15.2l-0.18 0.11 0.08 -0.17c0.14,-0.18 0.21,-0.13 0.27,-0.68 0.02,-0.16 0.01,-0.64 -0.07,-0.75 0.1,-0.25 -0.09,-0.71 -0.16,-0.95 -0.08,-0.24 -0.21,-0.7 -0.33,-0.9 0.03,-0.08 0.09,0.1 0.03,-0.11l-0.18 -0.45c-0.1,-0.18 -0.07,-0.05 -0.09,-0.22 -0.02,-0.24 -0.18,-0.64 -0.22,-0.79 -0.04,-0.13 0,-0.03 -0.02,-0.1 -0.02,-0.1 -0.03,-0.11 -0.05,-0.22 -0.1,-0.66 -0.14,-0.14 -0.19,-0.6 -0.02,-0.18 -0.04,-0.28 -0.05,-0.45l0 -0.22c0.01,-0.09 0.02,-0.12 0.01,-0.22 -0.01,-0.24 0.01,-0.04 0.06,-0.34l0.2 -0.98c-0.02,-0.11 -0.05,-0.13 -0.06,-0.22 -0.07,-0.36 -0.43,-0.81 -0.67,-1.1 -0.28,-0.34 -0.58,-0.62 -0.87,-0.94 0.12,0.04 -0.07,-0.07 0.12,0.05 0.01,0.01 0.1,0.08 0.11,0.09l0.47 0.48c0.51,0.54 0.62,0.75 1.06,1.33 0.2,0.26 0.2,0.25 0.26,0.47 0.01,0.05 0.05,0.13 0.06,0.16 0.6,1.27 0.08,0.91 0.02,2.24l0.01 0.23c0,0.01 0,0.02 0,0.03l0 0.06c0,0.08 0.02,0.1 0.04,0.19l0.05 0.47c0.07,0.39 0.15,0.55 0.16,0.64 0.01,0.07 0.01,0.09 0.02,0.19 0.02,0.08 0.02,0.07 0.04,0.16 0.2,0.77 0.44,1.77 0.45,2.56 0.01,0.19 -0.02,0.1 -0.06,0.31 -0.15,0.69 -0.32,0.32 -0.32,0.64z"/>
   <path class="fil6" d="M26.81 7.21c0.04,0.12 0.16,0.26 0.27,0.35 0.05,0.19 0.57,0.89 0.73,1.06 0.01,0.06 0.61,1.16 0.7,1.36 0.1,0.24 0.18,0.44 0.26,0.67 0.09,0.24 0.13,0.48 0.23,0.69l-0.01 0.01 0.06 0.38c0.2,1.23 -0.38,1.79 -1.25,2.62l-0.35 0.29c0.01,-0.06 -0.07,0.02 0.06,-0.15 0.5,-0.51 0.51,-0.41 0.64,-0.92 0.1,-0.39 0.12,-0.1 0.14,-0.59l0.09 -0.32c0.01,-0.03 0.02,-0.06 0.03,-0.09l0.04 -0.35c0,-0.01 0,-0.05 0,-0.06 0.02,-0.85 -0.01,-0.32 -0.2,-1.17l-0.22 -0.98c-0.09,-0.35 -0.33,-0.72 -0.5,-1 -0.05,-0.09 -0.12,-0.27 -0.18,-0.38 -0.05,-0.11 -0.11,-0.27 -0.17,-0.38 -0.08,-0.15 -0.21,-0.3 -0.3,-0.41 -0.07,-0.06 -0.9,-1.44 -1.72,-2.22 -0.13,-0.12 -0.24,-0.23 -0.36,-0.35 -0.18,-0.19 -0.31,-0.17 -0.32,-0.4l0.33 0.28 0.47 0.42 1.32 1.37 0.02 0.07c0.08,0.15 0.11,0.13 0.19,0.2z"/>
   <path class="fil7" d="M22.92 8.15c-0.22,-0.23 -0.1,-0.16 -0.19,-0.31 -0.28,-0.42 -1.22,-1.3 -1.61,-1.67 -0.24,-0.23 -0.42,-0.3 -0.69,-0.56 -0.03,0.01 0.11,0.04 -0.07,0.02l-0.53 -0.17 -0.13 0.18c-0.01,0 -0.02,-0.02 -0.03,-0.01 -0.14,0.07 0.06,-0.15 -0.12,-0.01 0.06,0.19 0.19,0.15 0.33,0.24 0.13,0.09 0.3,0.25 0.44,0.35 0.2,0.14 0.12,-0.08 0.87,0.59 0.24,0.22 1.59,1.3 1.73,1.35zm-1.64 -1.08l-0.13 -0.07 -0.19 -0.13 -0.19 -0.12 -0.34 -0.23 -0.29 -0.17 -0.25 -0.13 -0.1 -0.02c0.04,-0.16 0.04,-0.12 -0.12,-0.21l-0.61 -0.19c-0.47,-0.1 -0.39,-0.04 -0.79,0.03 0.06,-0.2 0.24,-0.35 0.43,-0.51 0.14,-0.12 0.16,-0.07 0.57,-0.36 0.1,-0.08 0.27,-0.15 0.37,-0.23 0.14,0.12 0.41,0.2 0.57,0.24 0.19,0.05 0.76,0.52 0.86,0.63 0.13,0.13 0.11,0.17 0.25,0.32 0.2,0.21 0.39,0.41 0.59,0.61 0.5,0.54 0.32,0.41 0.47,0.6 0.15,0.2 0.4,0.43 0.57,0.63 0.32,0.38 0.57,0.79 0.89,1.2l-0.16 -0.15c0.08,0.16 0.53,0.75 0.56,0.87 0.03,0.13 0.04,0.03 -0.01,0.15 -0.51,-0.52 -0.99,-1.04 -1.49,-1.55 -0.29,-0.29 -1.32,-1.26 -1.6,-1.35l0.14 0.14z"/>
   <path class="fil8" d="M26.07 14.44c0,0.06 0.09,0 -0.05,0.15 -0.25,0.24 -0.39,0.28 -0.66,0.3 -0.35,0.03 -1.04,-0.26 -1.37,-0.46 -0.24,-0.14 -0.4,-0.26 -0.66,-0.43 -1.02,-0.65 -3.19,-2.94 -3.76,-3.92 -0.22,-0.37 -0.69,-0.94 -0.78,-1.37 -0.04,-0.18 -0.28,-0.67 -0.31,-0.89l0.03 -1.16c0.06,-0.17 0.24,-0.48 0.42,-0.63 0.16,-0.08 0.12,-0.07 0.27,-0.01 0,0.07 0,0.06 -0.03,0.15 -0.1,0.26 -0.25,0.44 -0.24,0.9l0.01 0.48c0,0.21 0.02,0.16 0.08,0.35 0.05,0.2 0.04,0.05 0.01,0.24 0.23,0.29 0.12,0.28 0.24,0.55 0.06,0.12 0.1,0.16 0.15,0.29 0.05,0.14 0.03,0.1 0.13,0.25 0.23,0.39 0.16,0.39 0.25,0.54l0.72 1.09c0.62,0.85 1.58,1.96 2.41,2.61 0.33,0.25 0.71,0.49 1.05,0.7 0.65,0.41 1.41,0.82 2.09,0.27z"/>
   <path class="fil9" d="M25.97 13.28c0.07,0.15 0.1,0.21 0.1,0.37 -0.27,0 0.08,0.07 -0.23,0.02l-0.14 -0.01c-0.8,-0.04 -0.75,-0.17 -1.19,-0.52 -0.1,-0.08 -0.24,-0.15 -0.4,-0.27 -0.29,-0.21 -0.57,-0.49 -0.84,-0.71 -0.18,-0.15 -0.14,-0.2 -0.34,-0.37 -0.08,-0.07 -0.26,-0.31 -0.34,-0.42 -0.17,-0.25 -0.48,-0.66 -0.67,-0.87l0.03 -0.08c-0.19,-0.23 -0.26,-0.29 -0.35,-0.49 -0.18,-0.46 -0.17,-0.22 -0.24,-0.48 0,-0.01 -0.02,-0.07 -0.02,-0.1 0,-0.01 -0.01,-0.02 -0.01,-0.03l-0.03 -0.09c-0.12,-0.36 -0.34,-0.65 -0.39,-0.77 -0.06,-0.15 -0.11,-0.33 -0.17,-0.48l-0.09 -0.25c0,-0.01 -0.01,-0.02 -0.01,-0.03l-0.03 -0.13c-0.01,-0.01 -0.01,-0.02 -0.01,-0.03 0,-0.01 -0.01,-0.02 -0.01,-0.03 -0.02,-0.1 0,-0.13 -0.01,-0.22 -0.02,-0.16 -0.09,-0.13 -0.1,-0.38l-0.05 -0.39 0.34 0.23c-0.02,0.14 0.03,0.12 0.09,0.24 0.08,0.19 0.25,1.18 0.59,1.58 -0.02,0.08 -0.01,0.05 -0.08,0.12 0.06,0.07 0.07,0.09 0.1,0.16l0.27 0.48c0.14,0.23 0.16,0.36 0.37,0.61 0.42,0.49 0.19,0.42 0.32,0.63 0.21,0.34 1.34,1.64 1.55,1.83 0.12,0.12 0.17,0.11 0.3,0.16 0.55,0.26 0.64,0.64 0.61,0.33 0.25,0.22 0.45,0.33 0.76,0.4l0.19 0.08c0.07,-0.09 0.02,-0.04 0.13,-0.09z"/>
   <path class="fil10" d="M25.8 12.78l0.17 0.5c-0.11,0.05 -0.06,0 -0.13,0.09l-0.19 -0.08c-0.31,-0.07 -0.51,-0.18 -0.76,-0.4 0.03,0.31 -0.06,-0.07 -0.61,-0.33 -0.13,-0.05 -0.18,-0.04 -0.3,-0.16 -0.21,-0.19 -1.34,-1.49 -1.55,-1.83 -0.13,-0.21 0.1,-0.14 -0.32,-0.63 -0.21,-0.25 -0.23,-0.38 -0.37,-0.61l-0.27 -0.48c-0.03,-0.07 -0.04,-0.09 -0.1,-0.16 0.07,-0.07 0.06,-0.04 0.08,-0.12 -0.34,-0.4 -0.51,-1.39 -0.59,-1.58 -0.06,-0.12 -0.11,-0.1 -0.09,-0.24l0.19 0.12c0.01,0.06 -0.01,0 0.03,0.12l0.27 0.69c0.03,0.1 0.06,0.14 0.12,0.24 0.18,0.29 0.02,0.1 0.09,0.29 0.03,0.07 0.12,0.19 0.15,0.26 0.14,0.31 0.31,0.51 0.38,0.67 0.18,0.37 0.23,0.26 0.34,0.52 0.11,0.24 -0.06,-0.04 0.22,0.37l1.34 1.46c0.35,0.35 0.79,0.8 1.19,1.03l0.22 0.09c0.23,0.08 0.03,0.05 0.25,0.14 0.2,0.08 0.14,0.04 0.24,0.03z"/>
   <path class="fil11" d="M26.84 13.71c0.08,0.11 0.09,0.59 0.07,0.75 -0.06,0.55 -0.13,0.5 -0.27,0.68l-0.08 0.17 -0.13 0.06c0,-0.02 0.02,-0.05 0.01,-0.05 -0.12,0.02 0.43,-0.23 0.28,-1.39 -0.04,-0.28 -0.08,-0.42 -0.15,-0.73 -0.06,-0.21 -0.19,-0.59 -0.35,-0.78l0.02 0.03c0.12,-0.11 0.04,-0.15 0.04,-0.15l-0.41 -1.03c-0.12,-0.25 -0.24,-0.48 -0.3,-0.71l-0.33 -0.66c-0.26,-0.48 -0.44,-0.97 -0.53,-1.5l-0.09 -0.28c-0.09,-0.3 -0.05,0.02 0.01,-0.54 0.12,-1.2 0.86,-1.03 -0.3,-2.39 -0.25,-0.28 -0.62,-0.75 -0.96,-0.85 -0.08,-0.09 -0.1,-0.1 -0.22,-0.18 0,-0.01 -0.09,-0.07 -0.09,-0.07 -0.18,-0.09 -0.05,-0.03 -0.15,-0.03 -0.13,-0.16 -0.6,-0.38 -0.79,-0.46 -0.16,-0.05 -0.28,-0.08 -0.41,-0.11 -0.22,-0.05 -0.18,-0.08 -0.41,-0.06 -0.15,-0.04 -0.16,0 -0.32,-0.09 0.43,-0.13 1.07,0.11 1.51,0.27l0.28 0.12c-0.02,0.12 -0.22,-0.01 0.25,0.27 0.3,0.17 0.87,0.5 1.02,0.76 0.16,0.26 0.75,0.8 0.99,1.13 0.17,0.23 0.51,0.84 0.5,1.11 0,0.08 -0.06,0.16 -0.07,0.25 -0.05,0.36 -0.24,0.6 -0.24,1.1 0.01,0.37 -0.17,0.02 0.04,0.85 0.38,1.47 0.86,2.15 1.22,3.34 0.06,0.2 0.13,0.33 0.18,0.57 0.06,0.31 0.06,0.42 0.18,0.6z"/>
   <path class="fil12" d="M26.12 14.03c0.03,0.08 0.03,0.09 0.05,0.16l-0.07 0.1c-0.18,0 -0.47,0.32 -1.23,0.03 -1.5,-0.57 -1.97,-1.17 -3.18,-2.43l-0.78 -1c-0.03,-0.07 0.04,0 -0.07,-0.15 -0.04,-0.06 -0.11,-0.12 -0.16,-0.17 -0.09,-0.12 -0.06,-0.07 -0.08,-0.16 -0.11,-0.37 -0.46,-0.9 -0.62,-1.27 -0.06,-0.14 -0.14,-0.5 -0.3,-0.83 -0.1,-0.22 0,0 -0.02,-0.24 -0.03,-0.22 -0.08,-0.05 -0.1,-0.67 0,-0.14 -0.04,-0.19 -0.04,-0.32 0,-0.12 0.03,-0.18 0.03,-0.31 0,-0.62 0.1,-0.32 0.07,-0.64l0.17 0.07 0.1 0.02c-0.05,0.39 0,0.47 -0.09,0.73l-0.02 0.08c0,0.01 0.01,0.04 0.01,0.05 0.03,0.13 0.11,0.23 0.1,0.36l-0.07 0.17c0,0.01 0,0.02 -0.01,0.03l0.02 0.23c0.13,0.65 -0.08,0.12 0.21,0.65 0.14,0.26 0.07,0.09 0.01,0.31l0.23 0.26c-0.15,0.27 0.14,0.08 0.04,0.41 0.24,0.25 0.66,0.7 0.79,1.02 0.02,0.06 -0.03,-0.04 0.04,0.1l0.41 0.52c0.93,1.26 0.98,1.25 2.13,2.3l1.22 0.67c0.33,0.1 1.02,0.05 1.21,-0.08z"/>
   <path class="fil13" d="M27.51 14.49c-0.04,-0.16 -0.05,-0.02 0.02,-0.22l0.06 -0.3c0,-0.03 0,-0.04 0.01,-0.1 0.01,-0.08 0.02,-0.13 0.03,-0.21l0.01 -1.07c0,-0.01 0,-0.02 0,-0.03 -0.03,-0.38 -0.05,-0.07 -0.05,-0.73 0,-0.01 0,-0.02 0,-0.03 0,-0.01 0,-0.02 0,-0.03l-0.03 -0.26c-0.01,-0.3 0,-0.2 0.06,-0.35 0,0 0,-0.01 0.01,-0.02l0 -0.03c0,0 -0.01,-0.01 -0.01,-0.01 0,-0.01 -0.01,-0.02 -0.01,-0.03l0 -0.13c0.02,-0.22 -0.02,-0.17 0.02,-0.32 0.11,-0.4 0.01,-0.15 0.02,-0.62 0,-0.09 0.01,-0.12 -0.03,-0.2 -0.08,-0.2 -0.05,-0.05 -0.08,-0.24 -0.06,-0.28 -0.16,-0.51 -0.32,-0.83 -0.08,-0.15 -0.13,-0.36 -0.28,-0.62 0,-0.02 -0.06,-0.11 -0.06,-0.11 -0.06,-0.17 -0.04,-0.03 0,-0.16 0.09,0.11 0.22,0.26 0.3,0.41 0.06,0.11 0.12,0.27 0.17,0.38 0.06,0.11 0.13,0.29 0.18,0.38 0.17,0.28 0.41,0.65 0.5,1l0.22 0.98c0.19,0.85 0.22,0.32 0.2,1.17 0,0.01 0,0.05 0,0.06l-0.04 0.35c-0.01,0.03 -0.02,0.06 -0.03,0.09l-0.09 0.32c-0.02,0.49 -0.04,0.2 -0.14,0.59 -0.13,0.51 -0.14,0.41 -0.64,0.92z"/>
   <path class="fil14" d="M24.95 11.22l0.52 0.83c-0.13,0.02 0.01,0.05 -0.12,0l-0.34 -0.26c-1.15,-0.88 -2.06,-1.93 -2.91,-3.1l-0.04 -0.07c0.09,0.02 0.09,0.01 0.18,0.01 -0.1,-0.15 -0.05,-0.08 -0.08,-0.15l-0.02 -0.1c-0.07,-0.21 0.03,-0.08 -0.14,-0.28l0.17 -0.12c-0.14,-0.13 -0.36,-0.28 -0.4,-0.47 1.06,1.01 2.5,2.44 3.18,3.71z"/>
   <path class="fil15" d="M25.86 11.63l0.38 0.82 -0.02 -0.03c-0.02,0.11 -0.08,-0.01 0.06,0.34l0.11 0.34c-0.16,-0.26 -0.16,-0.43 -0.3,-0.7 -0.16,-0.17 -0.18,-0.4 -0.27,-0.59 -0.1,-0.21 -0.26,-0.47 -0.37,-0.68 -0.2,-0.35 -0.48,-1.04 -0.82,-1.34 0.14,-0.04 0.14,0.06 -0.15,-0.43 -0.5,-0.84 -0.96,-1.64 -1.26,-2.56 -0.05,-0.18 -0.06,-0.29 -0.09,-0.44 -0.13,-0.57 0.22,-1.1 0.24,-1.26 0.03,-0.15 0.03,-0.08 -0.03,-0.22 -0.14,-0.37 -0.56,-0.83 -0.92,-1.02 -0.2,-0.1 -0.6,-0.35 -0.84,-0.33l-0.28 -0.1c0.23,-0.02 0.19,0.01 0.41,0.06 0.13,0.03 0.25,0.06 0.41,0.11 0.19,0.08 0.66,0.3 0.79,0.46 0.16,0.18 0.38,0.3 0.55,0.48 0.19,0.19 0.36,0.39 0.54,0.59 0.01,-0.03 -0.07,0.01 -0.08,0.01 0.09,0.15 0.02,0 0.07,0.16l0.07 0.19c0.11,0.28 -0.14,0.43 -0.19,0.66l-0.1 0.76c0,0.01 0,0.02 -0.01,0.03 0,0.01 0,0.02 0,0.03 0,0.01 -0.01,0.02 -0.01,0.03 -0.02,0.15 0.02,0.22 0.05,0.38 0.06,0.28 0.22,0.56 0.19,0.74 0.2,0.26 1.55,2.99 1.87,3.51z"/>
   <path class="fil16" d="M30.36 8.56c-0.05,-0.14 -0.03,-0.05 -0.04,-0.22 -0.01,-0.06 -0.01,-0.13 0,-0.2 0.12,-0.15 -0.18,-1.04 -0.24,-1.22 -0.2,-0.55 -0.3,-0.78 -0.8,-1.29 -0.09,0.12 -0.11,0.14 -0.13,0.29 -0.02,0.23 0.06,0.53 0.07,0.7 0,0.01 0,0.05 0,0.07 -0.01,0.09 0,0.01 -0.03,0.12 -0.26,-0.6 -0.06,-1.22 -1.01,-1.8 -0.39,0.34 -0.27,0.81 -0.2,1.31 0.03,0.18 0.07,0.27 0.09,0.44 0.04,0.27 0.14,0.61 0.21,0.89 0.07,0.24 0.17,0.7 0.14,0.92 0,0.03 -0.01,0.14 -0.01,0.15 -0.02,0.06 -0.08,0.15 -0.1,0.2 -0.15,-0.13 -0.1,-0.03 -0.18,-0.17l-0.08 -1.28c-0.05,-0.09 -0.04,-0.04 -0.07,-0.14 0,-0.01 0,-0.02 0,-0.03 -0.01,-0.01 -0.01,-0.03 -0.01,-0.04 -0.09,-0.66 -0.31,-1.02 -0.28,-1.77 0,-0.05 -0.01,-0.07 -0.01,-0.12 0,-0.25 0.07,-0.56 0.31,-0.66 0.15,-0.06 0.17,-0.02 0.32,0.11l0.13 -0.02c0.12,0 0.42,0.29 0.5,0.37 -0.01,-0.16 0.03,-0.09 0.03,-0.22 -0.01,-0.14 -0.06,-0.11 -0.09,-0.25l-0.18 -0.08c0.04,-0.13 0.24,-0.15 -0.2,-0.61 -0.41,-0.42 -0.71,-0.48 -1.21,-0.65 -0.31,-0.11 -0.48,-0.1 -0.57,-0.24 0,-0.01 -0.01,-0.03 -0.01,-0.04l1.47 0.5c0,0.1 -0.19,0 0.26,0.24 0.24,0.12 0.5,0.33 0.65,0.55l0.17 0.32c0.2,0.35 -0.19,-0.09 0.25,0.64l0.3 0.63c0.21,0.42 0.37,0.84 0.48,1.28 0.08,0.32 0.19,1.05 0.07,1.32z"/>
   <path class="fil17" d="M26.11 13.89l0.01 0.14c-0.19,0.13 -0.88,0.18 -1.21,0.08l-1.22 -0.67c-1.15,-1.05 -1.2,-1.04 -2.13,-2.3l-0.41 -0.52c-0.07,-0.14 -0.02,-0.04 -0.04,-0.1 -0.13,-0.32 -0.55,-0.77 -0.79,-1.02 0.1,-0.33 -0.19,-0.14 -0.04,-0.41l-0.23 -0.26c0.06,-0.22 0.13,-0.05 -0.01,-0.31 -0.29,-0.53 -0.08,0 -0.21,-0.65l-0.02 -0.23c0.01,-0.01 0.01,-0.02 0.01,-0.03l0.07 -0.17c0.01,-0.13 -0.07,-0.23 -0.1,-0.36 0,-0.01 -0.01,-0.04 -0.01,-0.05l0.02 -0.08c0.09,-0.26 0.04,-0.34 0.09,-0.73l0.25 0.13c0,0.01 0.01,0.02 0.01,0.04l0.02 0.2c0.01,0.21 -0.04,0.02 -0.02,0.5l0.01 0.1c0.13,0.34 0.07,0.26 0.04,0.45 -0.01,0.09 0.05,0.19 0.07,0.3l0.13 0.35c0.02,0.04 0.08,0.18 0.09,0.23 0.03,0.08 0.02,0.12 0.05,0.22 0.03,0.07 0.08,0.11 0.14,0.22 0.06,0.12 0.02,0.13 0.05,0.22l0.4 0.71c0,0 0,0.01 0,0.02l-0.06 0.13c0.18,0.19 0.21,0.34 0.31,0.5 0.06,0.11 0.16,0.18 0.22,0.27 0.11,0.16 -0.03,0.08 0.15,0.24 0.18,0.15 0.11,0.07 0.14,0.27 0.07,0.35 0.86,0.81 1.1,1.24 0.08,0.14 -0.07,0.06 0.41,0.45 0.05,0.04 0.17,0.08 0.25,0.15 0.29,0.23 0.11,0.14 0.53,0.39 0.08,0.05 -0.04,-0.05 0.11,0.1 0.06,0.05 -0.02,0.07 0.07,0.02l0.09 0.03c0.01,0 0.03,0.01 0.04,0.01 0.01,0 0.02,0.01 0.03,0.02 0.29,0.12 0.15,-0.06 0.42,0.19 0.23,-0.05 0.2,-0.02 0.55,0.06l0.05 -0.09c0.14,0.08 0.44,0.04 0.57,0z"/>
   <path class="fil18" d="M23.61 8.21c0.03,0.09 0.11,0.18 0.17,0.27 0.01,0.01 0.08,0.12 0.09,0.12 0.12,0.28 0.04,0.02 0.01,0.21 -0.52,-0.65 -0.81,-1.23 -1.41,-1.87l0.12 0.09c-0.03,-0.09 -0.03,-0.04 -0.07,-0.14 -0.01,-0.01 -0.01,-0.02 -0.02,-0.03l-0.5 -0.79c-0.16,-0.27 -0.06,-0.2 -0.38,-0.68 -0.06,-0.09 -0.13,-0.26 -0.16,-0.35 -0.09,-0.22 -0.03,-0.51 -0.18,-0.7l0.09 -0.01c-0.03,-0.09 -0.05,-0.11 -0.06,-0.21l0.04 -0.14c-0.15,-0.12 -0.28,-0.18 -0.43,-0.17 -0.19,0.01 0.08,0.01 -0.15,0.09 -0.22,0.08 -0.02,-0.07 -0.25,0.03 -0.08,0.04 -0.14,0.1 -0.22,0.15 -0.16,0.09 -0.29,0.11 -0.42,0.14 -0.25,0.06 -0.11,0.13 -0.32,0.06 0.19,-0.19 0.56,-0.45 0.79,-0.5 0.11,-0.03 0.16,-0.1 0.26,-0.19 0.25,0.12 0.06,-0.04 0.39,0 0.22,0.02 0.13,0.07 0.24,-0.03 0.33,0.13 0.75,0.17 1.07,0.77l0.03 0.18c0,0.16 -0.06,0.18 -0.08,0.32l0.01 0.6c0.01,0.3 0,0.33 0.13,0.61l0.18 0.48c0.01,0 0.04,0.1 0.04,0.12l0.99 1.57z"/>
   <path class="fil19" d="M28.13 8.75c-0.12,-0.06 -0.16,-0.08 -0.28,-0.2l0.09 0.16 -0.13 -0.09c-0.16,-0.17 -0.68,-0.87 -0.73,-1.06l0.15 0.1c-0.05,-0.13 -0.07,-0.16 -0.15,-0.19l0.4 0.29c0.05,-0.11 -0.01,0 0.04,-0.09l0.08 -0.48c-0.05,-0.48 0,-0.17 0,-0.41l-0.14 -1.01c-0.01,-0.15 -0.04,-0.26 -0.06,-0.41 -0.07,-0.49 0.03,-0.53 0.05,-0.57 0,-0.03 -0.01,-0.13 0,-0.18l0.21 -0.29c0.08,-0.06 0.4,-0.06 0.5,-0.06l0.15 -0.17c-0.33,-0.45 -0.67,-0.51 -1.04,-0.68 -0.16,-0.07 -0.17,-0.12 -0.36,-0.09 -0.18,-0.12 -0.26,-0.04 -0.51,-0.2 -0.1,0.07 -0.16,0.02 -0.27,0 -0.11,-0.02 -0.21,-0.01 -0.34,-0.03 -0.22,-0.03 -0.47,0.02 -0.66,-0.1 0.24,-0.05 0.53,-0.01 0.79,-0.01 0.18,0.01 0.24,0.03 0.41,0.04 0.09,0.01 0.31,0.03 0.38,0.06 0,0.01 0.01,0.03 0.01,0.04 0.09,0.14 0.26,0.13 0.57,0.24 0.5,0.17 0.8,0.23 1.21,0.65 0.44,0.46 0.24,0.48 0.2,0.61l0.18 0.08c0.03,0.14 0.08,0.11 0.09,0.25 0,0.13 -0.04,0.06 -0.03,0.22 -0.08,-0.08 -0.38,-0.37 -0.5,-0.37l-0.13 0.02c-0.15,-0.13 -0.17,-0.17 -0.32,-0.11 -0.24,0.1 -0.31,0.41 -0.31,0.66 0,0.05 0.01,0.07 0.01,0.12 -0.03,0.75 0.19,1.11 0.28,1.77 0,0.01 0,0.03 0.01,0.04 0,0.01 0,0.02 0,0.03 0.03,0.1 0.02,0.05 0.07,0.14l0.08 1.28z"/>
   <path class="fil20" d="M26.84 13.71c-0.12,-0.18 -0.12,-0.29 -0.18,-0.6 -0.05,-0.24 -0.12,-0.37 -0.18,-0.57 -0.36,-1.19 -0.84,-1.87 -1.22,-3.34 -0.21,-0.83 -0.03,-0.48 -0.04,-0.85 0,-0.5 0.19,-0.74 0.24,-1.1 0.01,-0.09 0.07,-0.17 0.07,-0.25 0.01,-0.27 -0.33,-0.88 -0.5,-1.11 -0.24,-0.33 -0.83,-0.87 -0.99,-1.13 0.09,0 0.02,-0.03 0.12,0.04 0.06,0.04 0.06,0.06 0.09,0.1 0.29,0.32 0.59,0.6 0.87,0.94 0.24,0.29 0.6,0.74 0.67,1.1 0.01,0.09 0.04,0.11 0.06,0.22l-0.2 0.98c-0.05,0.3 -0.07,0.1 -0.06,0.34 0.01,0.1 0,0.13 -0.01,0.22l0 0.22c0.01,0.17 0.03,0.27 0.05,0.45 0.05,0.46 0.09,-0.06 0.19,0.6 0.02,0.11 0.03,0.12 0.05,0.22 0.02,0.07 -0.02,-0.03 0.02,0.1 0.04,0.15 0.2,0.55 0.22,0.79 0.02,0.17 -0.01,0.04 0.09,0.22l0.18 0.45c0.06,0.21 0,0.03 -0.03,0.11 0.12,0.2 0.25,0.66 0.33,0.9 0.07,0.24 0.26,0.7 0.16,0.95z"/>
   <path class="fil21" d="M24.63 9.79c-0.26,-0.23 -0.42,-0.74 -0.75,-0.98 0.03,-0.19 0.11,0.07 -0.01,-0.21 -0.01,0 -0.08,-0.11 -0.09,-0.12 -0.06,-0.09 -0.14,-0.18 -0.17,-0.27 0,-0.11 0.06,0.04 -0.05,-0.16l-0.6 -1.09c0,0 0.01,-0.02 0.01,-0.02 -0.23,-0.29 -0.06,-0.09 -0.13,-0.36l-0.04 -0.19c0,-0.01 0,-0.02 0,-0.02l0.01 -0.03c-0.24,-0.32 -0.12,-0.52 -0.21,-0.81 -0.08,-0.24 -0.07,0 -0.01,-0.32l0 -0.06c0.01,-0.07 0,-0.03 0.02,-0.09l0.13 -0.28c0.01,-0.03 0,-0.17 0,-0.2 -0.16,-0.65 -0.98,-0.91 -1.16,-1.05 0.24,-0.02 0.64,0.23 0.84,0.33 0.36,0.19 0.78,0.65 0.92,1.02 0.06,0.14 0.06,0.07 0.03,0.22 -0.02,0.16 -0.37,0.69 -0.24,1.26 0.03,0.15 0.04,0.26 0.09,0.44 0.3,0.92 0.76,1.72 1.26,2.56 0.29,0.49 0.29,0.39 0.15,0.43z"/>
   <path class="fil22" d="M31.48 9.43c-0.07,0.23 0.04,0.52 0,0.79 -0.03,0.18 -0.03,0.24 -0.03,0.41l-0.12 1.23c-0.01,0.14 -0.05,0.27 -0.07,0.41 -0.01,0.15 -0.03,0.26 -0.04,0.42l-0.04 0.04c-0.11,-0.11 -0.02,-0.24 0,-0.37 0.02,-0.12 0.03,-0.21 0.04,-0.34 0.03,-0.24 0.06,-0.51 0.06,-0.7 0.12,-0.6 -0.02,-1.6 -0.13,-2.21 -0.03,-0.13 -0.04,-0.25 -0.08,-0.37 -0.01,-0.04 -0.09,-0.19 -0.09,-0.2 -0.26,-0.36 -0.38,0.12 -0.46,0.24 -0.06,-0.18 0.02,-0.82 -0.14,-1.67l-0.22 -0.82c-0.05,-0.15 -0.03,-0.16 -0.08,-0.28l-0.18 -0.58c-0.23,-0.51 -0.02,-0.56 -0.32,-0.85 -0.04,-0.04 -0.1,-0.08 -0.14,-0.12 -0.02,-0.03 -0.03,-0.04 -0.05,-0.07 -0.04,-0.07 -0.03,-0.07 -0.04,-0.12 0.13,0.05 0.08,0.02 0.2,0.15 0.08,0.07 0.15,0.15 0.22,0.22 0.12,0.13 0.3,0.29 0.35,0.41l-0.23 -0.18c0.19,0.1 0.36,0.53 0.43,0.71 0.16,0.39 0.1,0.57 0.16,0.88l0.12 0.69c0.01,0.07 0.02,0.08 0.01,0.15 -0.02,0.37 0.05,0.16 0.05,0.35 0.18,0 -0.01,0.04 0.12,-0.02 0.12,-0.05 0.05,-0.25 0.29,0.23 0.09,0.18 0.13,0.5 0.19,0.67 0.13,0.37 0,0.87 0.22,0.9z"/>
   <path class="fil23" d="M26.02 14.59c0.04,0.25 -0.36,0.41 -0.5,0.45 -0.44,0.11 -1.01,-0.14 -1.41,-0.35 -0.12,-0.07 -0.19,-0.17 -0.31,-0.1 -0.16,-0.09 -0.66,-0.44 -0.81,-0.63 -0.11,-0.15 -0.4,-0.33 -0.5,-0.43 -0.09,-0.07 -0.17,-0.17 -0.25,-0.25 -0.13,-0.12 -0.15,-0.11 -0.25,-0.2l-1.46 -1.57c-0.12,-0.16 -0.28,-0.38 -0.41,-0.52 -0.71,-0.83 -1.48,-2.15 -1.83,-3.08l-0.21 -0.7c-0.01,-0.04 -0.07,-0.18 -0.01,-0.34l0.36 -0.5c0.15,-0.22 0.31,-0.32 0.5,-0.34 -0.18,0.15 -0.36,0.46 -0.42,0.63l-0.03 1.16c0.03,0.22 0.27,0.71 0.31,0.89 0.09,0.43 0.56,1 0.78,1.37 0.57,0.98 2.74,3.27 3.76,3.92 0.26,0.17 0.42,0.29 0.66,0.43 0.33,0.2 1.02,0.49 1.37,0.46 0.27,-0.02 0.41,-0.06 0.66,-0.3z"/>
   <path class="fil24" d="M25.86 11.63c-0.32,-0.52 -1.67,-3.25 -1.87,-3.51 0.03,-0.18 -0.13,-0.46 -0.19,-0.74 -0.03,-0.16 -0.07,-0.23 -0.05,-0.38 0,-0.01 0.01,-0.02 0.01,-0.03 0,-0.01 0,-0.02 0,-0.03 0.01,-0.01 0.01,-0.02 0.01,-0.03l0.1 -0.76c0.05,-0.23 0.3,-0.38 0.19,-0.66l-0.07 -0.19c-0.05,-0.16 0.02,-0.01 -0.07,-0.16 0.01,0 0.09,-0.04 0.08,-0.01 -0.18,-0.2 -0.35,-0.4 -0.54,-0.59 -0.17,-0.18 -0.39,-0.3 -0.55,-0.48 0.1,0 -0.03,-0.06 0.15,0.03 0,0 0.09,0.06 0.09,0.07 0.12,0.08 0.14,0.09 0.22,0.18 0.11,0.16 0.45,0.34 0.83,0.84 -0.03,0.06 0.06,0.06 -0.05,0.03 -0.05,-0.01 -0.01,-0.02 0,-0.03 0.82,0.96 0.12,1.07 0.07,1.89 -0.02,0.22 0.09,0.39 -0.07,0.44 0.06,0.11 0.05,0.19 0.2,0.54 0.04,0.07 0.15,0.71 0.58,1.54 0.07,0.14 0.93,1.8 0.94,1.96l-0.01 0.08z"/>
   <path class="fil25" d="M22.06 8.62l0.04 0.07c-0.1,0.02 0.02,0.07 -0.1,0.01 0.53,0.75 0.94,1.37 1.61,2.08 0.27,0.29 0.71,0.82 1.02,0.99 0.16,0.09 0.33,0.23 0.5,0.35 0.2,0.14 0.29,0.29 0.52,0.31l0.15 0.35c-0.1,0.01 -0.04,0.05 -0.24,-0.03 -0.22,-0.09 -0.02,-0.06 -0.25,-0.14l-0.22 -0.09c-0.4,-0.23 -0.84,-0.68 -1.19,-1.03l-1.34 -1.46c-0.28,-0.41 -0.11,-0.13 -0.22,-0.37 -0.11,-0.26 -0.16,-0.15 -0.34,-0.52 -0.07,-0.16 -0.24,-0.36 -0.38,-0.67 -0.03,-0.07 -0.12,-0.19 -0.15,-0.26 -0.07,-0.19 0.09,0 -0.09,-0.29 -0.06,-0.1 -0.09,-0.14 -0.12,-0.24l-0.27 -0.69c-0.04,-0.12 -0.02,-0.06 -0.03,-0.12l0.19 0.13c0.02,0.21 0.28,0.63 0.39,0.81 0.15,0.27 0.33,0.56 0.52,0.81z"/>
   <path class="fil26" d="M30.47 12.8l-0.01 0.07c-0.05,-0.06 -0.02,-0.07 -0.08,-0.01 -0.1,-0.11 0,-0.02 -0.04,0.01 -0.1,-0.03 -0.04,-0.05 -0.13,0.01 -0.21,-0.06 -0.13,0.02 -0.35,-0.09l0.05 -0.09c-0.13,-0.19 -0.28,-0.54 -0.4,-0.75l-0.42 -0.7c0.64,-0.63 0.32,-0.29 0.88,-0.94l0 0c-0.15,0.25 0.02,0.05 -0.07,0.33l0.35 0.36c-0.04,0.25 0.11,0.27 0.15,0.69 0.02,0.17 -0.04,0.14 0.14,0.39 -0.1,0.35 0.04,0.37 -0.07,0.72z"/>
   <path class="fil27" d="M26.6 6.94l-1.32 -1.37c0.18,-0.01 0.31,0.2 0.52,0.42 0.16,0.17 0.32,0.33 0.47,0.49 -0.04,-0.01 0.08,0.15 -0.14,-0.12 -0.1,-0.13 -0.09,-0.13 -0.23,-0.23 0.08,0.01 0.01,-0.05 0.16,0.05 0.02,0.01 0.1,0.1 0.12,0.12 0.1,-0.01 0.11,-0.02 0.21,-0.01 0,-0.06 0.04,-0.04 -0.1,-0.12 0.11,-0.11 0.06,-0.04 0.1,-0.15 0.34,0.07 0.25,-0.19 0.26,-0.26 0.02,-0.09 0.04,-0.03 0.08,-0.16 0.07,-0.29 0,-0.26 0,-0.44l0 -0.44c-0.06,-0.33 -0.09,0.06 -0.08,-0.45l-0.03 -0.16c-0.02,-0.41 0.01,-0.08 -0.12,-0.44 -0.05,-0.12 -0.11,-0.28 -0.28,-0.36 -0.25,-0.11 -0.16,0.07 -0.43,-0.07 -0.14,-0.08 -0.02,-0.01 -0.13,-0.06 -0.01,0 -0.02,-0.01 -0.03,-0.01 -0.49,-0.19 -0.82,0.02 -1,-0.14 0.1,-0.01 0.13,-0.01 0.25,-0.02 0.11,-0.02 0.14,0 0.25,-0.02 0.19,0.12 0.44,0.07 0.66,0.1 0.13,0.02 0.23,0.01 0.34,0.03 0.11,0.02 0.17,0.07 0.27,0 -0.11,0.03 0.11,-0.05 -0.13,0.07 0.41,0.28 0.99,0.2 0.81,0.9 -0.06,0.26 -0.11,0.64 -0.06,0.89l0.08 1.26c-0.02,0.37 -0.13,0.47 -0.11,0.55 -0.08,-0.02 -0.1,-0.03 -0.18,-0.1l-0.16 0.11c-0.26,-0.25 -0.04,-0.05 -0.18,-0.08l0.19 0.29c0.02,-0.06 0.07,-0.02 -0.06,-0.07z"/>
   <path class="fil28" d="M26.24 12.45l-0.38 -0.82 0.01 -0.08c-0.01,-0.16 -0.87,-1.82 -0.94,-1.96 -0.43,-0.83 -0.54,-1.47 -0.58,-1.54 -0.15,-0.35 -0.14,-0.43 -0.2,-0.54 0.16,-0.05 0.05,-0.22 0.07,-0.44 0.05,-0.82 0.75,-0.93 -0.07,-1.89 -0.01,0.01 -0.05,0.02 0,0.03 0.11,0.03 0.02,0.03 0.05,-0.03 -0.38,-0.5 -0.72,-0.68 -0.83,-0.84 0.34,0.1 0.71,0.57 0.96,0.85 1.16,1.36 0.42,1.19 0.3,2.39 -0.06,0.56 -0.1,0.24 -0.01,0.54l0.09 0.28c0.09,0.53 0.27,1.02 0.53,1.5l0.33 0.66c0.06,0.23 0.18,0.46 0.3,0.71l0.41 1.03c0,0 0.08,0.04 -0.04,0.15z"/>
   <path class="fil29" d="M23.61 8.21l-0.99 -1.57c0,-0.02 -0.03,-0.12 -0.04,-0.12l-0.18 -0.48c-0.13,-0.28 -0.12,-0.31 -0.13,-0.61l-0.01 -0.6c0.02,-0.14 0.08,-0.16 0.08,-0.32l-0.03 -0.18c-0.32,-0.6 -0.74,-0.64 -1.07,-0.77 -0.11,0.1 -0.02,0.05 -0.24,0.03 -0.33,-0.04 -0.14,0.12 -0.39,0 -0.1,0.09 -0.15,0.16 -0.26,0.19 -0.23,0.05 -0.6,0.31 -0.79,0.5 -0.17,0.22 -0.88,0.58 -1.33,1.25l-0.09 0.12c-0.01,0.01 -0.02,0.02 -0.03,0.02l-0.09 0.03c0.26,-0.6 0.83,-1.04 1.38,-1.46 0.58,-0.45 1,-0.88 1.58,-0.9 0.16,0.09 0.17,0.05 0.32,0.09l0.28 0.1c0.18,0.14 1,0.4 1.16,1.05 0,0.03 0.01,0.17 0,0.2l-0.13 0.28c-0.02,0.06 -0.01,0.02 -0.02,0.09l0 0.06c-0.06,0.32 -0.07,0.08 0.01,0.32 0.09,0.29 -0.03,0.49 0.21,0.81l-0.01 0.03c0,0 0,0.01 0,0.02l0.04 0.19c0.07,0.27 -0.1,0.07 0.13,0.36 0,0 -0.01,0.02 -0.01,0.02l0.6 1.09c0.11,0.2 0.05,0.05 0.05,0.16z"/>
   <path class="fil30" d="M31.28 11.32c-0.12,-0.2 -0.02,-0.23 -0.06,-0.69 -0.04,-0.45 -0.12,-1.66 -0.45,-1.96 -0.24,0.14 -0.19,0.16 -0.25,0.35 -0.01,0.02 -0.06,0.11 -0.06,0.11 -0.07,0.15 -0.01,-0.01 -0.03,0.07 -0.02,0.06 -0.01,0.07 -0.01,0.11l-0.13 0.24c-0.25,0.08 -0.01,0.04 0.01,-0.46 0,-0.06 0.05,-0.51 0.06,-0.53 0.12,-0.27 0.01,-1 -0.07,-1.32 -0.11,-0.44 -0.27,-0.86 -0.48,-1.28l-0.3 -0.63c-0.44,-0.73 -0.05,-0.29 -0.25,-0.64l-0.17 -0.32c-0.15,-0.22 -0.41,-0.43 -0.65,-0.55 -0.45,-0.24 -0.26,-0.14 -0.26,-0.24 0.28,0.09 0.93,0.45 1.17,0.69 0.01,0.05 0,0.05 0.04,0.12 0.02,0.03 0.03,0.04 0.05,0.07 0.04,0.04 0.1,0.08 0.14,0.12 0.3,0.29 0.09,0.34 0.32,0.85l0.18 0.58c0.05,0.12 0.03,0.13 0.08,0.28l0.22 0.82c0.16,0.85 0.08,1.49 0.14,1.67 0.08,-0.12 0.2,-0.6 0.46,-0.24 0,0.01 0.08,0.16 0.09,0.2 0.04,0.12 0.05,0.24 0.08,0.37 0.11,0.61 0.25,1.61 0.13,2.21z"/>
   <path class="fil31" d="M29.24 7.5c-0.02,0.08 -0.02,0.16 -0.01,0.25 0.03,0.18 0.03,-0.02 0.02,0.13 0,0.16 0.01,0.02 -0.04,0.16 -0.07,-0.09 -0.17,-0.67 -0.24,-0.96l-0.03 -0.19c0,-0.23 -0.18,-0.52 -0.33,-0.69 -0.07,0.12 -0.04,0.12 -0.16,0.16 0.09,0.32 -0.03,0.18 -0.02,0.47l0.18 0.94c0.04,0.19 0.15,0.3 0.17,0.51 0.01,0.15 0.06,0.33 0.1,0.48 0.06,0.18 0.02,0.28 0.07,0.47 0.04,0.17 0.13,0.31 0.16,0.48 0.03,0.19 0.01,0.32 0.09,0.49 0,0.21 0.04,0.17 -0.05,0.36 -0.16,-0.09 -0.03,-0.07 -0.14,-0.6l-0.43 -1.59c-0.1,-0.41 -0.44,-1.86 -0.45,-2.18l0.05 -0.63 0.13 -0.12c0.56,0.16 0.69,1.02 0.8,1.52 0.01,0.01 0.03,0.1 0.04,0.12 0.03,0.13 0.08,0.15 0,0.26l0.09 0.16z"/>
   <path class="fil32" d="M19.88 5.86c-0.14,-0.09 -0.27,-0.05 -0.33,-0.24 0.18,-0.14 -0.02,0.08 0.12,0.01 0.01,-0.01 0.02,0.01 0.03,0.01l0.13 -0.18 0.53 0.17c0.18,0.02 0.04,-0.01 0.07,-0.02 0.27,0.26 0.45,0.33 0.69,0.56 0.39,0.37 1.33,1.25 1.61,1.67 0.09,0.15 -0.03,0.08 0.19,0.31 -0.14,-0.05 -1.49,-1.13 -1.73,-1.35 -0.75,-0.67 -0.67,-0.45 -0.87,-0.59 -0.14,-0.1 -0.31,-0.26 -0.44,-0.35z"/>
   <path class="fil33" d="M29.21 8.04c0.02,0.23 -0.01,0.62 0.08,0.88l-0.02 0.13c0,0.13 0,0.07 0.03,0.18 -0.02,0.07 -0.01,0.1 -0.02,0.2 -0.01,0.07 -0.01,0.03 -0.01,0.09 0,0.12 -0.01,0.04 0.02,0.15 -0.07,0.11 -0.07,0.04 -0.02,0.19 -0.04,0.08 -0.01,-0.03 -0.03,0.07 -0.01,0.07 0,0.01 0,0.1 -0.01,0.07 -0.02,0.11 -0.04,0.17 -0.08,-0.17 -0.06,-0.3 -0.09,-0.49 -0.03,-0.17 -0.12,-0.31 -0.16,-0.48 -0.05,-0.19 -0.01,-0.29 -0.07,-0.47 -0.04,-0.15 -0.09,-0.33 -0.1,-0.48 -0.02,-0.21 -0.13,-0.32 -0.17,-0.51l-0.18 -0.94c-0.01,-0.29 0.11,-0.15 0.02,-0.47 0.12,-0.04 0.09,-0.04 0.16,-0.16 0.15,0.17 0.33,0.46 0.33,0.69l0.03 0.19c0.07,0.29 0.17,0.87 0.24,0.96z"/>
   <path class="fil34" d="M27.08 7.56c-0.11,-0.09 -0.23,-0.23 -0.27,-0.35l0.2 0.15c-0.08,-0.11 -0.1,-0.1 -0.15,-0.27 0.16,0.17 0.21,0.22 0.37,0.26 0.14,-0.17 0.11,-0.1 -0.01,-0.19 0.13,-0.12 0.1,-0.06 0.14,-0.19 0,-0.02 0.01,-0.06 0.01,-0.1l-0.12 -1.61c0,-0.07 0.01,-0.02 0.01,-0.09l-0.01 -0.35c-0.02,-0.59 -0.07,-0.53 0.22,-1.03 -0.26,-0.3 -0.28,-0.28 -0.56,-0.47 0.19,-0.03 0.2,0.02 0.36,0.09 0.37,0.17 0.71,0.23 1.04,0.68l-0.15 0.17c-0.1,0 -0.42,0 -0.5,0.06l-0.21 0.29c-0.01,0.05 0,0.15 0,0.18 -0.02,0.04 -0.12,0.08 -0.05,0.57 0.02,0.15 0.05,0.26 0.06,0.41l0.14 1.01c0,0.24 -0.05,-0.07 0,0.41l-0.08 0.48c-0.05,0.09 0.01,-0.02 -0.04,0.09l-0.4 -0.29c0.08,0.03 0.1,0.06 0.15,0.19l-0.15 -0.1z"/>
   <path class="fil35" d="M25.9 6.13l-0.46 -0.55c0.26,0.11 0.1,0.12 0.5,0.21 0.2,0.05 0.05,0.06 0.17,0.01 -0.04,-0.08 0.09,0.03 -0.03,-0.01 0,-0.01 -0.01,0 -0.09,-0.04 0.24,-0.15 0.22,-0.23 0.32,-0.46 0.05,-0.12 0.03,-0.03 0.05,-0.14 0.08,-0.31 0.02,-0.5 0.01,-0.72 -0.01,-0.36 -0.19,-0.63 -0.47,-0.89 -0.14,-0.09 -0.25,-0.16 -0.34,-0.22l-0.04 -0.1c0.13,0.01 0.14,-0.01 0.27,0.02 0.27,0.14 0.18,-0.04 0.43,0.07 0.17,0.08 0.23,0.24 0.28,0.36 0.13,0.36 0.1,0.03 0.12,0.44l0.03 0.16c-0.01,0.51 0.02,0.12 0.08,0.45l0 0.44c0,0.18 0.07,0.15 0,0.44 -0.04,0.13 -0.06,0.07 -0.08,0.16 -0.01,0.07 0.08,0.33 -0.26,0.26 -0.04,0.11 0.01,0.04 -0.1,0.15 0.14,0.08 0.1,0.06 0.1,0.12 -0.1,-0.01 -0.11,0 -0.21,0.01 -0.02,-0.02 -0.1,-0.11 -0.12,-0.12 -0.15,-0.1 -0.08,-0.04 -0.16,-0.05z"/>
   <path class="fil36" d="M24.81 5.15l-0.33 -0.28 -0.41 -0.3c-0.06,-0.04 -0.05,-0.01 0.02,-0.1l0.48 0.12c0.01,0 0.02,0.01 0.03,0.01l0.12 0.01c0.23,0.07 0.26,0.29 0.74,0.04 -0.01,0.06 -0.02,0.05 -0.04,0.1 -0.04,0.17 -0.01,0.05 -0.01,0.14 0.1,-0.05 0.03,-0.03 0.07,-0.02l0.31 -0.23c-0.02,-0.14 -0.06,-0.09 -0.05,-0.29l-0.03 -0.19c-0.16,-0.34 -0.05,-0.4 -0.52,-0.5 -0.08,-0.07 -0.07,-0.06 -0.09,-0.14 0.09,0 0.11,0 0.21,0.01 0.13,0 -0.01,-0.02 0.13,0.01 0.06,0.01 0.05,0.01 0.11,0.02 -0.3,-0.28 -0.29,-0.14 -0.47,-0.25 0.09,-0.01 0.14,-0.03 0.23,-0.02 0.06,0 0.19,0.03 0.25,0.03 0.09,0.06 0.2,0.13 0.34,0.22 -0.04,-0.08 0.01,-0.01 -0.12,0.06 0.07,0.07 0.07,0.1 0.07,0.1l0.02 0.06c0.04,0.15 0.2,0.48 0.19,0.6l-0.02 0.38c-0.02,0.31 -0.2,0.6 -0.54,0.61 -0.21,0.01 -0.39,-0.07 -0.57,-0.26l0.22 0.29c-0.34,-0.35 -0.22,-0.23 -0.34,-0.23z"/>
   <path class="fil37" d="M26.81 7.21c-0.08,-0.07 -0.11,-0.05 -0.19,-0.2l-0.02 -0.07c0.13,0.05 0.08,0.01 0.06,0.07l-0.19 -0.29c0.14,0.03 -0.08,-0.17 0.18,0.08l0.16 -0.11c0.08,0.07 0.1,0.08 0.18,0.1 -0.02,-0.08 0.09,-0.18 0.11,-0.55l-0.08 -1.26c-0.05,-0.25 0,-0.63 0.06,-0.89 0.18,-0.7 -0.4,-0.62 -0.81,-0.9 0.24,-0.12 0.02,-0.04 0.13,-0.07 0.25,0.16 0.33,0.08 0.51,0.2 0.28,0.19 0.3,0.17 0.56,0.47 -0.29,0.5 -0.24,0.44 -0.22,1.03l0.01 0.35c0,0.07 -0.01,0.02 -0.01,0.09l0.12 1.61c0,0.04 -0.01,0.08 -0.01,0.1 -0.04,0.13 -0.01,0.07 -0.14,0.19 0.12,0.09 0.15,0.02 0.01,0.19 -0.16,-0.04 -0.21,-0.09 -0.37,-0.26 0.05,0.17 0.07,0.16 0.15,0.27l-0.2 -0.15z"/>
   <path class="fil38" d="M29.43 15.17c0.24,0.28 0.8,0.95 1.24,0.68 0.07,-0.04 0.16,-0.15 0.22,-0.21l-0.16 -0.46c-0.02,-0.02 -0.27,-0.57 -0.6,-0.6 -0.13,-0.01 -0.49,0.02 -0.63,0.09 0.01,0.21 0.06,0.3 -0.07,0.5zm0.81 0.8c-0.16,-0.12 -0.37,-0.11 -0.6,-0.29 -0.26,-0.23 -0.41,-0.44 -0.51,-0.67 -0.15,-0.33 -0.23,-0.98 -0.02,-1.29l0.08 -0.03c-0.04,0.07 -0.04,0.04 -0.03,0.11l-0.05 0.3c0.01,0 0,0.01 0,0.01 0.37,0.22 0.09,0.25 0.65,0.2l0.19 -0.02c0.17,-0.01 0.09,0.01 0.26,-0.08 -0.02,0.1 -0.07,0 0.06,-0.07l0.04 0.07c0.2,0.09 0.31,0.41 0.36,0.52 0.01,0.02 0.05,0.08 0.06,0.1 0.13,0.2 0.05,0.09 0.11,0.27 0,0.01 0.02,0.05 0.02,0.06l0.14 0.33c0.07,0.17 0,0.25 -0.12,0.38l-0.14 0c-0.06,0 -0.09,0 -0.15,0l-0.25 -0.01c0,0 -0.08,-0.05 -0.1,0.11z"/>
   <path class="fil39" d="M26.09 12.4c-0.05,0.13 -0.05,0.08 0.04,0.3l0.16 0.53c0.04,0.16 0.07,0.14 -0.04,0.28l0.15 0.19 -0.07 0.21c-0.2,-0.07 -0.02,-0.06 -0.18,-0.05 -0.04,-0.1 -0.03,-0.1 -0.08,-0.21 0,-0.16 -0.03,-0.22 -0.1,-0.37l-0.17 -0.5 -0.15 -0.35 -0.18 -0.38 -0.52 -0.83c0.1,-0.01 0.06,-0.08 0.25,0.15 0.01,0.02 0.08,0.1 0.08,0.1 0.14,0.09 0.04,0.04 0.19,0.04 -0.26,-0.6 -0.47,-0.94 -0.81,-1.49 -0.16,-0.24 -0.13,-0.13 -0.03,-0.23 0.34,0.3 0.62,0.99 0.82,1.34 0.11,0.21 0.27,0.47 0.37,0.68 0.09,0.19 0.11,0.42 0.27,0.59z"/>
   <path class="fil40" d="M29.19 6.81c0,0.1 0.04,0.2 0.06,0.32 0.01,0.07 0.01,0.1 0.01,0.18l-0.02 0.19 -0.09 -0.16c0.08,-0.11 0.03,-0.13 0,-0.26 -0.01,-0.02 -0.03,-0.11 -0.04,-0.12 -0.11,-0.5 -0.24,-1.36 -0.8,-1.52l-0.13 0.12 -0.05 0.63c0.01,0.32 0.35,1.77 0.45,2.18l0.43 1.59c0.11,0.53 -0.02,0.51 0.14,0.6 0.04,0.19 0.04,0.05 -0.03,0.14l-0.31 -1.05c-0.07,-0.15 -0.18,-0.39 -0.23,-0.55 -0.06,-0.19 0,-0.32 -0.16,-0.53 0.03,-0.22 -0.07,-0.68 -0.14,-0.92 -0.07,-0.28 -0.17,-0.62 -0.21,-0.89 -0.02,-0.17 -0.06,-0.26 -0.09,-0.44 -0.07,-0.5 -0.19,-0.97 0.2,-1.31 0.95,0.58 0.75,1.2 1.01,1.8z"/>
   <path class="fil41" d="M31.48 9.43c-0.22,-0.03 -0.09,-0.53 -0.22,-0.9 -0.06,-0.17 -0.1,-0.49 -0.19,-0.67 -0.24,-0.48 -0.17,-0.28 -0.29,-0.23 -0.13,0.06 0.06,0.02 -0.12,0.02 0,-0.19 -0.07,0.02 -0.05,-0.35 0.01,-0.07 0,-0.08 -0.01,-0.15l-0.12 -0.69c-0.06,-0.31 0,-0.49 -0.16,-0.88 -0.07,-0.18 -0.24,-0.61 -0.43,-0.71l0.23 0.18c0.27,0.34 0.44,0.75 0.59,1.09 0.25,0.56 0.56,1.62 0.66,2.16 0.07,0.4 0.06,0.72 0.11,1.13z"/>
   <path class="fil42" d="M24.07 4.57l-0.16 -0.13 -0.16 -0.12c0.28,-0.18 0.13,-0.07 0.32,-0.06 0.1,0.01 0.05,-0.04 0.28,0.01 0.34,0.08 0.28,-0.11 0.57,0.03 0.12,-0.2 0.04,-0.07 0.22,-0.21l-0.04 -0.39 0.09 -0.04c0.47,0.1 0.36,0.16 0.52,0.5l0.03 0.19c-0.01,0.2 0.03,0.15 0.05,0.29l-0.31 0.23c-0.04,-0.01 0.03,-0.03 -0.07,0.02 0,-0.09 -0.03,0.03 0.01,-0.14 0.02,-0.05 0.03,-0.04 0.04,-0.1 -0.48,0.25 -0.51,0.03 -0.74,-0.04l-0.12 -0.01c-0.01,0 -0.02,-0.01 -0.03,-0.01l-0.48 -0.12c-0.07,0.09 -0.08,0.06 -0.02,0.1z"/>
   <path class="fil2" d="M31.76 15.56c-0.19,0.18 -0.19,0.19 -0.41,0.27l0.03 -0.09c0.09,-0.16 0.05,0.03 0.08,-0.16 0.07,-0.39 -0.58,-1.24 -0.72,-1.62 -0.06,-0.33 -0.03,-0.08 0,-0.25 0.02,-0.11 -0.03,-0.17 -0.06,-0.28 -0.06,-0.21 -0.02,-0.36 0.06,-0.57l0.01 -0.07c0.04,0.01 0.07,0.03 0.12,0.04l0.1 0.6c0.05,0.12 0.15,0.24 0.18,0.32 0.14,0.49 0.71,1.43 0.61,1.67l-0.27 0.28 0.27 -0.14z"/>
   <path class="fil43" d="M25.19 3.66l-0.09 0.04 -0.14 -0.02c-0.07,-0.01 -0.03,-0.01 -0.12,-0.02 -0.51,-0.1 -1.25,0.21 -1.4,0.2 -0.18,-0.01 -0.03,-0.08 -0.23,0.03l0.05 0.09c-0.14,-0.02 -0.36,-0.15 -0.49,-0.25l-0.28 -0.12c0.16,-0.05 0.6,-0.17 0.71,-0.25 0,0.02 0.01,0.03 0.02,0.04 0,0.01 0.01,0.02 0.01,0.03 0.01,0.01 0.05,0.02 0.06,0.02 0.07,0.02 0.17,-0.06 0.35,-0.07 0.13,-0.01 0.11,0.01 0.25,-0.03 0.39,-0.1 0.81,-0.05 1.19,-0.04 0.18,0.11 0.17,-0.03 0.47,0.25 -0.06,-0.01 -0.05,-0.01 -0.11,-0.02 -0.14,-0.03 0,-0.01 -0.13,-0.01 -0.1,-0.01 -0.12,-0.01 -0.21,-0.01 0.02,0.08 0.01,0.07 0.09,0.14z"/>
   <path class="fil44" d="M29.12 10.7c0.01,0.09 0.01,0 0.01,0.12l-0.01 0.06c0,0.06 -0.01,0.05 0,0.09l-0.04 0.11 -0.08 0.26c-0.1,-0.21 -0.14,-0.45 -0.23,-0.69 -0.08,-0.23 -0.16,-0.43 -0.26,-0.67 -0.09,-0.2 -0.69,-1.3 -0.7,-1.36l0.13 0.09 -0.09 -0.16c0.12,0.12 0.16,0.14 0.28,0.2 0.08,0.14 0.03,0.04 0.18,0.17 0.02,-0.05 0.08,-0.14 0.1,-0.2 0,-0.01 0.01,-0.12 0.01,-0.15 0.16,0.21 0.1,0.34 0.16,0.53 0.05,0.16 0.16,0.4 0.23,0.55l0.31 1.05z"/>
   <path class="fil45" d="M25.9 6.13c0.14,0.1 0.13,0.1 0.23,0.23 0.22,0.27 0.1,0.11 0.14,0.12 -0.15,-0.16 -0.31,-0.32 -0.47,-0.49 -0.21,-0.22 -0.34,-0.43 -0.52,-0.42l-0.47 -0.42c0.12,0 0,-0.12 0.34,0.23l-0.22 -0.29c0.18,0.19 0.36,0.27 0.57,0.26 0.34,-0.01 0.52,-0.3 0.54,-0.61l0.02 -0.38c0.01,-0.12 -0.15,-0.45 -0.19,-0.6l-0.02 -0.06c0,0 0,-0.03 -0.07,-0.1 0.13,-0.07 0.08,-0.14 0.12,-0.06 0.28,0.26 0.46,0.53 0.47,0.89 0.01,0.22 0.07,0.41 -0.01,0.72 -0.02,0.11 0,0.02 -0.05,0.14 -0.1,0.23 -0.08,0.31 -0.32,0.46 0.08,0.04 0.09,0.03 0.09,0.04 0.12,0.04 -0.01,-0.07 0.03,0.01 -0.12,0.05 0.03,0.04 -0.17,-0.01 -0.4,-0.09 -0.24,-0.1 -0.5,-0.21l0.46 0.55z"/>
   <path class="fil46" d="M23.91 4.44l-0.65 -0.46 -0.05 -0.09c0.2,-0.11 0.05,-0.04 0.23,-0.03 0.15,0.01 0.89,-0.3 1.4,-0.2 0.09,0.01 0.05,0.01 0.12,0.02l0.14 0.02 0.04 0.39c-0.18,0.14 -0.1,0.01 -0.22,0.21 -0.29,-0.14 -0.23,0.05 -0.57,-0.03 -0.23,-0.05 -0.18,0 -0.28,-0.01 -0.19,-0.01 -0.04,-0.12 -0.32,0.06l0.16 0.12z"/>
   <path class="fil47" d="M26.43 15.37c-0.13,0.05 -0.26,0.1 -0.41,0.11 -0.08,0 -0.17,0.02 -0.22,0.01 -0.68,-0.01 -1.41,-0.43 -1.98,-0.77l-0.88 -0.65 0.05 -0.11c0.15,0.19 0.65,0.54 0.81,0.63 0.19,0.17 0.96,0.61 1.18,0.58 0.01,0.01 0.04,0.01 0.04,0.02 -0.02,0.07 -0.01,0.01 0.13,0.06 0.25,0.09 0.61,0.08 0.71,0.11 0.49,-0.3 0.72,-0.59 0.73,-1.12 0,-0.38 -0.09,-0.61 -0.12,-0.86 -0.02,-0.14 -0.05,-0.14 -0.08,-0.28l-0.11 -0.34c-0.14,-0.35 -0.08,-0.23 -0.06,-0.34 0.16,0.19 0.29,0.57 0.35,0.78 0.07,0.31 0.11,0.45 0.15,0.73 0.15,1.16 -0.4,1.41 -0.28,1.39 0.01,0 -0.01,0.03 -0.01,0.05z"/>
   <path class="fil48" d="M25.65 12.43c-0.23,-0.02 -0.32,-0.17 -0.52,-0.31 -0.17,-0.12 -0.34,-0.26 -0.5,-0.35 -0.31,-0.17 -0.75,-0.7 -1.02,-0.99 -0.67,-0.71 -1.08,-1.33 -1.61,-2.08 0.12,0.06 0,0.01 0.1,-0.01 0.85,1.17 1.76,2.22 2.91,3.1l0.34 0.26c0.13,0.05 -0.01,0.02 0.12,0l0.18 0.38z"/>
   <path class="fil24" d="M30.62 15.66c0.02,-0.12 0,-0.34 -0.09,-0.46 -0.18,-0.25 -0.24,-0.22 -0.43,-0.25 -0.17,0.15 -0.25,0.23 -0.19,0.42 0.05,0.17 0.35,0.57 0.71,0.29zm-1.19 -0.49c0.13,-0.2 0.08,-0.29 0.07,-0.5 0.14,-0.07 0.5,-0.1 0.63,-0.09 0.33,0.03 0.58,0.58 0.6,0.6l0.16 0.46c-0.06,0.06 -0.15,0.17 -0.22,0.21 -0.44,0.27 -1,-0.4 -1.24,-0.68z"/>
   <path class="fil49" d="M30.32 8.14c-0.01,0.07 -0.01,0.14 0,0.2 0.01,0.17 -0.01,0.08 0.04,0.22 -0.01,0.02 -0.06,0.47 -0.06,0.53 -0.02,0.5 -0.26,0.54 -0.01,0.46l0.05 0.05 -0.18 0.33 -0.12 0.2c-0.2,0.11 0.02,0.09 -0.2,0.05 0.13,-0.18 0.29,-0.7 0.31,-0.84 0,0 0.01,-0.19 0.01,-0.23 0.22,-0.44 -0.05,-1.59 -0.32,-2.07 -0.18,-0.33 -0.16,-0.22 -0.2,-0.22 -0.21,-0.01 -0.17,0.22 -0.18,0.5 0,0.26 -0.04,0.37 0.02,0.55 -0.02,0.2 -0.03,0.44 -0.04,0.68 -0.01,0.14 -0.03,0.21 -0.04,0.35 -0.02,0.17 0.04,0.2 -0.1,0.33 -0.03,-0.11 -0.03,-0.05 -0.03,-0.18l0.02 -0.13c0.08,-0.14 0.05,-0.04 0.08,-0.38 0,-0.12 0.03,-0.2 0.03,-0.31 -0.02,-0.47 -0.18,-1.67 0.09,-1.97 0.72,0.72 0.64,1.44 0.83,1.88z"/>
   <path class="fil50" d="M32.27 14.81c-0.09,0.09 -0.04,0.08 -0.15,-0.03 0.09,-0.2 -0.11,-0.25 -0.31,-0.77 -0.05,-0.11 -0.12,-0.18 -0.16,-0.28l-0.16 -0.39c-0.04,-0.14 0.04,0.02 -0.02,-0.15 -0.07,-0.2 -0.08,-0.05 -0.16,-0.2l-0.08 -0.16c0,0 -0.02,0 -0.03,0 0,0 -0.02,0 -0.03,0.01l0.1 -0.1 0.25 0.11c0.51,0.3 0.78,0.78 0.81,1.33 0.02,0.23 -0.02,0.38 -0.06,0.63z"/>
   <path class="fil51" d="M30.16 9.11c0,0.04 -0.01,0.23 -0.01,0.23 -0.02,0.14 -0.18,0.66 -0.31,0.84 0.22,0.04 0,0.06 0.2,-0.05l-0.07 0.18c-0.56,0.65 -0.24,0.31 -0.88,0.94l0.42 0.7c0.12,0.21 0.27,0.56 0.4,0.75l-0.05 0.09c-0.27,-0.5 -0.32,-0.65 -0.63,-1.12 -0.06,-0.1 -0.14,-0.28 -0.24,-0.32l0.01 -0.01 0.08 -0.26c0.2,0.12 0.77,-0.83 0.85,-1.42l0.08 -0.51c0.19,-0.22 0.06,0.12 0.04,-0.4 -0.01,-0.31 -0.09,-0.71 -0.31,-0.95 -0.17,0.18 -0.18,0.38 -0.21,0.56 -0.06,0.31 0.07,0.28 -0.11,0.53l0.05 0.13 -0.18 0.65c-0.03,-0.11 -0.02,-0.03 -0.02,-0.15 0,-0.06 0,-0.02 0.01,-0.09 0.01,-0.1 0,-0.13 0.02,-0.2 0.14,-0.13 0.08,-0.16 0.1,-0.33 0.01,-0.14 0.03,-0.21 0.04,-0.35 0.01,-0.24 0.02,-0.48 0.04,-0.68 0.13,-0.25 -0.05,-0.22 0.21,-0.5 0.6,0.62 0.35,1.41 0.47,1.74z"/>
   <path class="fil52" d="M30.32 8.14c-0.19,-0.44 -0.11,-1.16 -0.83,-1.88 -0.27,0.3 -0.11,1.5 -0.09,1.97 0,0.11 -0.03,0.19 -0.03,0.31 -0.03,0.34 0,0.24 -0.08,0.38 -0.09,-0.26 -0.06,-0.65 -0.08,-0.88 0.05,-0.14 0.04,0 0.04,-0.16 0.01,-0.15 0.01,0.05 -0.02,-0.13 -0.01,-0.09 -0.01,-0.17 0.01,-0.25l0.02 -0.19c0,-0.08 0,-0.11 -0.01,-0.18 -0.02,-0.12 -0.06,-0.22 -0.06,-0.32 0.03,-0.11 0.02,-0.03 0.03,-0.12 0,-0.02 0,-0.06 0,-0.07 -0.01,-0.17 -0.09,-0.47 -0.07,-0.7 0.02,-0.15 0.04,-0.17 0.13,-0.29 0.5,0.51 0.6,0.74 0.8,1.29 0.06,0.18 0.36,1.07 0.24,1.22z"/>
   <path class="fil53" d="M30.75 12.79l-0.01 0.07 -0.06 -0.07c-0.05,-0.16 -0.02,-0.49 -0.04,-0.69 -0.03,-0.36 0,-0.64 -0.11,-1.07 -0.05,-0.19 -0.16,-0.29 -0.19,-0.51 -0.01,-0.19 -0.01,-0.34 -0.14,-0.56 0.04,-0.1 0.04,-0.02 -0.04,-0.03l0.18 -0.33c0.04,-0.06 0,-0.03 0.07,-0.06 0.15,0.16 0.16,0.23 0.18,0.38l0.18 1.02c0.01,0.08 0,0.13 0.01,0.22 0.07,0.39 0.13,1.3 -0.03,1.63z"/>
   <path class="fil54" d="M31.04 12.32l-0.07 0.44c-0.06,0.06 -0.02,0.04 -0.1,0.07 -0.05,-0.01 -0.08,-0.03 -0.12,-0.04 0.16,-0.33 0.1,-1.24 0.03,-1.63 -0.01,-0.09 0,-0.14 -0.01,-0.22l-0.18 -1.02c-0.02,-0.15 -0.03,-0.22 -0.18,-0.38 -0.07,0.03 -0.03,0 -0.07,0.06l-0.05 -0.05 0.13 -0.24 0.21 -0.09c0.16,0.18 0.09,0.22 0.14,0.39 0.1,0.45 0.16,0.59 0.21,1.14 0.04,0.44 -0.01,1.41 0.06,1.57z"/>
   <path class="fil55" d="M32.27 14.81c-0.06,0.09 -0.06,0.14 -0.12,0.25 -0.04,0.09 -0.08,0.18 -0.17,0.28 -0.14,0.14 0.03,0.02 -0.15,-0.03 0.28,-0.29 0.01,-0.47 -0.36,-1.23 -0.07,-0.15 -0.2,-0.49 -0.25,-0.64 -0.12,-0.34 -0.06,-0.4 -0.22,-0.62l0.18 -0.09 0.04 -0.04 0.05 0.05 -0.1 0.1c0.01,-0.01 0.03,-0.01 0.03,-0.01 0.01,0 0.03,0 0.03,0l0.08 0.16c0.08,0.15 0.09,0 0.16,0.2 0.06,0.17 -0.02,0.01 0.02,0.15l0.16 0.39c0.04,0.1 0.11,0.17 0.16,0.28 0.2,0.52 0.4,0.57 0.31,0.77 0.11,0.11 0.06,0.12 0.15,0.03z"/>
   <path class="fil56" d="M30.01 9.15l-0.08 0.51c-0.08,0.59 -0.65,1.54 -0.85,1.42l0.04 -0.11c0.07,0.07 0.46,-0.59 0.55,-0.91 0.07,-0.29 0.14,-0.67 0.02,-0.92 -0.2,0.07 -0.24,0.49 -0.29,0.6l-0.13 0.12c-0.05,-0.15 -0.05,-0.08 0.02,-0.19l0.18 -0.65c0.11,-0.28 0.04,-0.52 0.27,-0.76 0.3,0.31 0.12,0.58 0.27,0.89z"/>
   <path class="fil21" d="M26.39 13.1c0.03,0.14 0.06,0.14 0.08,0.28 0.03,0.25 0.12,0.48 0.12,0.86 -0.01,0.53 -0.24,0.82 -0.73,1.12 -0.1,-0.03 -0.46,-0.02 -0.71,-0.11 -0.14,-0.05 -0.15,0.01 -0.13,-0.06 0,-0.01 -0.03,-0.01 -0.04,-0.02 0.29,0.05 0.67,0.18 0.95,-0.06 0.37,-0.32 0.27,-0.4 0.28,-0.72 0.01,-0.1 0.05,-0.12 -0.04,-0.2 -0.02,-0.07 -0.02,-0.08 -0.05,-0.16l-0.01 -0.14 0.04 -0.03c0.16,-0.01 -0.02,-0.02 0.18,0.05l0.07 -0.21 -0.15 -0.19c0.11,-0.14 0.08,-0.12 0.04,-0.28l-0.16 -0.53c-0.09,-0.22 -0.09,-0.17 -0.04,-0.3 0.14,0.27 0.14,0.44 0.3,0.7z"/>
   <path class="fil57" d="M30.68 12.79c-0.06,0.05 -0.01,0.04 -0.09,0.06 -0.05,-0.02 -0.07,-0.04 -0.12,-0.05 0.11,-0.35 -0.03,-0.37 0.07,-0.72 -0.18,-0.25 -0.12,-0.22 -0.14,-0.39 -0.04,-0.42 -0.19,-0.44 -0.15,-0.69l-0.35 -0.36c0.09,-0.28 -0.08,-0.08 0.07,-0.33l0 0 0.07 -0.18 0.12 -0.2c0.08,0.01 0.08,-0.07 0.04,0.03 0.13,0.22 0.13,0.37 0.14,0.56 0.03,0.22 0.14,0.32 0.19,0.51 0.11,0.43 0.08,0.71 0.11,1.07 0.02,0.2 -0.01,0.53 0.04,0.69z"/>
   <path class="fil58" d="M31.98 15.34l-0.22 0.22 -0.27 0.14 0.27 -0.28c0.1,-0.24 -0.47,-1.18 -0.61,-1.67 -0.03,-0.08 -0.13,-0.2 -0.18,-0.32l-0.1 -0.6c0.08,-0.03 0.04,-0.01 0.1,-0.07l0.03 0.06c0.16,0.22 0.1,0.28 0.22,0.62 0.05,0.15 0.18,0.49 0.25,0.64 0.37,0.76 0.64,0.94 0.36,1.23 0.18,0.05 0.01,0.17 0.15,0.03z"/>
   <path class="fil59" d="M31.28 11.32c0,0.19 -0.03,0.46 -0.06,0.7 -0.01,0.13 -0.02,0.22 -0.04,0.34 -0.02,0.13 -0.11,0.26 0,0.37l-0.18 0.09 -0.03 -0.06 0.07 -0.44c0.06,-0.12 0.02,-0.02 0.05,-0.12l0.02 -0.31c0.01,-0.32 0.06,-0.42 0.03,-0.62l-0.04 -0.68c-0.02,-0.33 -0.13,-1.44 -0.39,-1.67l-0.19 0.1c0.06,-0.19 0.01,-0.21 0.25,-0.35 0.33,0.3 0.41,1.51 0.45,1.96 0.04,0.46 -0.06,0.49 0.06,0.69z"/>
   <path class="fil60" d="M31.03 15.96c-0.11,0.03 -0.24,0.04 -0.35,0.04 -0.16,0 -0.28,-0.03 -0.44,-0.03 0.02,-0.16 0.1,-0.11 0.1,-0.11l0.25 0.01c0.06,0 0.09,0 0.15,0l0.14 0c0.12,-0.13 0.19,-0.21 0.12,-0.38l-0.14 -0.33c0,-0.01 -0.02,-0.05 -0.02,-0.06 -0.06,-0.18 0.02,-0.07 -0.11,-0.27 -0.01,-0.02 -0.05,-0.08 -0.06,-0.1 -0.05,-0.11 -0.16,-0.43 -0.36,-0.52 -0.06,-0.1 -0.04,-0.06 -0.09,-0.17 0.18,-0.13 0.06,-0.06 0.15,-0.06 0.05,-0.09 0.04,-0.06 0.03,-0.14 0.13,0.1 0.09,0.04 0.22,0.12l0.02 0.13c0.02,0.08 0.02,0.07 0.06,0.13 0.04,0.11 0.08,0.16 0.13,0.26 0.06,0.15 0.11,0.3 0.16,0.46 0.11,0.42 0.35,0.48 0.09,0.89l-0.05 0.13z"/>
   <path class="fil61" d="M31.04 12.32c-0.07,-0.16 -0.02,-1.13 -0.06,-1.57 -0.05,-0.55 -0.11,-0.69 -0.21,-1.14 -0.05,-0.17 0.02,-0.21 -0.14,-0.39l-0.21 0.09c0,-0.04 -0.01,-0.05 0.01,-0.11 0.02,-0.08 -0.04,0.08 0.03,-0.07 0,0 0.05,-0.09 0.06,-0.11l0.19 -0.1c0.26,0.23 0.37,1.34 0.39,1.67l0.04 0.68c0.03,0.2 -0.02,0.3 -0.03,0.62l-0.02 0.31c-0.03,0.1 0.01,0 -0.05,0.12z"/>
   <path class="fil62" d="M29.12 10.97c-0.01,-0.04 0,-0.03 0,-0.09l0.01 -0.06c0,-0.12 0,-0.03 -0.01,-0.12 0.07,-0.09 0.07,0.05 0.03,-0.14 0.09,-0.19 0.05,-0.15 0.05,-0.36 0.02,-0.06 0.03,-0.1 0.04,-0.17 0,-0.09 -0.01,-0.03 0,-0.1 0.02,-0.1 -0.01,0.01 0.03,-0.07l0.13 -0.12c0.05,-0.11 0.09,-0.53 0.29,-0.6 0.12,0.25 0.05,0.63 -0.02,0.92 -0.09,0.32 -0.48,0.98 -0.55,0.91z"/>
   <path class="fil63" d="M22.06 8.62c-0.19,-0.25 -0.37,-0.54 -0.52,-0.81 -0.11,-0.18 -0.37,-0.6 -0.39,-0.81l0.13 0.07c0.12,0.17 0.32,0.3 0.49,0.44 0.04,0.19 0.26,0.34 0.4,0.47l-0.17 0.12c0.17,0.2 0.07,0.07 0.14,0.28l0.02 0.1c0.03,0.07 -0.02,0 0.08,0.15 -0.09,0 -0.09,0.01 -0.18,-0.01z"/>
   <path class="fil27" d="M30.16 9.11c-0.12,-0.33 0.13,-1.12 -0.47,-1.74 -0.26,0.28 -0.08,0.25 -0.21,0.5 -0.06,-0.18 -0.02,-0.29 -0.02,-0.55 0.01,-0.28 -0.03,-0.51 0.18,-0.5 0.04,0 0.02,-0.11 0.2,0.22 0.27,0.48 0.54,1.63 0.32,2.07z"/>
   <path class="fil39" d="M24.98 15.17c-0.22,0.03 -0.99,-0.41 -1.18,-0.58 0.12,-0.07 0.19,0.03 0.31,0.1 0.4,0.21 0.97,0.46 1.41,0.35 0.14,-0.04 0.54,-0.2 0.5,-0.45 0.14,-0.15 0.05,-0.09 0.05,-0.15l0.05 -0.03 -0.02 -0.12 0.07 -0.1c0.09,0.08 0.05,0.1 0.04,0.2 -0.01,0.32 0.09,0.4 -0.28,0.72 -0.28,0.24 -0.66,0.11 -0.95,0.06z"/>
   <path class="fil64" d="M30.74 13.96c-0.08,0.07 -0.04,0.07 -0.12,0 -0.13,-0.08 -0.09,-0.02 -0.22,-0.12 0.01,0.08 0.02,0.05 -0.03,0.14 -0.09,0 0.03,-0.07 -0.15,0.06 0,-0.11 -0.01,-0.11 -0.06,-0.22l-0.05 -0.06c0.13,-0.15 0.12,-0.14 0.14,-0.38 0.02,-0.27 0.14,-0.29 0.34,-0.53 0.08,-0.02 0.03,-0.01 0.09,-0.06l0.06 0.07c-0.08,0.21 -0.12,0.36 -0.06,0.57 0.03,0.11 0.08,0.17 0.06,0.28 -0.03,0.17 -0.06,-0.08 0,0.25z"/>
   <path class="fil65" d="M31.35 15.83c-0.1,0.07 -0.19,0.08 -0.32,0.13l0.05 -0.13c0.26,-0.41 0.02,-0.47 -0.09,-0.89 -0.05,-0.16 -0.1,-0.31 -0.16,-0.46 -0.05,-0.1 -0.09,-0.15 -0.13,-0.26 -0.04,-0.06 -0.04,-0.05 -0.06,-0.13l-0.02 -0.13c0.08,0.07 0.04,0.07 0.12,0 0.14,0.38 0.79,1.23 0.72,1.62 -0.03,0.19 0.01,0 -0.08,0.16l-0.03 0.09z"/>
   <path class="fil66" d="M30.16 13.82c-0.08,0.1 -0.07,0.12 -0.2,0.15l-0.29 0.04c-0.01,0 -0.05,0 -0.06,0 -0.17,0 -0.2,0.03 -0.45,-0.21 -0.01,-0.07 -0.01,-0.04 0.03,-0.11l-0.08 0.03c0,-0.01 0.01,-0.04 0,-0.04 -0.01,0 0,-0.02 0.01,-0.03 0,-0.02 0.02,-0.08 0.02,-0.09l0.1 -0.04c0.02,0.17 -0.08,0.04 0.18,0.29 0.53,-0.16 0.57,-0.53 1.04,-0.94l0.01 -0.07c0.05,0.01 0.07,0.03 0.12,0.05 -0.2,0.24 -0.32,0.26 -0.34,0.53 -0.02,0.24 -0.01,0.23 -0.14,0.38l0.05 0.06z"/>
   <path class="fil67" d="M25.56 3.32c-0.06,0 -0.19,-0.03 -0.25,-0.03 -0.09,-0.01 -0.14,0.01 -0.23,0.02 -0.38,-0.01 -0.8,-0.06 -1.19,0.04 -0.14,0.04 -0.12,0.02 -0.25,0.03 -0.18,0.01 -0.28,0.09 -0.35,0.07 -0.01,0 -0.05,-0.01 -0.06,-0.02 0,-0.01 -0.01,-0.02 -0.01,-0.03 -0.01,-0.01 -0.02,-0.02 -0.02,-0.04 0.17,-0.05 0.22,-0.04 0.38,-0.09 0.14,-0.05 0.22,-0.08 0.35,-0.1 0.14,-0.03 0.2,-0.04 0.35,-0.08 0.14,-0.03 0.23,-0.03 0.35,-0.06 0.18,0.16 0.51,-0.05 1,0.14 0.01,0 0.02,0.01 0.03,0.01 0.11,0.05 -0.01,-0.02 0.13,0.06 -0.13,-0.03 -0.14,-0.01 -0.27,-0.02l0.04 0.1z"/>
   <path class="fil47" d="M30.62 15.66c-0.36,0.28 -0.66,-0.12 -0.71,-0.29 -0.06,-0.19 0.02,-0.27 0.19,-0.42 0.19,0.03 0.25,0 0.43,0.25 0.09,0.12 0.11,0.34 0.09,0.46z"/>
   <path class="fil68" d="M30.22 14.04c0.05,0.11 0.03,0.07 0.09,0.17l-0.04 -0.07c-0.13,0.07 -0.08,0.17 -0.06,0.07 -0.17,0.09 -0.09,0.07 -0.26,0.08l-0.19 0.02c-0.56,0.05 -0.28,0.02 -0.65,-0.2 0,0 0.01,-0.01 0,-0.01l0.05 -0.3c0.25,0.24 0.28,0.21 0.45,0.21 0.01,0 0.05,0 0.06,0l0.29 -0.04c0.13,-0.03 0.12,-0.05 0.2,-0.15 0.05,0.11 0.06,0.11 0.06,0.22z"/>
   <path class="fil69" d="M29.14 13.56c0.13,-0.13 0.14,-0.25 0.29,-0.4l0.08 0.04 -0.12 0.15c0.18,0.06 0.27,0.09 0.44,-0.05 0.12,-0.08 0.41,-0.33 0.51,-0.43 0.04,-0.03 -0.06,-0.12 0.04,-0.01 0.06,-0.06 0.03,-0.05 0.08,0.01 -0.47,0.41 -0.51,0.78 -1.04,0.94 -0.26,-0.25 -0.16,-0.12 -0.18,-0.29l-0.1 0.04z"/>
   <path class="fil70" d="M30.01 9.15c-0.15,-0.31 0.03,-0.58 -0.27,-0.89 -0.23,0.24 -0.16,0.48 -0.27,0.76l-0.05 -0.13c0.18,-0.25 0.05,-0.22 0.11,-0.53 0.03,-0.18 0.04,-0.38 0.21,-0.56 0.22,0.24 0.3,0.64 0.31,0.95 0.02,0.52 0.15,0.18 -0.04,0.4z"/>
   <path class="fil71" d="M29.43 13.16l0.18 -0.18c0.14,-0.01 -0.01,-0.05 0.08,0.03 0.07,0.05 -0.06,0.09 0.03,0.03 0.12,0.02 0.34,-0.06 0.49,-0.16 0.09,-0.06 0.03,-0.04 0.13,-0.01 -0.1,0.1 -0.39,0.35 -0.51,0.43 -0.17,0.14 -0.26,0.11 -0.44,0.05l0.12 -0.15 -0.08 -0.04z"/>
   <path class="fil72" d="M29.61 12.98c0.13,-0.1 0.11,-0.03 0.25,-0.19 0.22,0.11 0.14,0.03 0.35,0.09 -0.15,0.1 -0.37,0.18 -0.49,0.16 -0.09,0.06 0.04,0.02 -0.03,-0.03 -0.09,-0.08 0.06,-0.04 -0.08,-0.03z"/>
  </g>
  <g>
   <g style="clip-path:url(#id0)">
    <polygon class="fil73" points="-1.64,15.26 -0.2,14.05 14.94,32.1 13.51,33.3 "/>
    <polygon id="_1" class="fil73" points="-0.23,14.08 -0.14,14 15,32.05 14.91,32.12 "/>
    <polygon id="_2" class="fil73" points="-0.17,14.03 -0.08,13.95 15.06,32 14.97,32.07 "/>
    <polygon id="_3" class="fil73" points="-0.11,13.98 -0.02,13.9 15.12,31.95 15.03,32.02 "/>
    <polygon id="_4" class="fil73" points="-0.05,13.93 0.04,13.85 15.18,31.89 15.09,31.97 "/>
    <polygon id="_5" class="fil73" points="0.01,13.88 0.1,13.8 15.24,31.84 15.15,31.92 "/>
    <polygon id="_6" class="fil73" points="0.07,13.83 0.16,13.75 15.3,31.79 15.21,31.87 "/>
    <polygon id="_7" class="fil73" points="0.13,13.78 0.22,13.7 15.36,31.74 15.27,31.82 "/>
    <polygon id="_8" class="fil73" points="0.19,13.73 0.28,13.65 15.42,31.69 15.33,31.77 "/>
    <polygon id="_9" class="fil73" points="0.25,13.67 0.34,13.6 15.48,31.64 15.39,31.72 "/>
    <polygon id="_10" class="fil73" points="0.31,13.62 0.4,13.55 15.54,31.59 15.45,31.67 "/>
    <polygon id="_11" class="fil73" points="0.37,13.57 0.46,13.5 15.6,31.54 15.51,31.62 "/>
    <polygon id="_12" class="fil73" points="0.43,13.52 0.52,13.45 15.66,31.49 15.57,31.57 "/>
    <polygon id="_13" class="fil73" points="0.49,13.47 0.58,13.4 15.72,31.44 15.63,31.52 "/>
    <polygon id="_14" class="fil73" points="0.55,13.42 0.64,13.35 15.78,31.39 15.69,31.47 "/>
    <polygon id="_15" class="fil73" points="0.61,13.37 0.7,13.3 15.84,31.34 15.75,31.42 "/>
    <polygon id="_16" class="fil73" points="0.67,13.32 0.76,13.25 15.9,31.29 15.81,31.37 "/>
    <polygon id="_17" class="fil73" points="0.73,13.27 0.82,13.2 15.96,31.24 15.87,31.32 "/>
    <polygon id="_18" class="fil73" points="0.79,13.22 0.88,13.15 16.02,31.19 15.93,31.27 "/>
    <polygon id="_19" class="fil73" points="0.85,13.17 0.94,13.1 16.08,31.14 15.99,31.22 "/>
    <polygon id="_20" class="fil73" points="0.91,13.12 1,13.04 16.14,31.09 16.05,31.16 "/>
    <polygon id="_21" class="fil73" points="0.97,13.07 1.06,12.99 16.2,31.04 16.11,31.11 "/>
    <polygon id="_22" class="fil73" points="1.03,13.02 1.12,12.94 16.26,30.99 16.17,31.06 "/>
    <polygon id="_23" class="fil73" points="1.09,12.97 1.18,12.89 16.32,30.94 16.23,31.01 "/>
    <polygon id="_24" class="fil73" points="1.15,12.92 1.24,12.84 16.38,30.89 16.29,30.96 "/>
    <polygon id="_25" class="fil73" points="1.21,12.87 1.3,12.79 16.44,30.84 16.35,30.91 "/>
    <polygon id="_26" class="fil73" points="1.27,12.82 1.36,12.74 16.5,30.79 16.41,30.86 "/>
    <polygon id="_27" class="fil73" points="1.33,12.77 1.42,12.69 16.56,30.74 16.47,30.81 "/>
    <polygon id="_28" class="fil73" points="1.39,12.72 1.48,12.64 16.62,30.69 16.53,30.76 "/>
    <polygon id="_29" class="fil73" points="1.45,12.67 1.54,12.59 16.68,30.64 16.59,30.71 "/>
    <polygon id="_30" class="fil73" points="1.51,12.62 1.6,12.54 16.74,30.58 16.65,30.66 "/>
    <polygon id="_31" class="fil73" points="1.57,12.57 1.66,12.49 16.8,30.53 16.71,30.61 "/>
    <polygon id="_32" class="fil73" points="1.63,12.52 1.72,12.44 16.86,30.48 16.77,30.56 "/>
    <polygon id="_33" class="fil73" points="1.69,12.47 1.78,12.39 16.92,30.43 16.83,30.51 "/>
    <polygon id="_34" class="fil73" points="1.75,12.42 1.84,12.34 16.98,30.38 16.89,30.46 "/>
    <polygon id="_35" class="fil73" points="1.81,12.36 1.9,12.29 17.04,30.33 16.95,30.41 "/>
    <polygon id="_36" class="fil73" points="1.87,12.31 1.96,12.24 17.1,30.28 17.01,30.36 "/>
    <polygon id="_37" class="fil73" points="1.93,12.26 2.02,12.19 17.16,30.23 17.07,30.31 "/>
    <polygon id="_38" class="fil73" points="1.99,12.21 2.08,12.14 17.22,30.18 17.13,30.26 "/>
    <polygon id="_39" class="fil73" points="2.05,12.16 2.14,12.09 17.28,30.13 17.19,30.21 "/>
    <polygon id="_40" class="fil73" points="2.11,12.11 2.2,12.04 17.34,30.08 17.25,30.16 "/>
    <polygon id="_41" class="fil73" points="2.17,12.06 2.26,11.99 17.4,30.03 17.31,30.11 "/>
    <polygon id="_42" class="fil73" points="2.23,12.01 2.32,11.94 17.46,29.98 17.37,30.06 "/>
    <polygon id="_43" class="fil73" points="2.29,11.96 2.38,11.89 17.52,29.93 17.43,30.01 "/>
    <polygon id="_44" class="fil73" points="2.35,11.91 2.44,11.84 17.58,29.88 17.49,29.96 "/>
    <polygon id="_45" class="fil73" points="2.41,11.86 2.5,11.79 17.64,29.83 17.55,29.91 "/>
    <polygon id="_46" class="fil73" points="2.47,11.81 2.56,11.73 17.7,29.78 17.61,29.85 "/>
    <polygon id="_47" class="fil73" points="2.53,11.76 2.62,11.68 17.76,29.73 17.67,29.8 "/>
    <polygon id="_48" class="fil73" points="2.59,11.71 2.68,11.63 17.82,29.68 17.73,29.75 "/>
    <polygon id="_49" class="fil73" points="2.65,11.66 2.74,11.58 17.88,29.63 17.79,29.7 "/>
    <polygon id="_50" class="fil73" points="2.71,11.61 2.8,11.53 17.94,29.58 17.85,29.65 "/>
    <polygon id="_51" class="fil73" points="2.77,11.56 2.86,11.48 18,29.53 17.91,29.6 "/>
    <polygon id="_52" class="fil73" points="2.83,11.51 2.92,11.43 18.06,29.48 17.97,29.55 "/>
    <polygon id="_53" class="fil73" points="2.89,11.46 2.98,11.38 18.12,29.43 18.03,29.5 "/>
    <polygon id="_54" class="fil73" points="2.95,11.41 3.04,11.33 18.18,29.38 18.09,29.45 "/>
    <polygon id="_55" class="fil73" points="3.01,11.36 3.1,11.28 18.24,29.33 18.15,29.4 "/>
    <polygon id="_56" class="fil73" points="3.07,11.31 3.16,11.23 18.3,29.27 18.21,29.35 "/>
    <polygon id="_57" class="fil73" points="3.13,11.26 3.22,11.18 18.36,29.22 18.27,29.3 "/>
    <polygon id="_58" class="fil73" points="3.19,11.21 3.28,11.13 18.42,29.17 18.33,29.25 "/>
    <polygon id="_59" class="fil73" points="3.25,11.16 3.34,11.08 18.48,29.12 18.39,29.2 "/>
    <polygon id="_60" class="fil73" points="3.31,11.11 3.4,11.03 18.54,29.07 18.45,29.15 "/>
    <polygon id="_61" class="fil73" points="3.37,11.05 3.46,10.98 18.6,29.02 18.51,29.1 "/>
    <polygon id="_62" class="fil74" points="3.43,11 3.52,10.93 18.66,28.97 18.57,29.05 "/>
    <polygon id="_63" class="fil74" points="3.49,10.95 3.58,10.88 18.72,28.92 18.63,29 "/>
    <polygon id="_64" class="fil74" points="3.55,10.9 3.64,10.83 18.78,28.87 18.69,28.95 "/>
    <polygon id="_65" class="fil74" points="3.61,10.85 3.7,10.78 18.84,28.82 18.75,28.9 "/>
    <polygon id="_66" class="fil74" points="3.67,10.8 3.76,10.73 18.9,28.77 18.81,28.85 "/>
    <polygon id="_67" class="fil74" points="3.73,10.75 3.82,10.68 18.96,28.72 18.87,28.8 "/>
    <polygon id="_68" class="fil74" points="3.79,10.7 3.88,10.63 19.02,28.67 18.93,28.75 "/>
    <polygon id="_69" class="fil74" points="3.85,10.65 3.94,10.58 19.08,28.62 18.99,28.7 "/>
    <polygon id="_70" class="fil74" points="3.91,10.6 4,10.53 19.14,28.57 19.05,28.65 "/>
    <polygon id="_71" class="fil74" points="3.97,10.55 4.06,10.48 19.2,28.52 19.11,28.6 "/>
    <polygon id="_72" class="fil74" points="4.03,10.5 4.12,10.42 19.26,28.47 19.17,28.54 "/>
    <polygon id="_73" class="fil74" points="4.09,10.45 4.18,10.37 19.32,28.42 19.23,28.49 "/>
    <polygon id="_74" class="fil74" points="4.15,10.4 4.24,10.32 19.38,28.37 19.29,28.44 "/>
    <polygon id="_75" class="fil74" points="4.21,10.35 4.3,10.27 19.44,28.32 19.35,28.39 "/>
    <polygon id="_76" class="fil74" points="4.27,10.3 4.36,10.22 19.5,28.27 19.41,28.34 "/>
    <polygon id="_77" class="fil74" points="4.33,10.25 4.42,10.17 19.56,28.22 19.47,28.29 "/>
    <polygon id="_78" class="fil74" points="4.39,10.2 4.48,10.12 19.62,28.17 19.53,28.24 "/>
    <polygon id="_79" class="fil74" points="4.45,10.15 4.54,10.07 19.69,28.12 19.59,28.19 "/>
    <polygon id="_80" class="fil74" points="4.51,10.1 4.6,10.02 19.75,28.07 19.65,28.14 "/>
    <polygon id="_81" class="fil74" points="4.57,10.05 4.66,9.97 19.81,28.02 19.71,28.09 "/>
    <polygon id="_82" class="fil74" points="4.63,10 4.72,9.92 19.86,27.96 19.77,28.04 "/>
    <polygon id="_83" class="fil75" points="4.69,9.95 4.78,9.87 19.92,27.91 19.83,27.99 "/>
    <polygon id="_84" class="fil75" points="4.75,9.9 4.84,9.82 19.98,27.86 19.89,27.94 "/>
    <polygon id="_85" class="fil75" points="4.81,9.85 4.9,9.77 20.04,27.81 19.95,27.89 "/>
    <polygon id="_86" class="fil75" points="4.87,9.8 4.96,9.72 20.1,27.76 20.02,27.84 "/>
    <polygon id="_87" class="fil75" points="4.93,9.74 5.02,9.67 20.16,27.71 20.08,27.79 "/>
    <polygon id="_88" class="fil75" points="4.99,9.69 5.08,9.62 20.22,27.66 20.14,27.74 "/>
    <polygon id="_89" class="fil75" points="5.05,9.64 5.14,9.57 20.28,27.61 20.2,27.69 "/>
    <polygon id="_90" class="fil75" points="5.11,9.59 5.2,9.52 20.35,27.56 20.26,27.64 "/>
    <polygon id="_91" class="fil75" points="5.17,9.54 5.26,9.47 20.41,27.51 20.32,27.59 "/>
    <polygon id="_92" class="fil75" points="5.23,9.49 5.32,9.42 20.47,27.46 20.38,27.54 "/>
    <polygon id="_93" class="fil76" points="5.29,9.44 5.38,9.37 20.53,27.41 20.44,27.49 "/>
    <polygon id="_94" class="fil76" points="5.35,9.39 5.44,9.32 20.59,27.36 20.5,27.44 "/>
    <polygon id="_95" class="fil76" points="5.42,9.34 5.5,9.27 20.65,27.31 20.56,27.39 "/>
    <polygon id="_96" class="fil76" points="5.48,9.29 5.56,9.22 20.71,27.26 20.62,27.34 "/>
    <polygon id="_97" class="fil76" points="5.54,9.24 5.62,9.17 20.77,27.21 20.68,27.29 "/>
    <polygon id="_98" class="fil76" points="5.6,9.19 5.68,9.11 20.83,27.16 20.74,27.23 "/>
    <polygon id="_99" class="fil76" points="5.66,9.14 5.75,9.06 20.89,27.11 20.8,27.18 "/>
    <polygon id="_100" class="fil76" points="5.72,9.09 5.81,9.01 20.95,27.06 20.86,27.13 "/>
    <polygon id="_101" class="fil76" points="5.77,9.04 5.87,8.96 21.01,27.01 20.92,27.08 "/>
    <polygon id="_102" class="fil76" points="5.83,8.99 5.93,8.91 21.07,26.96 20.98,27.03 "/>
    <polygon id="_103" class="fil76" points="5.89,8.94 5.99,8.86 21.13,26.91 21.04,26.98 "/>
    <polygon id="_104" class="fil76" points="5.95,8.89 6.05,8.81 21.19,26.86 21.1,26.93 "/>
    <polygon id="_105" class="fil76" points="6.01,8.84 6.11,8.76 21.25,26.81 21.16,26.88 "/>
    <polygon id="_106" class="fil76" points="6.08,8.79 6.17,8.71 21.31,26.76 21.22,26.83 "/>
    <polygon id="_107" class="fil76" points="6.14,8.74 6.23,8.66 21.37,26.71 21.28,26.78 "/>
    <polygon id="_108" class="fil76" points="6.2,8.69 6.29,8.61 21.43,26.65 21.34,26.73 "/>
    <polygon id="_109" class="fil76" points="6.26,8.64 6.35,8.56 21.49,26.6 21.4,26.68 "/>
    <polygon id="_110" class="fil76" points="6.32,8.59 6.41,8.51 21.55,26.55 21.46,26.63 "/>
    <polygon id="_111" class="fil77" points="6.38,8.54 6.47,8.46 21.61,26.5 21.52,26.58 "/>
    <polygon id="_112" class="fil77" points="6.44,8.49 6.53,8.41 21.67,26.45 21.58,26.53 "/>
    <polygon id="_113" class="fil77" points="6.5,8.43 6.59,8.36 21.73,26.4 21.64,26.48 "/>
    <polygon id="_114" class="fil77" points="6.56,8.38 6.65,8.31 21.79,26.35 21.7,26.43 "/>
    <polygon id="_115" class="fil77" points="6.62,8.33 6.71,8.26 21.85,26.3 21.76,26.38 "/>
    <polygon id="_116" class="fil77" points="6.68,8.28 6.77,8.21 21.91,26.25 21.82,26.33 "/>
    <polygon id="_117" class="fil77" points="6.74,8.23 6.83,8.16 21.97,26.2 21.88,26.28 "/>
    <polygon id="_118" class="fil77" points="6.8,8.18 6.89,8.11 22.03,26.15 21.94,26.23 "/>
    <polygon id="_119" class="fil77" points="6.86,8.13 6.95,8.06 22.09,26.1 22,26.18 "/>
    <polygon id="_120" class="fil78" points="6.92,8.08 7.01,8.01 22.15,26.05 22.06,26.13 "/>
    <polygon id="_121" class="fil78" points="6.98,8.03 7.07,7.96 22.21,26 22.12,26.08 "/>
    <polygon id="_122" class="fil78" points="7.04,7.98 7.13,7.91 22.27,25.95 22.18,26.03 "/>
    <polygon id="_123" class="fil79" points="7.1,7.93 7.19,7.86 22.33,25.9 22.24,25.98 "/>
    <polygon id="_124" class="fil79" points="7.16,7.88 7.25,7.8 22.39,25.85 22.3,25.92 "/>
    <polygon id="_125" class="fil79" points="7.22,7.83 7.31,7.75 22.45,25.8 22.36,25.87 "/>
    <polygon id="_126" class="fil79" points="7.28,7.78 7.37,7.7 22.51,25.75 22.42,25.82 "/>
    <polygon id="_127" class="fil79" points="7.34,7.73 7.43,7.65 22.57,25.7 22.48,25.77 "/>
    <polygon id="_128" class="fil79" points="7.4,7.68 7.49,7.6 22.63,25.65 22.54,25.72 "/>
    <polygon id="_129" class="fil79" points="7.46,7.63 7.55,7.55 22.69,25.6 22.6,25.67 "/>
    <polygon id="_130" class="fil79" points="7.52,7.58 7.61,7.5 22.75,25.55 22.66,25.62 "/>
    <polygon id="_131" class="fil79" points="7.58,7.53 7.67,7.45 22.81,25.5 22.72,25.57 "/>
    <polygon id="_132" class="fil80" points="7.64,7.48 7.73,7.4 22.87,25.45 22.78,25.52 "/>
    <polygon id="_133" class="fil80" points="7.7,7.43 7.79,7.35 22.93,25.4 22.84,25.47 "/>
    <polygon id="_134" class="fil80" points="7.76,7.38 7.85,7.3 22.99,25.34 22.9,25.42 "/>
    <polygon id="_135" class="fil80" points="7.82,7.33 7.91,7.25 23.05,25.29 22.96,25.37 "/>
    <polygon id="_136" class="fil81" points="7.88,7.28 7.97,7.2 23.11,25.24 23.02,25.32 "/>
    <polygon id="_137" class="fil81" points="7.94,7.23 8.03,7.15 23.17,25.19 23.08,25.27 "/>
    <polygon id="_138" class="fil81" points="8,7.18 8.09,7.1 23.23,25.14 23.14,25.22 "/>
    <polygon id="_139" class="fil82" points="8.06,7.12 8.15,7.05 23.29,25.09 23.2,25.17 "/>
    <polygon id="_140" class="fil83" points="8.12,7.07 8.21,7 23.35,25.04 23.26,25.12 "/>
    <polygon id="_141" class="fil83" points="8.18,7.02 8.27,6.95 23.41,24.99 23.32,25.07 "/>
    <polygon id="_142" class="fil83" points="8.24,6.97 8.33,6.9 23.47,24.94 23.38,25.02 "/>
    <polygon id="_143" class="fil83" points="8.3,6.92 8.39,6.85 23.53,24.89 23.44,24.97 "/>
    <polygon id="_144" class="fil83" points="8.36,6.87 8.45,6.8 23.59,24.84 23.5,24.92 "/>
    <polygon id="_145" class="fil83" points="8.42,6.82 8.51,6.75 23.65,24.79 23.56,24.87 "/>
    <polygon id="_146" class="fil84" points="8.48,6.77 8.57,6.7 23.71,24.74 23.62,24.82 "/>
    <polygon id="_147" class="fil84" points="8.54,6.72 8.63,6.65 23.77,24.69 23.68,24.77 "/>
    <polygon id="_148" class="fil84" points="8.6,6.67 8.69,6.6 23.83,24.64 23.74,24.72 "/>
    <polygon id="_149" class="fil84" points="8.66,6.62 8.75,6.55 23.89,24.59 23.8,24.67 "/>
    <polygon id="_150" class="fil84" points="8.72,6.57 8.81,6.49 23.95,24.54 23.86,24.61 "/>
    <polygon id="_151" class="fil84" points="8.78,6.52 8.87,6.44 24.01,24.49 23.92,24.56 "/>
    <polygon id="_152" class="fil85" points="8.84,6.47 8.93,6.39 24.07,24.44 23.98,24.51 "/>
    <polygon id="_153" class="fil85" points="8.9,6.42 8.99,6.34 24.13,24.39 24.04,24.46 "/>
    <polygon id="_154" class="fil85" points="8.96,6.37 9.05,6.29 24.19,24.34 24.1,24.41 "/>
    <polygon id="_155" class="fil85" points="9.02,6.32 9.11,6.24 24.25,24.29 24.16,24.36 "/>
    <polygon id="_156" class="fil86" points="9.08,6.27 9.17,6.19 24.31,24.24 24.22,24.31 "/>
    <polygon id="_157" class="fil86" points="9.14,6.22 9.23,6.14 24.37,24.19 24.28,24.26 "/>
    <polygon id="_158" class="fil86" points="9.2,6.17 9.29,6.09 24.43,24.14 24.34,24.21 "/>
    <polygon id="_159" class="fil86" points="9.26,6.12 9.35,6.04 24.49,24.09 24.4,24.16 "/>
    <polygon id="_160" class="fil86" points="9.32,6.07 9.41,5.99 24.55,24.03 24.46,24.11 "/>
    <polygon id="_161" class="fil87" points="9.38,6.02 9.47,5.94 24.61,23.98 24.52,24.06 "/>
    <polygon id="_162" class="fil88" points="9.44,5.97 9.53,5.89 24.67,23.93 24.58,24.01 "/>
    <polygon id="_163" class="fil88" points="9.5,5.92 9.59,5.84 24.73,23.88 24.64,23.96 "/>
    <polygon id="_164" class="fil88" points="9.56,5.87 9.65,5.79 24.79,23.83 24.7,23.91 "/>
    <polygon id="_165" class="fil89" points="9.62,5.81 9.71,5.74 24.85,23.78 24.76,23.86 "/>
    <polygon id="_166" class="fil89" points="9.68,5.76 9.77,5.69 24.91,23.73 24.82,23.81 "/>
    <polygon id="_167" class="fil89" points="9.74,5.71 9.83,5.64 24.97,23.68 24.88,23.76 "/>
    <polygon id="_168" class="fil90" points="9.8,5.66 9.89,5.59 25.03,23.63 24.94,23.71 "/>
    <polygon id="_169" class="fil90" points="9.86,5.61 9.95,5.54 25.09,23.58 25,23.66 "/>
    <polygon id="_170" class="fil91" points="9.92,5.56 10.01,5.49 25.15,23.53 25.06,23.61 "/>
    <polygon id="_171" class="fil92" points="9.98,5.51 10.07,5.44 25.21,23.48 25.12,23.56 "/>
    <polygon id="_172" class="fil92" points="10.04,5.46 10.13,5.39 25.27,23.43 25.18,23.51 "/>
    <polygon id="_173" class="fil92" points="10.1,5.41 10.19,5.34 25.33,23.38 25.24,23.46 "/>
    <polygon id="_174" class="fil93" points="10.16,5.36 10.25,5.29 25.39,23.33 25.3,23.41 "/>
    <polygon id="_175" class="fil93" points="10.22,5.31 10.31,5.24 25.45,23.28 25.36,23.35 "/>
    <polygon id="_176" class="fil94" points="10.28,5.26 10.37,5.18 25.51,23.23 25.42,23.3 "/>
    <polygon id="_177" class="fil95" points="10.34,5.21 10.43,5.13 25.57,23.18 25.48,23.25 "/>
    <polygon id="_178" class="fil96" points="10.4,5.16 10.49,5.08 25.63,23.13 25.54,23.2 "/>
    <polygon id="_179" class="fil97" points="10.46,5.11 10.55,5.03 25.69,23.08 25.6,23.15 "/>
    <polygon id="_180" class="fil97" points="10.52,5.06 10.61,4.98 25.75,23.03 25.66,23.1 "/>
    <polygon id="_181" class="fil98" points="10.58,5.01 10.67,4.93 25.81,22.98 25.72,23.05 "/>
    <polygon id="_182" class="fil99" points="10.64,4.96 10.73,4.88 25.87,22.93 25.78,23 "/>
    <polygon id="_183" class="fil99" points="10.7,4.91 10.79,4.83 25.93,22.88 25.84,22.95 "/>
    <polygon id="_184" class="fil100" points="10.76,4.86 10.85,4.78 25.99,22.83 25.9,22.9 "/>
    <polygon id="_185" class="fil100" points="10.82,4.81 10.91,4.73 26.05,22.78 25.96,22.85 "/>
    <polygon id="_186" class="fil101" points="10.88,4.76 10.97,4.68 26.11,22.72 26.02,22.8 "/>
    <polygon id="_187" class="fil101" points="10.94,4.71 11.03,4.63 26.17,22.67 26.08,22.75 "/>
    <polygon id="_188" class="fil102" points="11,4.66 11.09,4.58 26.23,22.62 26.14,22.7 "/>
    <polygon id="_189" class="fil102" points="11.06,4.61 11.15,4.53 26.29,22.57 26.2,22.65 "/>
    <polygon id="_190" class="fil103" points="11.12,4.56 11.21,4.48 26.35,22.52 26.26,22.6 "/>
    <polygon id="_191" class="fil103" points="11.18,4.5 11.27,4.43 26.41,22.47 26.32,22.55 "/>
    <polygon id="_192" class="fil104" points="11.24,4.45 11.33,4.38 26.47,22.42 26.38,22.5 "/>
    <polygon id="_193" class="fil105" points="11.3,4.4 11.39,4.33 26.53,22.37 26.44,22.45 "/>
    <polygon id="_194" class="fil106" points="11.36,4.35 11.45,4.28 26.59,22.32 26.5,22.4 "/>
    <polygon id="_195" class="fil107" points="11.42,4.3 11.51,4.23 26.65,22.27 26.56,22.35 "/>
    <polygon id="_196" class="fil108" points="11.48,4.25 11.57,4.18 26.71,22.22 26.62,22.3 "/>
    <polygon id="_197" class="fil109" points="11.54,4.2 11.63,4.13 26.77,22.17 26.68,22.25 "/>
    <polygon id="_198" class="fil110" points="11.6,4.15 11.69,4.08 26.83,22.12 26.74,22.2 "/>
    <polygon id="_199" class="fil111" points="11.66,4.1 11.75,4.03 26.89,22.07 26.8,22.15 "/>
    <polygon id="_200" class="fil112" points="11.72,4.05 11.81,3.98 26.95,22.02 26.86,22.09 "/>
    <polygon id="_201" class="fil113" points="11.78,4 11.87,3.93 27.01,21.97 26.92,22.04 "/>
    <polygon id="_202" class="fil114" points="11.84,3.95 11.93,3.87 27.07,21.92 26.98,21.99 "/>
    <polygon id="_203" class="fil115" points="11.9,3.9 11.99,3.82 27.13,21.87 27.04,21.94 "/>
    <polygon id="_204" class="fil116" points="11.96,3.85 12.05,3.77 27.19,21.82 27.1,21.89 "/>
    <polygon id="_205" class="fil117" points="12.02,3.8 12.11,3.72 27.25,21.77 27.16,21.84 "/>
    <polygon id="_206" class="fil118" points="12.08,3.75 12.17,3.67 27.31,21.72 27.22,21.79 "/>
    <polygon id="_207" class="fil119" points="12.14,3.7 12.23,3.62 27.37,21.67 27.28,21.74 "/>
    <polygon id="_208" class="fil120" points="12.2,3.65 12.29,3.57 27.43,21.62 27.34,21.69 "/>
    <polygon id="_209" class="fil121" points="12.26,3.6 12.35,3.52 27.49,21.57 27.4,21.64 "/>
    <polygon id="_210" class="fil122" points="12.32,3.55 12.41,3.47 27.55,21.52 27.46,21.59 "/>
    <polygon id="_211" class="fil123" points="12.38,3.5 12.47,3.42 27.61,21.47 27.52,21.54 "/>
    <polygon id="_212" class="fil124" points="12.44,3.45 12.53,3.37 27.67,21.41 27.58,21.49 "/>
    <polygon id="_213" class="fil125" points="12.5,3.4 12.59,3.32 27.73,21.36 27.64,21.44 "/>
    <polygon id="_214" class="fil126" points="12.56,3.35 12.65,3.27 27.79,21.31 27.7,21.39 "/>
    <polygon id="_215" class="fil127" points="12.62,3.3 12.71,3.22 27.85,21.26 27.76,21.34 "/>
    <polygon id="_216" class="fil128" points="12.68,3.24 12.77,3.17 27.91,21.21 27.82,21.29 "/>
    <polygon id="_217" class="fil129" points="12.74,3.19 12.83,3.12 27.97,21.16 27.88,21.24 "/>
    <polygon id="_218" class="fil130" points="12.8,3.14 12.89,3.07 28.03,21.11 27.94,21.19 "/>
    <polygon id="_219" class="fil131" points="12.86,3.09 12.95,3.02 28.09,21.06 28,21.14 "/>
    <polygon id="_220" class="fil132" points="12.92,3.04 13.01,2.97 28.15,21.01 28.06,21.09 "/>
    <polygon id="_221" class="fil133" points="12.98,2.99 13.07,2.92 28.21,20.96 28.12,21.04 "/>
    <polygon id="_222" class="fil134" points="13.04,2.94 13.13,2.87 28.27,20.91 28.18,20.99 "/>
    <polygon id="_223" class="fil135" points="13.1,2.89 13.19,2.82 28.33,20.86 28.24,20.94 "/>
    <polygon id="_224" class="fil136" points="13.16,2.84 13.25,2.77 28.39,20.81 28.3,20.89 "/>
    <polygon id="_225" class="fil137" points="13.22,2.79 13.31,2.72 28.45,20.76 28.36,20.84 "/>
    <polygon id="_226" class="fil138" points="13.28,2.74 13.37,2.67 28.51,20.71 28.42,20.78 "/>
    <polygon id="_227" class="fil139" points="13.34,2.69 13.43,2.62 28.57,20.66 28.48,20.73 "/>
    <polygon id="_228" class="fil140" points="13.4,2.64 13.49,2.56 28.63,20.61 28.54,20.68 "/>
    <polygon id="_229" class="fil141" points="13.46,2.59 13.55,2.51 28.69,20.56 28.6,20.63 "/>
    <polygon id="_230" class="fil142" points="13.52,2.54 13.61,2.46 28.75,20.51 28.66,20.58 "/>
    <polygon id="_231" class="fil143" points="13.58,2.49 13.67,2.41 28.81,20.46 28.72,20.53 "/>
    <polygon id="_232" class="fil144" points="13.64,2.44 13.73,2.36 28.87,20.41 28.78,20.48 "/>
    <polygon id="_233" class="fil145" points="13.7,2.39 13.79,2.31 28.93,20.36 28.84,20.43 "/>
    <polygon id="_234" class="fil146" points="13.76,2.34 13.85,2.26 28.99,20.31 28.9,20.38 "/>
    <polygon id="_235" class="fil147" points="13.82,2.29 13.91,2.21 29.05,20.26 28.96,20.33 "/>
    <polygon id="_236" class="fil148" points="13.88,2.24 13.97,2.16 29.11,20.21 29.02,20.28 "/>
    <polygon id="_237" class="fil149" points="13.94,2.19 14.03,2.11 29.17,20.16 29.08,20.23 "/>
    <polygon id="_238" class="fil150" points="14,2.14 14.09,2.06 29.23,20.1 29.14,20.18 "/>
    <polygon id="_239" class="fil151" points="14.06,2.09 14.15,2.01 29.29,20.05 29.2,20.13 "/>
    <polygon id="_240" class="fil152" points="14.12,2.04 14.21,1.96 29.35,20 29.26,20.08 "/>
    <polygon id="_241" class="fil153" points="14.18,1.98 14.27,1.91 29.41,19.95 29.32,20.03 "/>
    <polygon id="_242" class="fil154" points="14.24,1.93 14.33,1.86 29.47,19.9 29.38,19.98 "/>
    <polygon id="_243" class="fil155" points="14.3,1.88 14.39,1.81 29.53,19.85 29.44,19.93 "/>
    <polygon id="_244" class="fil156" points="14.36,1.83 14.45,1.76 29.59,19.8 29.5,19.88 "/>
    <polygon id="_245" class="fil157" points="14.42,1.78 14.51,1.71 29.65,19.75 29.56,19.83 "/>
    <polygon id="_246" class="fil158" points="14.48,1.73 14.57,1.66 29.71,19.7 29.62,19.78 "/>
    <polygon id="_247" class="fil159" points="14.54,1.68 14.63,1.61 29.77,19.65 29.68,19.73 "/>
    <polygon id="_248" class="fil160" points="14.6,1.63 14.69,1.56 29.83,19.6 29.74,19.68 "/>
    <polygon id="_249" class="fil161" points="14.66,1.58 14.75,1.51 29.89,19.55 29.8,19.63 "/>
    <polygon id="_250" class="fil162" points="14.72,1.53 14.81,1.46 29.95,19.5 29.86,19.58 "/>
    <polygon id="_251" class="fil163" points="14.78,1.48 14.87,1.41 30.01,19.45 29.92,19.53 "/>
    <polygon id="_252" class="fil164" points="14.84,1.43 14.93,1.36 30.07,19.4 29.98,19.47 "/>
    <polygon id="_253" class="fil165" points="14.9,1.38 14.99,1.31 30.13,19.35 30.04,19.42 "/>
    <polygon id="_254" class="fil166" points="14.96,1.33 15.05,1.25 30.19,19.3 30.1,19.37 "/>
    <polygon id="_255" class="fil166" points="15.02,1.28 16.43,0.1 31.57,18.14 30.16,19.32 "/>
   </g>
  </g>
  <path class="fil167" d="M18.57 12.79c0.8,-1.06 1.92,-1.06 1.92,-1.06 0,0 0.16,0.98 -0.63,1.95 -0.85,1.02 -1.82,0.84 -1.82,0.84 0,0 -0.18,-0.8 0.53,-1.73l0 0zm-9.16 5.42l0 3.44 2.48 0 0 -3.97c0,-0.5 0.42,-0.92 0.92,-0.92 0.51,0 0.91,0.42 0.91,0.92l0 3.97 2.48 0 0 -3.97c0,-0.5 0.4,-0.92 0.91,-0.92 0.51,0 0.91,0.42 0.91,0.92l0 3.97 2.48 0 0 -6.62 -2.48 0 0 0.93c0,0 -0.6,-1.09 -2.13,-1.09 -0.89,0 -1.59,0.51 -1.95,0.51 -0.42,0 -1.08,-0.48 -1.9,-0.48 -1.28,0 -2.63,1.13 -2.63,3.3l0 0.01z"/>
  <polygon class="fil168" points="0,0 75.01,0 75.01,33.38 0,33.38 "/>
 </g>
</svg>
