<svg xmlns="http://www.w3.org/2000/svg" viewBox="0 0 268 107.01"><path d="M263.3,393.25v41.94H250V331.65h35.28a31.88,31.88,0,0,1,22.85,9,29.92,29.92,0,0,1,0,43.81q-9.25,8.82-22.85,8.82Zm0-48.88v36.15h22.27a17.58,17.58,0,0,0,13.16-5.35,18.15,18.15,0,0,0-13.16-30.8Z" transform="translate(-250 -330.5)"/><path d="M346.52,339.9a9.38,9.38,0,1,1-2.75-6.65A9.06,9.06,0,0,1,346.52,339.9Zm-2.75,24.44v70.86h-13.3V364.33Z" transform="translate(-250 -330.5)"/><path d="M394.92,399.18l25.31,36H404.6L387.11,409,369.9,435.19H354.28l25-36-24.44-34.85h15l17.5,25,16.63-25h15.62Z" transform="translate(-250 -330.5)"/><path d="M459.12,437.5q-15.62,0-25.74-10.7t-10.12-27q0-16.2,9.83-26.9T458.26,362q15.76,0,25,10.27t9.4,28.49l-.14,1.45H436.85q.29,10.41,6.94,16.77a22.21,22.21,0,0,0,15.91,6.36q12.73,0,20-12.73l11.86,5.78a35.19,35.19,0,0,1-13.3,14,36.21,36.21,0,0,1-19.09,5.06Zm-21.26-46.27H478.5a17.28,17.28,0,0,0-6.07-12.15q-5.35-4.92-14.46-4.92a19.56,19.56,0,0,0-13,4.63A22.29,22.29,0,0,0,437.87,391.23Z" transform="translate(-250 -330.5)"/><path d="M518,331.65V435.19H504.7V331.65Z" transform="translate(-250 -330.5)"/></svg>