<?xml version="1.0" encoding="UTF-8"?>
<!DOCTYPE svg PUBLIC "-//W3C//DTD SVG 1.1//EN" "http://www.w3.org/Graphics/SVG/1.1/DTD/svg11.dtd">
<!-- Creator: CorelDRAW -->
<svg xmlns="http://www.w3.org/2000/svg" xml:space="preserve" width="127px" height="150px" version="1.1" style="shape-rendering:geometricPrecision; text-rendering:geometricPrecision; image-rendering:optimizeQuality; fill-rule:evenodd; clip-rule:evenodd"
viewBox="0 0 4.52 5.32"
 xmlns:xlink="http://www.w3.org/1999/xlink"
 xmlns:xodm="http://www.corel.com/coreldraw/odm/2003">
 <defs>
  <style type="text/css">
   <![CDATA[
    .fil0 {fill:none}
    .fil3 {fill:white}
    .fil1 {fill:#1A1A1A;fill-rule:nonzero}
    .fil2 {fill:#FF6D0C;fill-rule:nonzero}
   ]]>
  </style>
 </defs>
 <g id="WEB">
  <metadata id="CorelCorpID_0Corel-Layer"/>
  <rect class="fil0" width="4.52" height="5.32"/>
  <path class="fil1" d="M0.44 4.72l0.01 -0.43 0.07 0 0.01 0.06 0 0c0.01,-0.03 0.03,-0.04 0.05,-0.06 0.03,-0.01 0.05,-0.01 0.08,-0.01 0.02,0 0.04,0 0.06,0 0.02,0.01 0.03,0.02 0.05,0.03 0.01,0.01 0.02,0.03 0.03,0.05l0 0c0.02,-0.03 0.04,-0.05 0.06,-0.06 0.03,-0.02 0.06,-0.02 0.09,-0.02 0.03,0 0.06,0 0.09,0.02 0.02,0.01 0.04,0.03 0.05,0.06 0.02,0.03 0.02,0.06 0.02,0.1l0 0.26 -0.08 0 0 -0.25c0,-0.04 -0.01,-0.07 -0.03,-0.09 -0.01,-0.02 -0.04,-0.03 -0.07,-0.03 -0.02,0 -0.04,0.01 -0.05,0.02 -0.02,0.01 -0.03,0.02 -0.04,0.04 -0.01,0.02 -0.02,0.05 -0.02,0.08l0 0.23 -0.08 0 0 -0.25c0,-0.04 -0.01,-0.07 -0.03,-0.09 -0.01,-0.02 -0.04,-0.03 -0.07,-0.03 -0.02,0 -0.04,0.01 -0.05,0.02 -0.02,0.01 -0.03,0.02 -0.04,0.04 -0.01,0.02 -0.02,0.05 -0.02,0.08l0 0.23 -0.09 0zm0.74 0l0 -0.43 0.09 0 0 0.43 -0.09 0zm0.05 -0.52c-0.02,0 -0.03,0 -0.04,-0.01 -0.01,-0.01 -0.02,-0.03 -0.02,-0.04 0,-0.02 0.01,-0.03 0.02,-0.04 0.01,-0.01 0.02,-0.01 0.04,-0.01 0.01,0 0.03,0 0.04,0.01 0.01,0.01 0.01,0.02 0.01,0.04 0,0.01 0,0.03 -0.01,0.04 -0.01,0.01 -0.03,0.01 -0.04,0.01zm0.16 0.52l0 -0.6 0.23 0c0.05,0 0.09,0.01 0.12,0.02 0.03,0.02 0.06,0.04 0.07,0.07 0.02,0.03 0.03,0.06 0.03,0.1 0,0.03 -0.01,0.06 -0.03,0.09 -0.01,0.03 -0.03,0.05 -0.07,0.07 -0.03,0.02 -0.07,0.03 -0.12,0.03l-0.11 0 0 0.22 -0.12 0zm0.12 -0.32l0.1 0c0.04,0 0.06,-0.01 0.08,-0.03 0.02,-0.01 0.02,-0.04 0.02,-0.06 0,-0.03 0,-0.05 -0.02,-0.07 -0.02,-0.02 -0.04,-0.02 -0.08,-0.02l-0.1 0 0 0.18zm0.36 0.32l0 -0.62 0.12 0 0 0.25 0 0c0.02,-0.02 0.04,-0.04 0.06,-0.05 0.02,-0.02 0.05,-0.02 0.08,-0.02 0.04,0 0.07,0 0.09,0.02 0.03,0.01 0.05,0.04 0.06,0.06 0.01,0.03 0.02,0.07 0.02,0.11l0 0.25 -0.12 0 0 -0.24c0,-0.03 -0.01,-0.06 -0.02,-0.08 -0.02,-0.01 -0.04,-0.02 -0.07,-0.02 -0.02,0 -0.03,0 -0.05,0.01 -0.01,0.01 -0.03,0.02 -0.03,0.04 -0.01,0.02 -0.02,0.04 -0.02,0.06l0 0.23 -0.12 0zm0.7 0.01c-0.05,0 -0.08,-0.01 -0.12,-0.03 -0.03,-0.02 -0.06,-0.04 -0.08,-0.08 -0.01,-0.03 -0.02,-0.07 -0.02,-0.12 0,-0.04 0.01,-0.08 0.02,-0.12 0.02,-0.03 0.05,-0.06 0.08,-0.08 0.04,-0.01 0.07,-0.02 0.12,-0.02 0.04,0 0.08,0.01 0.11,0.02 0.03,0.02 0.06,0.05 0.08,0.08 0.02,0.04 0.03,0.08 0.03,0.12 0,0.05 -0.01,0.09 -0.03,0.12 -0.02,0.04 -0.05,0.06 -0.08,0.08 -0.03,0.02 -0.07,0.03 -0.11,0.03zm-0.01 -0.1c0.02,0 0.04,-0.01 0.05,-0.02 0.02,-0.01 0.03,-0.02 0.04,-0.04 0.01,-0.02 0.01,-0.04 0.01,-0.07 0,-0.02 0,-0.05 -0.01,-0.07 -0.01,-0.01 -0.02,-0.03 -0.04,-0.04 -0.01,-0.01 -0.03,-0.01 -0.04,-0.01 -0.02,0 -0.04,0 -0.05,0.01 -0.02,0.01 -0.03,0.03 -0.04,0.04 -0.01,0.02 -0.01,0.05 -0.01,0.07 0,0.03 0,0.05 0.01,0.07 0.01,0.02 0.02,0.03 0.04,0.04 0.01,0.01 0.03,0.02 0.04,0.02zm0.28 0.09l0 -0.43 0.1 0 0.01 0.07 0 0c0.01,-0.03 0.03,-0.05 0.06,-0.06 0.02,-0.02 0.05,-0.02 0.09,-0.02 0.03,0 0.06,0 0.09,0.02 0.02,0.01 0.04,0.04 0.05,0.06 0.02,0.03 0.02,0.07 0.02,0.11l0 0.25 -0.12 0 0 -0.24c0,-0.03 0,-0.06 -0.02,-0.08 -0.01,-0.01 -0.04,-0.02 -0.07,-0.02 -0.01,0 -0.03,0 -0.05,0.01 -0.01,0.01 -0.02,0.02 -0.03,0.04 -0.01,0.01 -0.01,0.03 -0.01,0.06l0 0.23 -0.12 0zm0.69 0.01c-0.04,0 -0.08,-0.01 -0.11,-0.03 -0.04,-0.02 -0.06,-0.04 -0.08,-0.08 -0.02,-0.03 -0.03,-0.07 -0.03,-0.11 0,-0.05 0.01,-0.09 0.03,-0.12 0.02,-0.04 0.04,-0.06 0.07,-0.08 0.04,-0.02 0.08,-0.03 0.12,-0.03 0.05,0 0.08,0.01 0.12,0.02 0.03,0.02 0.05,0.05 0.07,0.08 0.02,0.03 0.03,0.07 0.03,0.11 0,0.01 0,0.01 0,0.02 0,0.01 0,0.01 0,0.02l-0.36 0 0 -0.07 0.24 0c-0.01,-0.03 -0.02,-0.05 -0.03,-0.06 -0.02,-0.02 -0.04,-0.03 -0.07,-0.03 -0.02,0 -0.04,0.01 -0.05,0.02 -0.02,0.01 -0.03,0.02 -0.04,0.04 -0.01,0.01 -0.01,0.04 -0.01,0.07l0 0.02c0,0.02 0,0.04 0.01,0.06 0.01,0.02 0.02,0.03 0.04,0.04 0.01,0.01 0.03,0.01 0.05,0.01 0.02,0 0.04,0 0.05,-0.01 0.02,-0.01 0.03,-0.02 0.03,-0.03l0.13 0c-0.01,0.02 -0.03,0.05 -0.05,0.07 -0.01,0.02 -0.04,0.04 -0.07,0.05 -0.02,0.01 -0.05,0.02 -0.09,0.02zm0.22 -0.6l0 -0.03 0.12 0 0 0.03 -0.04 0 0 0.12 -0.04 0 0 -0.12 -0.04 0zm0.14 0.12l0 -0.15 0.05 0 0.04 0.1 0.04 -0.1 0.06 0 0 0.15 -0.04 0 0 -0.1 -0.04 0.1 -0.03 0 -0.04 -0.1 0 0.1 -0.04 0z"/>
  <g id="_2727675677968">
   <path class="fil2" d="M0.72 2.54c-0.02,-0.25 -0.02,-0.51 0,-0.77 0.06,-0.69 0.47,-1.09 1.16,-1.15 0.25,-0.02 0.51,-0.02 0.77,0 0.69,0.06 1.09,0.46 1.15,1.15 0.02,0.26 0.02,0.52 0,0.77 -0.06,0.7 -0.46,1.1 -1.15,1.16 -0.26,0.02 -0.52,0.02 -0.77,0 -0.7,-0.06 -1.1,-0.46 -1.16,-1.16z"/>
   <path class="fil3" d="M2.82 1.55c0.13,-0.16 0.3,-0.16 0.3,-0.16 0,0 0.02,0.15 -0.1,0.3 -0.13,0.16 -0.28,0.13 -0.28,0.13 0,0 -0.03,-0.12 0.08,-0.27zm-1.42 0.84l0 0.54 0.39 0 0 -0.62c0,-0.08 0.06,-0.14 0.14,-0.14 0.08,0 0.14,0.06 0.14,0.14l0 0.62 0.38 0 0 -0.62c0,-0.08 0.07,-0.14 0.14,-0.14 0.08,0 0.15,0.06 0.15,0.14l0 0.62 0.38 0 0 -1.03 -0.38 0 0 0.15c0,0 -0.1,-0.17 -0.34,-0.17 -0.13,0 -0.24,0.07 -0.3,0.07 -0.06,0 -0.16,-0.07 -0.29,-0.07 -0.2,0 -0.41,0.18 -0.41,0.51z"/>
  </g>
 </g>
</svg>
