<?xml version="1.0" encoding="UTF-8"?>
<!DOCTYPE svg PUBLIC "-//W3C//DTD SVG 1.1//EN" "http://www.w3.org/Graphics/SVG/1.1/DTD/svg11.dtd">
<!-- Creator: CorelDRAW -->
<svg xmlns="http://www.w3.org/2000/svg" xml:space="preserve" width="391px" height="180px" version="1.1" style="shape-rendering:geometricPrecision; text-rendering:geometricPrecision; image-rendering:optimizeQuality; fill-rule:evenodd; clip-rule:evenodd"
viewBox="0 0 39.25 18.06"
 xmlns:xlink="http://www.w3.org/1999/xlink"
 xmlns:xodm="http://www.corel.com/coreldraw/odm/2003">
 <defs>
  <style type="text/css">
   <![CDATA[
    .fil3 {fill:none}
    .fil2 {fill:white}
    .fil0 {fill:#1A1A1A;fill-rule:nonzero}
    .fil1 {fill:#FF6D0C;fill-rule:nonzero}
   ]]>
  </style>
 </defs>
 <g id="WEB">
  <metadata id="CorelCorpID_0Corel-Layer"/>
  <path class="fil0" d="M14.86 10.87l0.01 -2.6 0.46 0 0.04 0.37 -0.01 0c0.09,-0.14 0.2,-0.24 0.33,-0.32 0.14,-0.07 0.29,-0.11 0.47,-0.11 0.13,0 0.25,0.02 0.35,0.06 0.11,0.03 0.2,0.09 0.28,0.16 0.09,0.07 0.15,0.16 0.21,0.27l-0.01 0c0.1,-0.16 0.22,-0.28 0.38,-0.36 0.15,-0.09 0.32,-0.13 0.49,-0.13 0.21,0 0.39,0.04 0.54,0.13 0.15,0.08 0.27,0.21 0.35,0.37 0.08,0.17 0.12,0.37 0.12,0.62l0 1.54 -0.51 0 0 -1.49c0,-0.24 -0.05,-0.42 -0.15,-0.54 -0.1,-0.12 -0.24,-0.19 -0.43,-0.19 -0.12,0 -0.23,0.04 -0.33,0.1 -0.1,0.06 -0.18,0.16 -0.24,0.28 -0.06,0.13 -0.09,0.28 -0.09,0.46l0.01 1.38 -0.52 0 0 -1.49c0,-0.24 -0.05,-0.42 -0.15,-0.54 -0.1,-0.12 -0.24,-0.19 -0.42,-0.19 -0.13,0 -0.24,0.04 -0.34,0.1 -0.1,0.07 -0.18,0.16 -0.23,0.28 -0.06,0.13 -0.09,0.28 -0.09,0.46l0 1.38 -0.52 0zm4.41 0l0.02 -2.6 0.5 0 0.01 2.6 -0.53 0zm0.27 -3.09c-0.1,0 -0.18,-0.03 -0.24,-0.09 -0.07,-0.06 -0.1,-0.14 -0.1,-0.24 0,-0.09 0.03,-0.17 0.1,-0.23 0.06,-0.06 0.14,-0.09 0.24,-0.09 0.1,0 0.18,0.03 0.24,0.09 0.07,0.06 0.1,0.14 0.1,0.23 0,0.1 -0.03,0.18 -0.1,0.24 -0.06,0.06 -0.14,0.09 -0.24,0.09zm0.99 3.09l0 -3.6 1.36 0c0.29,0 0.54,0.05 0.73,0.14 0.19,0.1 0.33,0.24 0.43,0.41 0.1,0.17 0.14,0.36 0.14,0.58 0,0.2 -0.05,0.38 -0.14,0.55 -0.09,0.17 -0.23,0.31 -0.42,0.41 -0.19,0.11 -0.44,0.16 -0.74,0.16l-0.64 0 0 1.35 -0.72 0zm0.71 -1.93l0.61 0c0.21,0 0.37,-0.05 0.46,-0.15 0.1,-0.1 0.15,-0.23 0.15,-0.39 0,-0.17 -0.05,-0.31 -0.15,-0.4 -0.09,-0.1 -0.25,-0.15 -0.46,-0.15l-0.6 0 -0.01 1.09zm2.16 1.93l0.01 -3.71 0.72 0 0 1.49 -0.01 0c0.08,-0.13 0.2,-0.24 0.34,-0.32 0.15,-0.08 0.31,-0.12 0.5,-0.12 0.21,0 0.39,0.05 0.54,0.14 0.15,0.09 0.26,0.22 0.34,0.39 0.08,0.18 0.12,0.39 0.11,0.64l0.01 1.49 -0.72 0 0 -1.42c0,-0.2 -0.04,-0.36 -0.13,-0.47 -0.09,-0.11 -0.22,-0.16 -0.4,-0.16 -0.11,0 -0.21,0.03 -0.3,0.08 -0.09,0.06 -0.16,0.13 -0.21,0.23 -0.05,0.1 -0.08,0.22 -0.08,0.36l0.01 1.38 -0.73 0zm4.15 0.06c-0.25,0 -0.48,-0.06 -0.68,-0.17 -0.2,-0.12 -0.35,-0.28 -0.46,-0.49 -0.12,-0.2 -0.17,-0.44 -0.18,-0.7 0,-0.26 0.06,-0.5 0.18,-0.7 0.11,-0.21 0.27,-0.37 0.47,-0.49 0.2,-0.11 0.42,-0.17 0.67,-0.17 0.25,0 0.48,0.06 0.67,0.17 0.2,0.12 0.36,0.28 0.47,0.48 0.12,0.21 0.17,0.44 0.18,0.71 -0.01,0.27 -0.07,0.5 -0.18,0.71 -0.12,0.2 -0.28,0.36 -0.47,0.48 -0.2,0.11 -0.42,0.17 -0.67,0.17zm-0.01 -0.62c0.12,0 0.22,-0.03 0.3,-0.09 0.09,-0.05 0.16,-0.13 0.21,-0.24 0.06,-0.11 0.09,-0.25 0.08,-0.41 0,-0.16 -0.02,-0.3 -0.08,-0.41 -0.05,-0.11 -0.12,-0.19 -0.21,-0.24 -0.09,-0.06 -0.18,-0.09 -0.29,-0.09 -0.11,0 -0.21,0.03 -0.3,0.09 -0.09,0.05 -0.16,0.13 -0.21,0.24 -0.05,0.11 -0.07,0.25 -0.07,0.41 0,0.16 0.02,0.3 0.07,0.41 0.05,0.11 0.12,0.19 0.21,0.24 0.09,0.06 0.18,0.09 0.29,0.09zm1.63 0.56l0 -2.6 0.63 0 0.05 0.43 0 0c0.08,-0.15 0.19,-0.27 0.34,-0.35 0.14,-0.09 0.32,-0.14 0.53,-0.14 0.21,0 0.39,0.05 0.54,0.14 0.14,0.09 0.26,0.22 0.33,0.39 0.08,0.17 0.12,0.38 0.12,0.63l0 1.5 -0.72 0 0 -1.43c0,-0.2 -0.04,-0.35 -0.12,-0.46 -0.09,-0.11 -0.22,-0.16 -0.4,-0.16 -0.11,0 -0.21,0.03 -0.3,0.08 -0.09,0.05 -0.16,0.13 -0.21,0.22 -0.05,0.1 -0.07,0.22 -0.07,0.36l0 1.39 -0.72 0zm4.15 0.06c-0.26,0 -0.49,-0.06 -0.69,-0.17 -0.2,-0.11 -0.36,-0.27 -0.47,-0.47 -0.11,-0.2 -0.17,-0.43 -0.17,-0.69 0,-0.27 0.05,-0.51 0.17,-0.72 0.11,-0.2 0.26,-0.37 0.46,-0.49 0.2,-0.12 0.44,-0.18 0.71,-0.18 0.25,0 0.48,0.06 0.67,0.17 0.2,0.11 0.35,0.27 0.46,0.46 0.1,0.19 0.16,0.41 0.16,0.66 0,0.04 0,0.07 -0.01,0.12 0,0.04 0,0.08 -0.01,0.13l-2.1 0 0 -0.44 1.39 0c-0.01,-0.16 -0.07,-0.28 -0.18,-0.38 -0.1,-0.09 -0.23,-0.14 -0.38,-0.14 -0.12,0 -0.23,0.03 -0.32,0.09 -0.1,0.05 -0.17,0.13 -0.23,0.24 -0.05,0.1 -0.08,0.24 -0.08,0.4l0 0.15c0,0.14 0.02,0.25 0.08,0.35 0.05,0.11 0.12,0.18 0.21,0.24 0.09,0.05 0.2,0.08 0.33,0.08 0.12,0 0.22,-0.02 0.3,-0.08 0.08,-0.05 0.14,-0.11 0.18,-0.2l0.74 0c-0.05,0.16 -0.13,0.31 -0.24,0.44 -0.12,0.13 -0.26,0.23 -0.42,0.31 -0.17,0.08 -0.35,0.12 -0.56,0.12zm1.3 -3.56l0 -0.21 0.7 0 0 0.21 -0.22 0 0 0.7 -0.26 0 0 -0.7 -0.22 0zm0.83 0.7l0 -0.91 0.34 0 0.23 0.6 0.25 -0.6 0.31 0 0 0.91 -0.23 0 0 -0.6 -0.25 0.6 -0.18 0 -0.24 -0.6 0 0.6 -0.23 0z"/>
  <g id="_2727674595296">
   <path class="fil1" d="M2.72 10.37c-0.07,-0.89 -0.07,-1.79 0,-2.68 0.2,-2.42 1.63,-3.82 4.03,-4.03 0.89,-0.08 1.79,-0.08 2.69,0 2.41,0.2 3.82,1.61 4.03,4.03 0.07,0.89 0.07,1.79 0,2.68 -0.2,2.42 -1.61,3.83 -4.03,4.03 -0.9,0.08 -1.8,0.08 -2.69,0 -2.42,-0.2 -3.83,-1.61 -4.03,-4.03z"/>
   <path class="fil2" d="M10.05 6.92c0.43,-0.57 1.04,-0.58 1.04,-0.58 0,0 0.09,0.54 -0.35,1.06 -0.46,0.55 -0.98,0.46 -0.98,0.46 0,0 -0.1,-0.43 0.29,-0.94zm-4.95 2.93l0 1.87 1.34 0 0 -2.15c0,-0.28 0.22,-0.5 0.49,-0.5 0.27,0 0.49,0.22 0.49,0.5l0 2.15 1.35 0 0 -2.15c0,-0.28 0.22,-0.5 0.49,-0.5 0.27,0 0.49,0.22 0.49,0.5l0 2.15 1.34 0 0 -3.58 -1.34 0 0 0.5c0,0 -0.33,-0.6 -1.16,-0.6 -0.48,0 -0.85,0.28 -1.05,0.28 -0.23,0 -0.58,-0.26 -1.02,-0.26 -0.69,0 -1.42,0.62 -1.42,1.79z"/>
  </g>
  <rect class="fil3" width="39.25" height="18.06"/>
 </g>
</svg>
