<?xml version="1.0" encoding="UTF-8"?>
<!DOCTYPE svg PUBLIC "-//W3C//DTD SVG 1.1//EN" "http://www.w3.org/Graphics/SVG/1.1/DTD/svg11.dtd">
<!-- Creator: CorelDRAW -->
<svg xmlns="http://www.w3.org/2000/svg" xml:space="preserve" width="500px" height="230px" version="1.1" style="shape-rendering:geometricPrecision; text-rendering:geometricPrecision; image-rendering:optimizeQuality; fill-rule:evenodd; clip-rule:evenodd"
viewBox="0 0 99.66 45.86"
 xmlns:xlink="http://www.w3.org/1999/xlink"
 xmlns:xodm="http://www.corel.com/coreldraw/odm/2003">
 <defs>
  <style type="text/css">
   <![CDATA[
    .fil3 {fill:none}
    .fil2 {fill:white}
    .fil0 {fill:#1A1A1A;fill-rule:nonzero}
    .fil1 {fill:#FF6D0C;fill-rule:nonzero}
   ]]>
  </style>
 </defs>
 <g id="WEB">
  <metadata id="CorelCorpID_0Corel-Layer"/>
  <path class="fil0" d="M37.75 27.59l0.01 -6.58 1.16 0 0.11 0.93 -0.02 0c0.21,-0.34 0.49,-0.61 0.84,-0.8 0.35,-0.19 0.74,-0.29 1.17,-0.29 0.34,0 0.65,0.05 0.91,0.14 0.27,0.09 0.5,0.23 0.71,0.41 0.21,0.18 0.39,0.41 0.53,0.68l-0.02 0c0.25,-0.39 0.56,-0.69 0.96,-0.91 0.39,-0.21 0.81,-0.32 1.25,-0.32 0.53,0 0.99,0.11 1.37,0.32 0.38,0.22 0.68,0.53 0.88,0.95 0.21,0.42 0.31,0.94 0.3,1.58l0.01 3.89 -1.31 0 0 -3.76c0.01,-0.62 -0.11,-1.08 -0.36,-1.39 -0.25,-0.31 -0.62,-0.46 -1.1,-0.46 -0.31,0 -0.6,0.08 -0.85,0.24 -0.25,0.16 -0.45,0.4 -0.6,0.72 -0.15,0.31 -0.22,0.7 -0.22,1.15l0.01 3.5 -1.32 0 0 -3.76c0.01,-0.62 -0.11,-1.08 -0.36,-1.39 -0.25,-0.31 -0.62,-0.46 -1.09,-0.46 -0.31,0 -0.59,0.08 -0.85,0.24 -0.25,0.17 -0.45,0.41 -0.6,0.72 -0.14,0.32 -0.22,0.7 -0.22,1.15l0.01 3.5 -1.31 0zm11.2 0l0.02 -6.58 1.29 0 0.02 6.58 -1.33 0zm0.66 -7.82c-0.24,-0.01 -0.44,-0.09 -0.61,-0.25 -0.16,-0.16 -0.24,-0.36 -0.24,-0.6 0,-0.24 0.08,-0.43 0.24,-0.58 0.17,-0.15 0.37,-0.23 0.62,-0.23 0.25,0 0.45,0.08 0.62,0.23 0.16,0.15 0.25,0.34 0.25,0.58 0,0.24 -0.09,0.44 -0.25,0.6 -0.17,0.16 -0.38,0.24 -0.63,0.25zm2.52 7.82l0 -9.14 3.46 0c0.74,0 1.36,0.13 1.84,0.38 0.49,0.25 0.86,0.59 1.1,1.03 0.25,0.44 0.37,0.92 0.37,1.46 -0.01,0.51 -0.13,0.98 -0.36,1.41 -0.23,0.43 -0.59,0.78 -1.07,1.05 -0.49,0.27 -1.11,0.4 -1.88,0.4l-1.63 0 0 3.41 -1.83 0zm1.82 -4.88l1.53 0c0.54,0 0.94,-0.13 1.18,-0.38 0.24,-0.25 0.36,-0.59 0.37,-1.01 -0.01,-0.43 -0.13,-0.77 -0.37,-1.02 -0.24,-0.24 -0.64,-0.36 -1.18,-0.36l-1.52 0 -0.01 2.77zm5.48 4.88l0.01 -9.4 1.83 0 0 3.79 -0.02 0c0.21,-0.34 0.5,-0.62 0.87,-0.82 0.36,-0.21 0.78,-0.31 1.26,-0.31 0.54,0 1,0.12 1.37,0.35 0.38,0.23 0.67,0.56 0.87,1 0.2,0.44 0.29,0.99 0.28,1.63l0.02 3.76 -1.83 0 0 -3.59c0,-0.51 -0.11,-0.91 -0.33,-1.19 -0.22,-0.28 -0.55,-0.42 -1,-0.42 -0.28,0 -0.54,0.07 -0.77,0.21 -0.24,0.14 -0.42,0.34 -0.55,0.59 -0.12,0.25 -0.19,0.56 -0.19,0.91l0.02 3.49 -1.84 0zm10.53 0.16c-0.64,0 -1.22,-0.15 -1.72,-0.44 -0.51,-0.29 -0.9,-0.7 -1.19,-1.22 -0.28,-0.52 -0.43,-1.12 -0.45,-1.79 0.01,-0.67 0.16,-1.27 0.45,-1.79 0.3,-0.52 0.69,-0.93 1.2,-1.22 0.5,-0.29 1.07,-0.44 1.71,-0.44 0.64,0 1.21,0.15 1.71,0.44 0.51,0.29 0.9,0.7 1.19,1.21 0.29,0.52 0.43,1.12 0.44,1.8 -0.01,0.68 -0.16,1.28 -0.45,1.8 -0.3,0.51 -0.7,0.92 -1.19,1.21 -0.5,0.29 -1.06,0.44 -1.7,0.44zm-0.03 -1.57c0.3,-0.01 0.55,-0.08 0.77,-0.22 0.21,-0.14 0.39,-0.35 0.53,-0.63 0.15,-0.28 0.21,-0.62 0.21,-1.03 0,-0.41 -0.07,-0.75 -0.21,-1.03 -0.13,-0.28 -0.31,-0.49 -0.53,-0.63 -0.22,-0.14 -0.47,-0.21 -0.74,-0.22 -0.28,0.01 -0.53,0.08 -0.76,0.22 -0.22,0.14 -0.4,0.35 -0.53,0.63 -0.12,0.28 -0.19,0.62 -0.19,1.03 0,0.41 0.06,0.75 0.19,1.03 0.13,0.28 0.3,0.49 0.53,0.63 0.22,0.14 0.46,0.21 0.73,0.22zm4.14 1.41l0 -6.58 1.6 0 0.13 1.07 0 0c0.2,-0.37 0.49,-0.66 0.86,-0.89 0.37,-0.22 0.82,-0.34 1.34,-0.34 0.54,0 1,0.12 1.37,0.35 0.37,0.23 0.66,0.56 0.86,1 0.19,0.43 0.29,0.97 0.29,1.6l0 3.79 -1.82 0 0 -3.62c0,-0.5 -0.1,-0.89 -0.32,-1.16 -0.21,-0.28 -0.55,-0.42 -1.01,-0.42 -0.28,0 -0.53,0.07 -0.76,0.21 -0.22,0.13 -0.4,0.32 -0.52,0.57 -0.13,0.25 -0.19,0.55 -0.19,0.91l0 3.51 -1.83 0zm10.54 0.16c-0.66,0 -1.24,-0.14 -1.75,-0.43 -0.51,-0.28 -0.91,-0.68 -1.2,-1.18 -0.29,-0.51 -0.43,-1.1 -0.43,-1.77 0,-0.68 0.14,-1.29 0.43,-1.81 0.28,-0.53 0.67,-0.95 1.18,-1.25 0.51,-0.31 1.11,-0.46 1.79,-0.46 0.65,0 1.22,0.15 1.71,0.43 0.5,0.29 0.88,0.68 1.15,1.17 0.28,0.48 0.41,1.05 0.41,1.68 0,0.09 0,0.18 0,0.29 -0.01,0.1 -0.02,0.22 -0.03,0.34l-5.33 0 0 -1.11 3.51 0c-0.03,-0.4 -0.17,-0.72 -0.44,-0.96 -0.26,-0.24 -0.59,-0.36 -0.98,-0.36 -0.3,0 -0.57,0.07 -0.81,0.21 -0.25,0.14 -0.44,0.34 -0.58,0.61 -0.14,0.27 -0.21,0.61 -0.21,1.03l0 0.38c0,0.34 0.07,0.64 0.2,0.9 0.13,0.25 0.31,0.45 0.55,0.59 0.23,0.14 0.51,0.21 0.82,0.21 0.31,0 0.57,-0.07 0.78,-0.2 0.2,-0.13 0.36,-0.3 0.46,-0.51l1.87 0c-0.12,0.41 -0.33,0.78 -0.62,1.11 -0.29,0.34 -0.65,0.6 -1.07,0.79 -0.41,0.2 -0.88,0.3 -1.41,0.3zm3.31 -9.05l0 -0.51 1.76 0 0 0.52 -0.55 -0.01 0 1.78 -0.66 0.01 0 -1.78 -0.55 -0.01zm2.1 1.78l0 -2.29 0.87 0 0.57 1.51 0.64 -1.51 0.79 0 0.01 2.29 -0.6 0.01 0 -1.51 -0.63 1.5 -0.45 0 -0.62 -1.52 0 1.53 -0.58 -0.01z"/>
  <g id="_1459555792048">
   <path class="fil1" d="M6.91 26.34c-0.19,-2.27 -0.19,-4.55 0,-6.82 0.51,-6.14 4.13,-9.7 10.23,-10.23 2.27,-0.2 4.56,-0.2 6.83,0 6.12,0.52 9.71,4.1 10.23,10.23 0.19,2.27 0.19,4.55 0,6.82 -0.51,6.14 -4.09,9.73 -10.23,10.24 -2.27,0.19 -4.56,0.19 -6.83,0 -6.14,-0.51 -9.72,-4.1 -10.23,-10.24z"/>
   <path class="fil2" d="M25.52 17.57c1.1,-1.45 2.63,-1.46 2.63,-1.46 0,0 0.23,1.36 -0.87,2.68 -1.16,1.4 -2.49,1.17 -2.49,1.17 0,0 -0.25,-1.1 0.73,-2.39zm-12.58 7.44l0 4.74 3.41 0 0 -5.46c0,-0.69 0.56,-1.25 1.25,-1.25 0.69,0 1.25,0.56 1.25,1.25l0 5.46 3.41 0 0 -5.46c0,-0.69 0.56,-1.25 1.25,-1.25 0.69,0 1.25,0.56 1.25,1.25l0 5.46 3.41 0 0 -9.09 -3.41 0 0 1.27c0,0 -0.83,-1.5 -2.94,-1.5 -1.22,0 -2.16,0.69 -2.67,0.69 -0.59,0 -1.47,-0.65 -2.6,-0.65 -1.75,0 -3.61,1.56 -3.61,4.54z"/>
  </g>
  <rect class="fil3" width="99.66" height="45.86"/>
 </g>
</svg>
