<?xml version="1.0" encoding="UTF-8"?>
<!DOCTYPE svg PUBLIC "-//W3C//DTD SVG 1.1//EN" "http://www.w3.org/Graphics/SVG/1.1/DTD/svg11.dtd">
<!-- Creator: CorelDRAW -->
<svg xmlns="http://www.w3.org/2000/svg" xml:space="preserve" width="435px" height="200px" version="1.1" style="shape-rendering:geometricPrecision; text-rendering:geometricPrecision; image-rendering:optimizeQuality; fill-rule:evenodd; clip-rule:evenodd"
viewBox="0 0 75.37 34.68"
 xmlns:xlink="http://www.w3.org/1999/xlink"
 xmlns:xodm="http://www.corel.com/coreldraw/odm/2003">
 <defs>
  <style type="text/css">
   <![CDATA[
    .fil3 {fill:none}
    .fil2 {fill:white}
    .fil0 {fill:#1A1A1A;fill-rule:nonzero}
    .fil1 {fill:#FF6D0C;fill-rule:nonzero}
   ]]>
  </style>
 </defs>
 <g id="WEB">
  <metadata id="CorelCorpID_0Corel-Layer"/>
  <path class="fil0" d="M28.55 20.87l0.01 -4.98 0.88 0 0.07 0.7 -0.01 0c0.16,-0.26 0.37,-0.46 0.64,-0.6 0.26,-0.15 0.56,-0.22 0.89,-0.22 0.25,0 0.48,0.03 0.68,0.1 0.2,0.07 0.38,0.18 0.54,0.32 0.16,0.13 0.29,0.3 0.4,0.51l-0.01 0c0.18,-0.3 0.42,-0.53 0.72,-0.69 0.29,-0.16 0.61,-0.24 0.94,-0.24 0.41,0 0.75,0.08 1.04,0.24 0.29,0.16 0.51,0.4 0.67,0.72 0.15,0.31 0.23,0.71 0.22,1.19l0.01 2.95 -0.99 0 0 -2.85c0.01,-0.47 -0.08,-0.82 -0.27,-1.05 -0.19,-0.23 -0.47,-0.35 -0.83,-0.35 -0.24,0 -0.45,0.06 -0.65,0.18 -0.19,0.12 -0.34,0.31 -0.45,0.55 -0.11,0.24 -0.17,0.53 -0.17,0.87l0.01 2.65 -1 0 0 -2.85c0.01,-0.47 -0.08,-0.82 -0.27,-1.05 -0.19,-0.23 -0.47,-0.35 -0.82,-0.35 -0.24,0 -0.45,0.06 -0.64,0.19 -0.19,0.12 -0.35,0.3 -0.46,0.54 -0.11,0.24 -0.17,0.53 -0.17,0.87l0.01 2.65 -0.99 0zm8.47 0l0.02 -4.98 0.97 0 0.01 4.98 -1 0zm0.5 -5.92c-0.18,-0.01 -0.34,-0.07 -0.46,-0.19 -0.12,-0.12 -0.18,-0.27 -0.18,-0.45 0,-0.18 0.06,-0.33 0.18,-0.44 0.12,-0.12 0.28,-0.17 0.47,-0.17 0.18,0 0.34,0.05 0.46,0.17 0.13,0.11 0.19,0.26 0.19,0.44 0,0.18 -0.06,0.33 -0.19,0.45 -0.12,0.12 -0.28,0.18 -0.47,0.19zm1.91 5.92l0 -6.92 2.61 0c0.56,0 1.03,0.1 1.4,0.29 0.36,0.19 0.64,0.45 0.83,0.78 0.18,0.33 0.27,0.7 0.27,1.11 0,0.38 -0.09,0.73 -0.27,1.06 -0.17,0.32 -0.44,0.59 -0.81,0.79 -0.36,0.21 -0.84,0.31 -1.42,0.31l-1.23 0 0 2.58 -1.38 0zm1.37 -3.7l1.15 0c0.42,0 0.72,-0.09 0.9,-0.28 0.18,-0.19 0.27,-0.45 0.28,-0.76 -0.01,-0.33 -0.1,-0.59 -0.28,-0.77 -0.18,-0.19 -0.48,-0.28 -0.9,-0.28l-1.14 0 -0.01 2.09zm4.14 3.7l0.01 -7.11 1.39 0 0 2.86 -0.01 0c0.15,-0.26 0.37,-0.46 0.65,-0.62 0.27,-0.15 0.59,-0.23 0.96,-0.23 0.4,0 0.75,0.09 1.03,0.26 0.29,0.18 0.5,0.43 0.65,0.76 0.16,0.33 0.23,0.75 0.22,1.23l0.01 2.85 -1.38 0 0 -2.72c0,-0.39 -0.08,-0.69 -0.25,-0.9 -0.16,-0.21 -0.42,-0.31 -0.76,-0.31 -0.21,0 -0.4,0.05 -0.58,0.15 -0.18,0.11 -0.32,0.26 -0.41,0.45 -0.1,0.19 -0.14,0.42 -0.14,0.69l0.01 2.64 -1.4 0zm7.97 0.12c-0.49,0 -0.92,-0.11 -1.31,-0.34 -0.38,-0.22 -0.68,-0.52 -0.89,-0.92 -0.21,-0.39 -0.33,-0.85 -0.34,-1.35 0.01,-0.51 0.12,-0.96 0.34,-1.36 0.22,-0.39 0.52,-0.7 0.9,-0.92 0.39,-0.22 0.82,-0.33 1.3,-0.33 0.48,0 0.91,0.11 1.29,0.33 0.38,0.22 0.68,0.53 0.9,0.92 0.22,0.39 0.33,0.84 0.34,1.36 -0.01,0.51 -0.12,0.96 -0.35,1.36 -0.22,0.39 -0.52,0.69 -0.9,0.91 -0.37,0.23 -0.8,0.34 -1.28,0.34zm-0.02 -1.19c0.22,-0.01 0.42,-0.06 0.58,-0.17 0.16,-0.1 0.29,-0.26 0.4,-0.47 0.11,-0.21 0.16,-0.47 0.15,-0.78 0,-0.31 -0.05,-0.57 -0.15,-0.78 -0.1,-0.21 -0.24,-0.37 -0.4,-0.48 -0.17,-0.1 -0.36,-0.16 -0.56,-0.16 -0.21,0 -0.4,0.06 -0.57,0.16 -0.18,0.11 -0.31,0.27 -0.4,0.48 -0.1,0.21 -0.15,0.47 -0.15,0.78 0,0.31 0.04,0.57 0.14,0.78 0.1,0.21 0.23,0.37 0.4,0.47 0.17,0.11 0.35,0.16 0.56,0.17zm3.13 1.07l0 -4.98 1.21 0 0.1 0.81 0 0c0.15,-0.28 0.37,-0.5 0.65,-0.67 0.28,-0.17 0.61,-0.26 1.01,-0.26 0.41,0 0.75,0.09 1.04,0.26 0.28,0.18 0.49,0.43 0.64,0.76 0.15,0.33 0.22,0.73 0.22,1.21l0 2.87 -1.37 0 0 -2.74c0,-0.38 -0.08,-0.68 -0.24,-0.88 -0.16,-0.21 -0.42,-0.31 -0.77,-0.31 -0.21,0 -0.4,0.05 -0.57,0.15 -0.17,0.1 -0.3,0.25 -0.4,0.43 -0.09,0.19 -0.14,0.42 -0.14,0.69l0 2.66 -1.38 0zm7.97 0.12c-0.5,0 -0.94,-0.11 -1.33,-0.33 -0.38,-0.21 -0.68,-0.51 -0.9,-0.89 -0.22,-0.39 -0.33,-0.84 -0.33,-1.34 0,-0.52 0.11,-0.97 0.32,-1.37 0.22,-0.4 0.52,-0.71 0.9,-0.94 0.39,-0.23 0.84,-0.35 1.35,-0.35 0.49,0 0.93,0.11 1.3,0.33 0.37,0.21 0.66,0.51 0.87,0.88 0.21,0.36 0.31,0.79 0.31,1.27 0,0.07 0,0.14 -0.01,0.22 0,0.08 -0.01,0.16 -0.02,0.25l-4.03 0 0 -0.84 2.66 0c-0.02,-0.3 -0.13,-0.54 -0.33,-0.72 -0.2,-0.18 -0.45,-0.27 -0.75,-0.27 -0.22,0 -0.43,0.05 -0.61,0.15 -0.19,0.11 -0.33,0.26 -0.44,0.47 -0.1,0.2 -0.15,0.46 -0.15,0.78l0 0.29c0,0.25 0.05,0.48 0.14,0.67 0.1,0.2 0.24,0.35 0.42,0.45 0.18,0.11 0.38,0.16 0.62,0.16 0.24,0 0.43,-0.05 0.59,-0.15 0.15,-0.1 0.27,-0.23 0.35,-0.38l1.41 0c-0.09,0.31 -0.25,0.59 -0.47,0.84 -0.22,0.25 -0.49,0.45 -0.8,0.59 -0.32,0.15 -0.67,0.23 -1.07,0.23zm2.5 -6.84l0 -0.39 1.33 0 0 0.39 -0.42 0 0 1.34 -0.49 0 0 -1.34 -0.42 0zm1.59 1.34l0 -1.73 0.66 0 0.43 1.14 0.48 -1.14 0.6 0 0.01 1.73 -0.46 0 0 -1.14 -0.48 1.14 -0.33 0 -0.47 -1.15 0 1.15 -0.44 0z"/>
  <g id="_1460523829536">
   <path class="fil1" d="M5.22 19.92c-0.14,-1.71 -0.14,-3.44 0,-5.16 0.39,-4.64 3.13,-7.33 7.74,-7.74 1.72,-0.15 3.45,-0.14 5.16,0 4.63,0.4 7.35,3.11 7.74,7.74 0.15,1.72 0.15,3.45 0,5.16 -0.38,4.65 -3.09,7.35 -7.74,7.74 -1.71,0.14 -3.44,0.14 -5.16,0 -4.64,-0.39 -7.35,-3.09 -7.74,-7.74z"/>
   <path class="fil2" d="M19.3 13.29c0.83,-1.1 1.99,-1.11 1.99,-1.11 0,0 0.17,1.03 -0.66,2.03 -0.88,1.06 -1.88,0.89 -1.88,0.89 0,0 -0.19,-0.84 0.55,-1.81zm-9.52 5.63l0 3.58 2.58 0 0 -4.13c0,-0.52 0.43,-0.94 0.95,-0.94 0.52,0 0.95,0.42 0.95,0.94l0 4.13 2.57 0 0 -4.13c0,-0.52 0.43,-0.94 0.95,-0.94 0.52,0 0.95,0.42 0.95,0.94l0 4.13 2.57 0 0 -6.87 -2.57 0 0 0.95c0,0 -0.63,-1.13 -2.22,-1.13 -0.93,0 -1.64,0.53 -2.02,0.53 -0.45,0 -1.12,-0.5 -1.98,-0.5 -1.32,0 -2.73,1.18 -2.73,3.44z"/>
  </g>
  <rect class="fil3" width="75.37" height="34.68"/>
 </g>
</svg>
