<?xml version="1.0" encoding="UTF-8"?>
<!DOCTYPE svg PUBLIC "-//W3C//DTD SVG 1.1//EN" "http://www.w3.org/Graphics/SVG/1.1/DTD/svg11.dtd">
<!-- Creator: CorelDRAW -->
<svg xmlns="http://www.w3.org/2000/svg" xml:space="preserve" width="150px" height="177px" version="1.1" style="shape-rendering:geometricPrecision; text-rendering:geometricPrecision; image-rendering:optimizeQuality; fill-rule:evenodd; clip-rule:evenodd"
viewBox="0 0 24.81 29.2"
 xmlns:xlink="http://www.w3.org/1999/xlink"
 xmlns:xodm="http://www.corel.com/coreldraw/odm/2003">
 <defs>
  <style type="text/css">
   <![CDATA[
    .fil0 {fill:none}
    .fil3 {fill:white}
    .fil1 {fill:#1A1A1A;fill-rule:nonzero}
    .fil2 {fill:#FF6D0C;fill-rule:nonzero}
   ]]>
  </style>
 </defs>
 <g id="WEB">
  <metadata id="CorelCorpID_0Corel-Layer"/>
  <rect class="fil0" width="24.81" height="29.2"/>
  <path class="fil1" d="M2.44 25.89l0.01 -2.38 0.42 0 0.03 0.34 0 0c0.07,-0.12 0.17,-0.22 0.3,-0.29 0.13,-0.07 0.27,-0.1 0.43,-0.1 0.12,0 0.23,0.01 0.32,0.05 0.1,0.03 0.18,0.08 0.26,0.15 0.08,0.06 0.14,0.14 0.19,0.24l-0.01 0c0.09,-0.14 0.21,-0.25 0.35,-0.33 0.14,-0.07 0.29,-0.11 0.45,-0.11 0.19,0 0.36,0.04 0.5,0.11 0.14,0.08 0.24,0.19 0.32,0.35 0.07,0.15 0.11,0.34 0.1,0.57l0.01 1.4 -0.48 0 0 -1.36c0.01,-0.22 -0.04,-0.39 -0.13,-0.5 -0.09,-0.11 -0.22,-0.17 -0.39,-0.17 -0.12,0 -0.22,0.03 -0.31,0.09 -0.09,0.06 -0.16,0.15 -0.22,0.26 -0.05,0.12 -0.08,0.25 -0.08,0.42l0.01 1.26 -0.48 0 0 -1.36c0,-0.22 -0.04,-0.39 -0.13,-0.5 -0.09,-0.11 -0.22,-0.17 -0.39,-0.17 -0.12,0 -0.22,0.03 -0.31,0.09 -0.09,0.06 -0.16,0.15 -0.22,0.26 -0.05,0.12 -0.08,0.25 -0.08,0.42l0.01 1.26 -0.48 0zm4.05 0l0.01 -2.38 0.46 0 0.01 2.38 -0.48 0zm0.24 -2.82c-0.09,-0.01 -0.16,-0.04 -0.22,-0.09 -0.06,-0.06 -0.09,-0.13 -0.09,-0.22 0,-0.09 0.03,-0.16 0.09,-0.21 0.06,-0.06 0.13,-0.08 0.22,-0.08 0.09,0 0.16,0.02 0.22,0.08 0.06,0.05 0.09,0.12 0.09,0.21 0,0.09 -0.03,0.16 -0.09,0.22 -0.06,0.05 -0.13,0.08 -0.22,0.09zm0.91 2.82l0 -3.3 1.25 0c0.27,0 0.49,0.05 0.66,0.14 0.18,0.09 0.31,0.21 0.4,0.37 0.09,0.16 0.13,0.33 0.13,0.53 0,0.18 -0.04,0.35 -0.13,0.51 -0.08,0.15 -0.21,0.28 -0.38,0.38 -0.18,0.09 -0.4,0.14 -0.68,0.14l-0.59 0 0 1.23 -0.66 0zm0.65 -1.76l0.56 0c0.19,0 0.34,-0.05 0.42,-0.14 0.09,-0.09 0.14,-0.21 0.14,-0.36 0,-0.16 -0.05,-0.28 -0.14,-0.37 -0.08,-0.09 -0.23,-0.13 -0.42,-0.13l-0.55 0 -0.01 1zm1.98 1.76l0.01 -3.39 0.66 0 0 1.36 -0.01 0c0.08,-0.12 0.18,-0.22 0.32,-0.29 0.13,-0.07 0.28,-0.11 0.45,-0.11 0.2,0 0.36,0.04 0.5,0.12 0.13,0.09 0.24,0.21 0.31,0.37 0.07,0.16 0.11,0.35 0.1,0.58l0.01 1.36 -0.66 0 0 -1.29c0,-0.19 -0.04,-0.33 -0.12,-0.43 -0.08,-0.1 -0.2,-0.16 -0.36,-0.16 -0.1,0 -0.2,0.03 -0.28,0.08 -0.09,0.05 -0.15,0.12 -0.2,0.21 -0.04,0.09 -0.07,0.2 -0.07,0.33l0.01 1.26 -0.67 0zm3.81 0.06c-0.23,0 -0.44,-0.05 -0.62,-0.16 -0.19,-0.1 -0.33,-0.25 -0.43,-0.44 -0.1,-0.19 -0.16,-0.4 -0.16,-0.65 0,-0.24 0.05,-0.45 0.16,-0.64 0.11,-0.19 0.25,-0.34 0.43,-0.44 0.18,-0.11 0.39,-0.16 0.62,-0.16 0.23,0 0.44,0.05 0.62,0.16 0.18,0.1 0.32,0.25 0.43,0.44 0.1,0.18 0.15,0.4 0.16,0.64 -0.01,0.25 -0.06,0.47 -0.17,0.65 -0.1,0.19 -0.25,0.34 -0.43,0.44 -0.18,0.11 -0.38,0.16 -0.61,0.16zm-0.01 -0.57c0.11,0 0.2,-0.03 0.28,-0.08 0.07,-0.05 0.14,-0.12 0.19,-0.22 0.05,-0.1 0.08,-0.23 0.07,-0.38 0,-0.14 -0.02,-0.27 -0.07,-0.37 -0.05,-0.1 -0.11,-0.18 -0.19,-0.23 -0.08,-0.05 -0.17,-0.07 -0.27,-0.08 -0.1,0.01 -0.19,0.03 -0.27,0.08 -0.09,0.05 -0.15,0.13 -0.2,0.23 -0.04,0.1 -0.06,0.23 -0.06,0.37 -0.01,0.15 0.02,0.28 0.06,0.38 0.05,0.1 0.11,0.17 0.19,0.22 0.08,0.05 0.17,0.08 0.27,0.08zm1.49 0.51l0 -2.38 0.58 0 0.05 0.39 0 0c0.07,-0.13 0.18,-0.24 0.31,-0.32 0.13,-0.08 0.3,-0.12 0.48,-0.12 0.2,0 0.36,0.04 0.5,0.12 0.13,0.09 0.24,0.21 0.31,0.36 0.07,0.16 0.1,0.36 0.1,0.58l0 1.37 -0.65 0 0 -1.3c0,-0.19 -0.04,-0.33 -0.12,-0.43 -0.07,-0.1 -0.2,-0.15 -0.36,-0.15 -0.1,0 -0.19,0.03 -0.28,0.08 -0.08,0.05 -0.14,0.12 -0.19,0.21 -0.04,0.09 -0.07,0.19 -0.07,0.32l0 1.27 -0.66 0zm3.81 0.06c-0.24,0 -0.45,-0.05 -0.63,-0.15 -0.18,-0.11 -0.33,-0.25 -0.43,-0.43 -0.11,-0.19 -0.16,-0.4 -0.16,-0.64 0,-0.25 0.05,-0.47 0.16,-0.66 0.1,-0.19 0.24,-0.34 0.42,-0.45 0.19,-0.11 0.4,-0.16 0.65,-0.16 0.23,0 0.44,0.05 0.62,0.15 0.18,0.11 0.32,0.25 0.41,0.42 0.1,0.18 0.15,0.38 0.15,0.61 0,0.03 0,0.07 0,0.11 0,0.03 0,0.08 -0.01,0.12l-1.93 0 0 -0.4 1.27 0c-0.01,-0.15 -0.06,-0.26 -0.15,-0.35 -0.1,-0.09 -0.22,-0.13 -0.36,-0.13 -0.11,0 -0.21,0.03 -0.29,0.08 -0.09,0.05 -0.16,0.12 -0.21,0.22 -0.05,0.1 -0.08,0.22 -0.08,0.37l0 0.14c0,0.12 0.03,0.23 0.07,0.32 0.05,0.09 0.12,0.17 0.2,0.22 0.09,0.05 0.19,0.07 0.3,0.07 0.11,0 0.21,-0.02 0.28,-0.07 0.07,-0.05 0.13,-0.11 0.17,-0.18l0.67 0c-0.04,0.14 -0.12,0.28 -0.22,0.4 -0.11,0.12 -0.24,0.21 -0.39,0.28 -0.15,0.07 -0.32,0.11 -0.51,0.11zm1.2 -3.27l0 -0.18 0.63 0 0 0.18 -0.2 0 0 0.64 -0.23 0.01 0 -0.65 -0.2 0zm0.76 0.64l0 -0.82 0.31 0 0.21 0.54 0.23 -0.54 0.29 0 0 0.82 -0.22 0.01 0 -0.55 -0.23 0.54 -0.16 0 -0.22 -0.55 0 0.56 -0.21 -0.01z"/>
  <g id="_1459240745536">
   <path class="fil2" d="M3.95 13.96c-0.11,-1.41 -0.11,-2.82 0,-4.23 0.32,-3.8 2.56,-6.01 6.34,-6.34 1.41,-0.12 2.82,-0.12 4.23,0 3.79,0.33 6.01,2.54 6.34,6.34 0.12,1.41 0.11,2.82 0,4.23 -0.32,3.8 -2.54,6.02 -6.34,6.34 -1.41,0.11 -2.82,0.11 -4.23,0 -3.8,-0.32 -6.02,-2.54 -6.34,-6.34z"/>
   <path class="fil3" d="M15.48 8.52c0.68,-0.9 1.63,-0.9 1.63,-0.9 0,0 0.14,0.84 -0.54,1.66 -0.72,0.87 -1.54,0.72 -1.54,0.72 0,0 -0.16,-0.68 0.45,-1.48zm-7.79 4.62l0 2.93 2.11 0 0 -3.38c0,-0.43 0.35,-0.78 0.77,-0.78 0.43,0 0.78,0.35 0.78,0.78l0 3.38 2.11 0 0 -3.38c0,-0.43 0.35,-0.78 0.78,-0.78 0.42,0 0.77,0.35 0.77,0.78l0 3.38 2.11 0 0 -5.63 -2.11 0 0 0.78c0,0 -0.51,-0.93 -1.82,-0.93 -0.76,0 -1.34,0.44 -1.65,0.44 -0.37,0 -0.91,-0.41 -1.62,-0.41 -1.08,0 -2.23,0.97 -2.23,2.82z"/>
  </g>
 </g>
</svg>
