<svg xmlns="http://www.w3.org/2000/svg" viewBox="25.69 29.51 185.47 34.64"><defs><clipPath id="a"><path d="M194 39h16.902v23H194Zm0 0"/></clipPath><clipPath id="b"><path d="M46 29h25.738v36H46Zm0 0"/></clipPath><clipPath id="c"><path d="M25.688 29H50v34H25.688Zm0 0"/></clipPath></defs><path d="M91.04 33.672c2.401 0 4.433.5 6.097 1.492 1.664.973 2.902 2.277 3.726 3.906.82 1.61 1.23 3.364 1.23 5.27q0 2.953-1.296 5.617c-.84 1.758-2.137 3.188-3.883 4.285q-2.621 1.653-6.379 1.653h-7.012V33.672Zm-.474 18.348q2.431 0 4.106-1.079 1.674-1.108 2.465-2.855a8.7 8.7 0 0 0 .82-3.746c0-1.227-.242-2.352-.727-3.367q-.725-1.553-2.242-2.473-1.516-.954-3.789-.953h-3.57V52.02ZM111.422 39.262q2.369-.002 4.2 1.015 1.834 1.014 2.843 2.95 1.043 1.906 1.043 4.507 0 2.636-1.043 4.575-1.009 1.904-2.844 2.918c-1.2.68-2.598 1.015-4.2 1.015-1.577 0-2.98-.336-4.198-1.015-1.223-.676-2.168-1.649-2.844-2.918q-1.008-1.939-1.008-4.575 0-2.602 1.008-4.507c.676-1.29 1.621-2.274 2.844-2.95 1.218-.68 2.62-1.015 4.199-1.015m-.031 3.648q-1.894.002-2.97 1.27-1.041 1.27-1.042 3.554c0 1.59.371 2.797 1.105 3.621q1.137 1.238 3 1.239c1.266 0 2.243-.426 2.938-1.27q1.073-1.27 1.074-3.59 0-2.378-1.137-3.586-1.106-1.237-2.968-1.238M121.547 33.324h3.918v22.57h-3.918ZM135.543 39.262q2.842 0 4.484 1.3c1.118.844 1.672 2.18 1.672 4v11.333h-3.82v-2.383c-.59.976-1.348 1.672-2.274 2.097a6.65 6.65 0 0 1-2.84.633q-2.178 0-3.73-1.203-1.513-1.24-1.515-3.652 0-4.254 5.18-5.016l3.284-.476q1.897-.287 1.895-1.715c0-.57-.25-.992-.758-1.27-.504-.273-1.148-.414-1.926-.414q-1.64 0-2.398.668c-.508.426-.863 1.008-1.074 1.746h-3.727c.313-1.863 1.137-3.27 2.461-4.222 1.328-.954 3.023-1.426 5.086-1.426m-1.77 13.71q1.769.002 2.875-1.14 1.137-1.145 1.137-2.793v-.89c-.273.105-.59.203-.95.285-.355.062-.733.129-1.136.191l-1.64.254c-1.746.234-2.621.96-2.621 2.191q0 .95.632 1.426c.418.32.989.477 1.703.477M153.902 43.195h-1.043q-4.23 0-4.23 4.7v8h-3.918V39.547h3.887v2.41q.598-1.3 1.672-1.934 1.107-.668 2.558-.668h1.074ZM168.754 50.973h-9.348l-1.832 4.922h-4.355l8.59-22.223h4.671l8.59 22.223h-4.484Zm-1.422-3.871-3.25-8.762-3.254 8.762ZM185.68 39.262q2.02 0 3.632.949 1.641.924 2.59 2.797c.653 1.226.98 2.726.98 4.508q0 2.79-1.042 4.726-1.042 1.905-2.781 2.86-1.703.919-3.758.918-1.547.002-2.778-.57-1.23-.57-1.957-1.524v8.062h-3.918V39.547h3.82v2.601q.604-1.33 1.993-2.093c.945-.532 2.02-.793 3.219-.793m-.946 13.27q1.798-.002 2.97-1.239c.796-.828 1.198-2.023 1.198-3.59q-.002-2.38-1.199-3.617-1.171-1.237-2.969-1.238-1.77.001-3.03 1.238-1.267 1.237-1.267 3.617 0 2.35 1.266 3.59 1.261 1.237 3.031 1.238m0 0"/><g clip-path="url(#a)"><path d="M203.957 39.262q2.02 0 3.629.949 1.646.924 2.59 2.797c.652 1.226.98 2.726.98 4.508q0 2.79-1.043 4.726-1.042 1.905-2.777 2.86-1.706.919-3.758.918-1.548.002-2.781-.57-1.23-.57-1.957-1.524v8.062h-3.914V39.547h3.82v2.601q.6-1.33 1.988-2.093c.95-.532 2.02-.793 3.223-.793m-.95 13.27q1.801-.002 2.97-1.239 1.2-1.24 1.199-3.59 0-2.38-1.2-3.617c-.777-.824-1.769-1.238-2.968-1.238q-1.768.001-3.031 1.238t-1.262 3.617c0 1.567.418 2.762 1.262 3.59q1.263 1.237 3.03 1.238m0 0"/></g><g clip-path="url(#b)"><path fill="#00df82" d="M71.715 30.73c0-.718-.211-1.164-1.25-1.164-8.285 0-16.778 1.938-21.028 3.786v3.226c3.633-1.644 8.91-2.96 14.426-3.582a5.8 5.8 0 0 0 1.348 2.91c1.098 1.27 2.691 1.637 3.52 1.739 0 4.253.007 9.312.011 13.32-.765.078-2.183.422-3.508 1.781-1.406 1.45-1.562 3.36-1.566 4.133-10.063 1.664-15.211 4.746-15.914 3.98-1.016 1.012-2.066 2.078-1.48 2.828 1.593 2.04 6.218-3.18 24.308-4.57.848-.062 1.156-.347 1.156-1.129 0-.004-.023-20.933-.023-27.258m0 0"/></g><g clip-path="url(#c)"><path fill="#00df82" d="M49.113 30.375c-.879-.973-6.34-2.477-22.633 4.184-.43.171-.793.629-.793 1.14 0 0 .016 18.582.016 26.196 0 1.023.672 1.253 1.57.964 5.172-1.664 11.993-4.515 17.282-4.84 3.047-.19 4.32.047 4.633.528a.05.05 0 0 0 .019.02q.017.004.027 0a.1.1 0 0 0 .024-.016.1.1 0 0 0 .008-.028v-2.28c0-1.126-2.024-1.415-5.102-1.153-3.34.285-7.379 1.387-10.227 2.277a4.2 4.2 0 0 0-.734-1.699 4.1 4.1 0 0 0-1.387-1.203 5.15 5.15 0 0 0-3.132-.61c0-4.328-.004-9.082-.008-12.64.86-.348 2.39-1.13 3.277-2.5a7.3 7.3 0 0 0 1.133-3.426c4.176-1.465 9.074-2.871 12.562-2.871 2.97 0 3.485.547 3.79.934 0-1.012.128-2.473-.325-2.977m0 0"/></g><path fill="#00df82" d="M49.45 39.297s-.04-.996-.044-2.195c0-1.157-.992-1.555-1.785-1.602-3.73-.227-4.676 4.36-4.57 8.047.097 3.336 1.117 5.176 2.93 6.543 1.835 1.383 3.308.7 3.41 5.043 3.21-.02 5.867-4.063 5.832-8.63-.032-4.124-2.52-7.214-5.774-7.206m0 0"/></svg>